<?xml version="1.0" encoding="UTF-8" standalone="no"?>
<svg
   height="256"
   width="256"
   version="1.1"
   id="svg35"
   sodipodi:docname="androidstudio.svg"
   xml:space="preserve"
   inkscape:version="1.2 (dc2aedaf03, 2022-05-15)"
   xmlns:inkscape="http://www.inkscape.org/namespaces/inkscape"
   xmlns:sodipodi="http://sodipodi.sourceforge.net/DTD/sodipodi-0.dtd"
   xmlns="http://www.w3.org/2000/svg"
   xmlns:svg="http://www.w3.org/2000/svg"><defs
     id="defs39" /><sodipodi:namedview
     id="namedview37"
     pagecolor="#ffffff"
     bordercolor="#000000"
     borderopacity="0.25"
     inkscape:showpageshadow="2"
     inkscape:pageopacity="0.0"
     inkscape:pagecheckerboard="0"
     inkscape:deskcolor="#d1d1d1"
     showgrid="false"
     inkscape:zoom="1.3064903"
     inkscape:cx="84.960449"
     inkscape:cy="156.90894"
     inkscape:window-width="1366"
     inkscape:window-height="704"
     inkscape:window-x="0"
     inkscape:window-y="0"
     inkscape:window-maximized="1"
     inkscape:current-layer="svg35" /><linearGradient
     id="a"
     gradientUnits="userSpaceOnUse"
     x1="88"
     x2="488"
     y1="88"
     y2="488"><stop
       offset="0"
       stop-opacity=".588235"
       id="stop2" /><stop
       offset="1"
       stop-opacity=".205556"
       id="stop4" /></linearGradient><filter
     id="b"
     color-interpolation-filters="sRGB"
     height="1.0908571"
     width="1.090809"
     x="-0.045404476"
     y="-0.045428569"><feGaussianBlur
       stdDeviation="8.48"
       id="feGaussianBlur7" /></filter><filter
     id="c"
     color-interpolation-filters="sRGB"
     height="1.0227143"
     width="1.0227022"
     x="-0.011351119"
     y="-0.011357142"><feGaussianBlur
       stdDeviation="2.12"
       id="feGaussianBlur10" /></filter><path
     d="m141.84323 74c-70.59344 0-78.18921 7.250835-77.84323 77.98706v146.01294 146.01294c-.34598 70.73623 7.24979 77.98706 77.84323 77.98706h292.31354c70.59344 0 79.78033-7.27652 77.84323-77.98706v-146.01294-146.01294c0-70.737067-7.24979-77.98706-77.84323-77.98706z"
     filter="url(#c)"
     opacity=".1"
     transform="matrix(.5 0 0 .5 -16.116488 -20.825537)"
     id="path13" /><path
     d="m141.84323 74c-70.59344 0-78.18921 7.250835-77.84323 77.98706v146.01294 146.01294c-.34598 70.73623 7.24979 77.98706 77.84323 77.98706h292.31354c70.59344 0 79.78033-7.27652 77.84323-77.98706v-146.01294-146.01294c0-70.737067-7.24979-77.98706-77.84323-77.98706z"
     fill="url(#a)"
     filter="url(#b)"
     opacity=".3"
     transform="matrix(.5 0 0 .5 -16.116488 -20.825235)"
     id="path15" /><path
     d="m53.695112 13.174464c-36.098811 0-39.983002 3.690159-39.80608 39.689839v74.310167 74.31016c-.176922 35.99969 3.707269 39.68984 39.80608 39.68984h148.387318c36.09881 0 40.77464-3.70276 39.80608-39.68984v-74.31016-74.310167c0-36.00011-3.70727-39.689839-39.80608-39.689839z"
     opacity=".2"
     id="path17" /><path
     d="m200.95649 15.174464c35.29673 0 39.09461 3.625419 38.92162 38.993529v73.006477 73.00647c.17299 35.36812-3.62489 38.99353-38.92162 38.99353h-146.156758c-35.296716 0-38.921616-3.625-38.921616-38.99353v-73.00647-73.006477c0-35.36853 3.6249-38.993529 38.921616-38.993529z"
     fill="#fbfbfb"
     id="path19" /><path
     d="m54.810792 239.17447c-35.296731 0-39.094875-3.62603-38.921885-38.99414v-2c-.17299 35.36811 3.625154 38.99414 38.921885 38.99414h146.156238c35.29673 0 38.92188-3.62561 38.92188-38.99414v2c0 35.36853-3.62515 38.99414-38.92188 38.99414z"
     opacity=".2"
     id="path21" /><path
     d="m54.805392 15.174464c-35.296728 0-39.09487 3.626029-38.92188 38.994139v2c-.17299-35.36811 3.625152-38.99414 38.92188-38.99414h146.156238c35.29673 0 38.92188 3.62561 38.92188 38.99414v-2c0-35.36853-3.62515-38.994139-38.92188-38.994139z"
     fill="#fff"
     opacity=".3"
     id="path33" /><g
     id="g326"><path
       style="fill:#0a455f;stroke-width:4.10255"
       d="M 111.0859,67.687843 H 75.355417 a 13.154917,12.327524 0 0 0 -13.11244,12.327528 12.730565,11.929862 0 0 0 12.730575,12.287758 h 36.494258 z"
       id="path324" /><path
       style="opacity:0.1;stroke-width:4.10255"
       d="m 75.35417,67.687843 a 13.154917,12.327524 0 0 0 -13.108924,12.323668 12.730565,11.929862 0 0 0 0.160246,2.24358 13.154917,12.327524 0 0 1 12.948666,-10.4647 h 35.729022 l 0.32053,20.512738 h 0.0641 l -0.38461,-24.615286 z"
       id="path326" /><path
       style="fill:#3ddc84;stroke-width:4.10255"
       d="m 101.25953,47.175104 a 2.051479,2.051479 0 0 0 -1.778843,3.157038 l 6.939073,11.153802 A 41.025477,41.025477 0 0 0 86.852532,96.405677 41.025477,41.025477 0 0 0 127.87801,137.43116 41.025477,41.025477 0 0 0 168.90349,96.405677 41.025477,41.025477 0 0 0 149.32825,61.493956 l 6.94708,-11.161814 a 2.051479,2.051479 0 0 0 -1.77884,-3.157038 2.051479,2.051479 0 0 0 -1.69871,0.993588 L 145.7305,59.522813 A 41.025477,41.025477 0 0 0 127.87801,55.3802 41.025477,41.025477 0 0 0 110.0175,59.506784 l -7.05926,-11.338092 a 2.051479,2.051479 0 0 0 -1.69871,-0.993588 z"
       id="path330" /><path
       style="fill:#4285f4;stroke-width:4.10255"
       d="M 193.52438,182.55918 H 75.418186 C 68.144574,182.51238 62.266321,176.621 62.243018,169.35469 V 78.813329 c -0.04103,7.66232 6.417698,13.959534 14.073503,13.4898 h 97.958419 c 0,0 19.24944,-1.866425 19.24944,12.620061 z"
       id="path334" /><path
       style="fill:#0a455f;stroke-width:4.10255"
       d="m 127.8139,108.71416 a 4.102958,4.0744001 0 0 0 -4.03845,4.12659 v 4.79966 a 12.307643,12.307643 0 0 0 -8.2051,11.58649 12.307643,12.307643 0 0 0 4.43108,9.43907 l -28.349249,59.25457 c -1.078396,2.08545 -0.892132,4.56508 0.488777,6.48234 1.40107,1.89934 3.755321,2.94333 6.185875,2.74839 2.431337,-0.22211 4.545267,-1.68402 5.520807,-3.81409 L 122.81392,165.004 c 0.91482,-1.78101 2.81196,-2.94844 4.89581,-2.95672 0.0581,-1.7e-4 0.11052,0.0226 0.16828,0.0242 0.0579,-0.002 0.11003,-0.0242 0.16829,-0.0242 2.08385,0.008 3.98098,1.17571 4.89581,2.95672 l 18.96627,38.33318 c 0.97555,2.13007 3.08948,3.59198 5.52081,3.81409 2.43056,0.19495 4.78482,-0.84905 6.18588,-2.74839 1.38091,-1.91726 1.56717,-4.39689 0.48878,-6.48234 l -28.34127,-59.23855 a 12.307643,12.307643 0 0 0 4.42306,-9.45509 12.307643,12.307643 0 0 0 -8.2051,-11.5945 v -4.79165 a 4.102958,4.0744001 0 0 0 -4.16664,-4.12659 z m 0.0641,12.30765 a 8.2050954,8.2050954 0 0 1 8.20509,8.20509 8.2050954,8.2050954 0 0 1 -8.20509,8.2051 8.2050954,8.2050954 0 0 1 -8.2051,-8.2051 8.2050954,8.2050954 0 0 1 8.2051,-8.20509 z"
       id="path340" /><path
       style="fill:#ffffff;stroke-width:4.10255"
       d="m 144.33602,79.995486 a 4.0547106,4.0904617 0 0 1 -2.9396,-7.004907 4.1053945,4.1415925 0 0 1 6.99432,2.914454 4.0547106,4.0904617 0 0 1 -4.05472,4.090453"
       id="path344" /><path
       style="fill:#ffffff;stroke-width:4.10255"
       d="m 111.32721,79.995486 a 3.9192987,3.9395874 0 0 1 -2.79248,-6.746537 3.9682899,3.9888323 0 1 1 5.58509,5.61391 3.8703074,3.8903426 0 0 1 -2.79261,1.132627"
       id="path346" /><path
       style="fill:#0a455f;stroke-width:4.10255"
       d="m 182.65624,116.91842 h -4.92696 c -0.34297,0 -0.62071,0.23109 -0.62071,0.60692 v 84.86607 c -6.6e-4,0.35984 0.25436,0.65804 0.58195,0.68051 h 5.08211 c 5.94118,-0.0234 10.74617,-5.31029 10.74613,-11.82384 v -86.63731 c 1.6e-4,6.56349 -4.87588,12.35486 -10.86252,12.30765 z"
       id="path350" /></g></svg>
