<?xml version="1.0" encoding="UTF-8" standalone="no"?>
<svg
   height="256"
   width="256"
   version="1.1"
   id="svg35"
   sodipodi:docname="androidstudio.svg"
   xml:space="preserve"
   inkscape:version="1.2 (dc2aedaf03, 2022-05-15)"
   xmlns:inkscape="http://www.inkscape.org/namespaces/inkscape"
   xmlns:sodipodi="http://sodipodi.sourceforge.net/DTD/sodipodi-0.dtd"
   xmlns="http://www.w3.org/2000/svg"
   xmlns:svg="http://www.w3.org/2000/svg"><defs
     id="defs39"><clipPath
       clipPathUnits="userSpaceOnUse"
       id="clipPath28075"><rect
         style="opacity:0.707717;fill:#4285f4;fill-opacity:1;stroke:none;stroke-width:1.48165"
         id="rect28077"
         width="486.64764"
         height="243.60289"
         x="-177.53925"
         y="197.28093"
         transform="rotate(-28.129289)" /></clipPath><clipPath
       clipPathUnits="userSpaceOnUse"
       id="clipPath31904"><rect
         style="opacity:0.292571;fill:#1a7fd4;fill-opacity:1;stroke:none;stroke-width:0.879047"
         id="rect31906"
         width="404.27655"
         height="112"
         x="-870.37219"
         y="325.78625" /></clipPath><clipPath
       clipPathUnits="userSpaceOnUse"
       id="clipPath32908"><rect
         style="opacity:1;fill:#ffffff;fill-opacity:1;stroke:none;stroke-width:1.2286"
         id="rect32910"
         width="398.77234"
         height="222.2438"
         x="-1014.8521"
         y="588.48315" /></clipPath></defs><sodipodi:namedview
     id="namedview37"
     pagecolor="#ffffff"
     bordercolor="#000000"
     borderopacity="0.25"
     inkscape:showpageshadow="2"
     inkscape:pageopacity="0.0"
     inkscape:pagecheckerboard="0"
     inkscape:deskcolor="#d1d1d1"
     showgrid="false"
     inkscape:zoom="1.8476563"
     inkscape:cx="77.936573"
     inkscape:cy="141.26004"
     inkscape:window-width="1366"
     inkscape:window-height="704"
     inkscape:window-x="0"
     inkscape:window-y="0"
     inkscape:window-maximized="1"
     inkscape:current-layer="svg35" /><linearGradient
     id="a"
     gradientUnits="userSpaceOnUse"
     x1="88"
     x2="488"
     y1="88"
     y2="488"><stop
       offset="0"
       stop-opacity=".588235"
       id="stop2" /><stop
       offset="1"
       stop-opacity=".205556"
       id="stop4" /></linearGradient><filter
     id="b"
     color-interpolation-filters="sRGB"
     height="1.0908571"
     width="1.090809"
     x="-0.045404476"
     y="-0.045428569"><feGaussianBlur
       stdDeviation="8.48"
       id="feGaussianBlur7" /></filter><filter
     id="c"
     color-interpolation-filters="sRGB"
     height="1.0227143"
     width="1.0227022"
     x="-0.011351119"
     y="-0.011357142"><feGaussianBlur
       stdDeviation="2.12"
       id="feGaussianBlur10" /></filter><path
     d="m141.84323 74c-70.59344 0-78.18921 7.250835-77.84323 77.98706v146.01294 146.01294c-.34598 70.73623 7.24979 77.98706 77.84323 77.98706h292.31354c70.59344 0 79.78033-7.27652 77.84323-77.98706v-146.01294-146.01294c0-70.737067-7.24979-77.98706-77.84323-77.98706z"
     filter="url(#c)"
     opacity=".1"
     transform="matrix(.5 0 0 .5 -16.116488 -20.825537)"
     id="path13" /><path
     d="m141.84323 74c-70.59344 0-78.18921 7.250835-77.84323 77.98706v146.01294 146.01294c-.34598 70.73623 7.24979 77.98706 77.84323 77.98706h292.31354c70.59344 0 79.78033-7.27652 77.84323-77.98706v-146.01294-146.01294c0-70.737067-7.24979-77.98706-77.84323-77.98706z"
     fill="url(#a)"
     filter="url(#b)"
     opacity=".3"
     transform="matrix(.5 0 0 .5 -16.116488 -20.825235)"
     id="path15" /><path
     d="m53.695112 13.174464c-36.098811 0-39.983002 3.690159-39.80608 39.689839v74.310167 74.31016c-.176922 35.99969 3.707269 39.68984 39.80608 39.68984h148.387318c36.09881 0 40.77464-3.70276 39.80608-39.68984v-74.31016-74.310167c0-36.00011-3.70727-39.689839-39.80608-39.689839z"
     opacity=".2"
     id="path17" /><path
     d="m200.95649 15.174464c35.29673 0 39.09461 3.625419 38.92162 38.993529v73.006477 73.00647c.17299 35.36812-3.62489 38.99353-38.92162 38.99353h-146.156758c-35.296716 0-38.921616-3.625-38.921616-38.99353v-73.00647-73.006477c0-35.36853 3.6249-38.993529 38.921616-38.993529z"
     fill="#fbfbfb"
     id="path19"
     style="fill:#faf8f6;fill-opacity:1" /><path
     d="m54.810792 239.17447c-35.296731 0-39.094875-3.62603-38.921885-38.99414v-2c-.17299 35.36811 3.625154 38.99414 38.921885 38.99414h146.156238c35.29673 0 38.92188-3.62561 38.92188-38.99414v2c0 35.36853-3.62515 38.99414-38.92188 38.99414z"
     opacity=".2"
     id="path21" /><path
     d="m54.805392 15.174464c-35.296728 0-39.09487 3.626029-38.92188 38.994139v2c-.17299-35.36811 3.625152-38.99414 38.92188-38.99414h146.156238c35.29673 0 38.92188 3.62561 38.92188 38.99414v-2c0-35.36853-3.62515-38.994139-38.92188-38.994139z"
     fill="#fff"
     opacity=".3"
     id="path33" /><path
     d="m -710.27542,831.47543 c 0,-9.9192 -8.14786,-18.0671 -18.06709,-18.0671 -9.91917,0 -18.06711,8.1479 -18.06711,18.0671 v 75.27965 c 0,9.91917 8.14794,18.06707 18.06711,18.06707 9.91923,0 18.06709,-8.1479 18.06709,-18.06707 z m -210.78299,0 c 0,-9.9192 -8.14775,-18.0671 -18.06703,-18.0671 -9.91911,0 -18.06704,8.1479 -18.06704,18.0671 v 75.27965 c 0,9.91917 8.14793,18.06707 18.06704,18.06707 9.91928,0 18.06703,-8.1479 18.06703,-18.06707 z m 126.82411,-86.08445 12.75317,-23.02671 c 0.7086,-1.2399 0.26579,-2.83405 -0.97419,-3.45399 -0.35414,-0.177 -0.79698,-0.35427 -1.23981,-0.35427 -0.88566,0 -1.77135,0.44284 -2.21417,1.32847 l -12.93026,23.29241 c -10.53917,-4.69392 -22.40686,-7.35084 -34.89444,-7.35084 -12.48759,0 -24.35509,2.65692 -34.89428,7.35084 l -12.84189,-23.29241 c -0.70843,-1.2399 -2.21399,-1.68272 -3.45398,-0.9742 -1.2398,0.70853 -1.68264,2.21409 -0.97419,3.45399 l 12.75335,23.02671 c -24.62087,12.75325 -41.18251,36.9313 -41.18251,64.7405 h 161.18701 c 0,-27.8092 -16.56148,-51.98725 -41.09381,-64.7405 z m -76.6967,35.2486 c -3.71957,0 -6.73089,-3.01118 -6.73089,-6.73089 0,-3.71971 3.01132,-6.73093 6.73089,-6.73093 3.71976,0 6.73091,3.01122 6.73091,6.73093 0,3.71971 -3.01115,6.73089 -6.73091,6.73089 z m 74.39398,0 c -3.71957,0 -6.73089,-3.01118 -6.73089,-6.73089 0,-3.71971 3.01132,-6.73093 6.73089,-6.73093 3.71976,0 6.7309,3.01122 6.7309,6.73093 0,3.71971 -3.01114,6.73089 -6.7309,6.73089 z m -117.79048,35.8685 v 116.81625 c 0,10.80483 8.67931,19.48414 19.48424,19.48414 h 12.93043 v 39.85389 c 0,9.91924 8.14777,18.06714 18.06704,18.06714 9.9191,0 18.06703,-8.1479 18.06703,-18.06714 v -39.85389 h 24.08951 v 39.85389 c 0,9.91924 8.14793,18.06714 18.06721,18.06714 9.91911,0 18.06704,-8.1479 18.06704,-18.06714 v -39.85389 h 12.93041 c 10.80479,0 19.4841,-8.67931 19.4841,-19.48414 V 816.50808 Z"
     fill="#79c257"
     id="path32848"
     style="fill:#31c6b7;fill-opacity:1;stroke-width:1.94783"
     clip-path="url(#clipPath32908)"
     transform="translate(961.73395,-668.98397)" /><path
     d="m -595.2248,213.78625 c 35.29673,0 39.09461,3.62542 38.92162,38.99353 v 73.00648 73.00647 c 0.17299,35.36812 -3.62489,38.99353 -38.92162,38.99353 h -146.1568 c -35.2967,0 -38.9216,-3.625 -38.9216,-38.99353 v -73.00647 -73.00648 c 0,-35.36853 3.6249,-38.99353 38.9216,-38.99353 z"
     fill="#fbfbfb"
     id="path31848"
     style="opacity:1;fill:#1a7fd4;fill-opacity:1"
     clip-path="url(#clipPath31904)"
     transform="translate(796.1813,-198.61178)" /><text
     xml:space="preserve"
     style="opacity:0.0458016;fill:#000000;fill-opacity:1;stroke:none"
     x="-690.84778"
     y="401.7084"
     id="text32690"><tspan
       sodipodi:role="line"
       id="tspan32688"></tspan></text><path
     d="m -595.2248,213.78625 c 35.29673,0 39.09461,3.62542 38.92162,38.99353 v 73.00648 73.00647 c 0.17299,35.36812 -3.62489,38.99353 -38.92162,38.99353 h -146.1568 c -35.2967,0 -38.9216,-3.625 -38.9216,-38.99353 v -73.00647 -73.00648 c 0,-35.36853 3.6249,-38.99353 38.9216,-38.99353 z"
     fill="#fbfbfb"
     id="path32912"
     style="opacity:1;fill:#ffffff;fill-opacity:0.1"
     clip-path="url(#clipPath31904)"
     transform="rotate(-90,-369.51573,-171.61028)" /></svg>
