<?xml version="1.0" encoding="UTF-8" standalone="no"?>
<svg
   height="256"
   width="256"
   version="1.1"
   id="svg35"
   sodipodi:docname="de.haeckerfelix.Fragments.svg"
   xml:space="preserve"
   inkscape:version="1.2 (dc2aedaf03, 2022-05-15)"
   xmlns:inkscape="http://www.inkscape.org/namespaces/inkscape"
   xmlns:sodipodi="http://sodipodi.sourceforge.net/DTD/sodipodi-0.dtd"
   xmlns="http://www.w3.org/2000/svg"
   xmlns:svg="http://www.w3.org/2000/svg"><defs
     id="defs39"><clipPath
       clipPathUnits="userSpaceOnUse"
       id="clipPath785"><path
         d="m -27.566612,-18.463502 c 35.2967357,6e-6 39.094616,3.625426 38.921626,38.993531 V 93.53651 l -8e-6,73.00647 c 0.172987,35.36812 -3.6248834,38.99353 -38.921572,38.99358 H -173.72332 c -35.29672,0 -38.92162,-3.62501 -38.92157,-38.99358 l -9e-5,-73.006469 V 20.53003 c 0,-35.368534 3.6249,-38.993532 38.92162,-38.993533 z"
         fill="#fbfbfb"
         id="path787"
         style="stroke-width:0.999999" /></clipPath><clipPath
       clipPathUnits="userSpaceOnUse"
       id="clipPath789"><path
         d="m -27.566612,-18.463502 c 35.2967357,6e-6 39.094616,3.625426 38.921626,38.993531 V 93.53651 l -8e-6,73.00647 c 0.172987,35.36812 -3.6248834,38.99353 -38.921572,38.99358 H -173.72332 c -35.29672,0 -38.92162,-3.62501 -38.92157,-38.99358 l -9e-5,-73.006469 V 20.53003 c 0,-35.368534 3.6249,-38.993532 38.92162,-38.993533 z"
         fill="#fbfbfb"
         id="path791"
         style="stroke-width:0.999999" /></clipPath><clipPath
       clipPathUnits="userSpaceOnUse"
       id="clipPath793"><path
         d="m -27.566612,-18.463502 c 35.2967357,6e-6 39.094616,3.625426 38.921626,38.993531 V 93.53651 l -8e-6,73.00647 c 0.172987,35.36812 -3.6248834,38.99353 -38.921572,38.99358 H -173.72332 c -35.29672,0 -38.92162,-3.62501 -38.92157,-38.99358 l -9e-5,-73.006469 V 20.53003 c 0,-35.368534 3.6249,-38.993532 38.92162,-38.993533 z"
         fill="#fbfbfb"
         id="path795"
         style="stroke-width:0.999999" /></clipPath><clipPath
       clipPathUnits="userSpaceOnUse"
       id="clipPath797"><path
         d="m -27.566612,-18.463502 c 35.2967357,6e-6 39.094616,3.625426 38.921626,38.993531 V 93.53651 l -8e-6,73.00647 c 0.172987,35.36812 -3.6248834,38.99353 -38.921572,38.99358 H -173.72332 c -35.29672,0 -38.92162,-3.62501 -38.92157,-38.99358 l -9e-5,-73.006469 V 20.53003 c 0,-35.368534 3.6249,-38.993532 38.92162,-38.993533 z"
         fill="#fbfbfb"
         id="path799"
         style="stroke-width:0.999999" /></clipPath><clipPath
       clipPathUnits="userSpaceOnUse"
       id="clipPath801"><path
         d="m -27.566612,-18.463502 c 35.2967357,6e-6 39.094616,3.625426 38.921626,38.993531 V 93.53651 l -8e-6,73.00647 c 0.172987,35.36812 -3.6248834,38.99353 -38.921572,38.99358 H -173.72332 c -35.29672,0 -38.92162,-3.62501 -38.92157,-38.99358 l -9e-5,-73.006469 V 20.53003 c 0,-35.368534 3.6249,-38.993532 38.92162,-38.993533 z"
         fill="#fbfbfb"
         id="path803"
         style="stroke-width:0.999999" /></clipPath><clipPath
       clipPathUnits="userSpaceOnUse"
       id="clipPath805"><path
         d="m -27.566612,-18.463502 c 35.2967357,6e-6 39.094616,3.625426 38.921626,38.993531 V 93.53651 l -8e-6,73.00647 c 0.172987,35.36812 -3.6248834,38.99353 -38.921572,38.99358 H -173.72332 c -35.29672,0 -38.92162,-3.62501 -38.92157,-38.99358 l -9e-5,-73.006469 V 20.53003 c 0,-35.368534 3.6249,-38.993532 38.92162,-38.993533 z"
         fill="#fbfbfb"
         id="path807"
         style="stroke-width:0.999999" /></clipPath><clipPath
       clipPathUnits="userSpaceOnUse"
       id="clipPath809"><path
         d="m -27.566612,-18.463502 c 35.2967357,6e-6 39.094616,3.625426 38.921626,38.993531 V 93.53651 l -8e-6,73.00647 c 0.172987,35.36812 -3.6248834,38.99353 -38.921572,38.99358 H -173.72332 c -35.29672,0 -38.92162,-3.62501 -38.92157,-38.99358 l -9e-5,-73.006469 V 20.53003 c 0,-35.368534 3.6249,-38.993532 38.92162,-38.993533 z"
         fill="#fbfbfb"
         id="path811"
         style="stroke-width:0.999999" /></clipPath><clipPath
       clipPathUnits="userSpaceOnUse"
       id="clipPath813"><path
         d="m -27.566612,-18.463502 c 35.2967357,6e-6 39.094616,3.625426 38.921626,38.993531 V 93.53651 l -8e-6,73.00647 c 0.172987,35.36812 -3.6248834,38.99353 -38.921572,38.99358 H -173.72332 c -35.29672,0 -38.92162,-3.62501 -38.92157,-38.99358 l -9e-5,-73.006469 V 20.53003 c 0,-35.368534 3.6249,-38.993532 38.92162,-38.993533 z"
         fill="#fbfbfb"
         id="path815"
         style="stroke-width:0.999999" /></clipPath><clipPath
       clipPathUnits="userSpaceOnUse"
       id="clipPath817"><path
         d="m -27.566612,-18.463502 c 35.2967357,6e-6 39.094616,3.625426 38.921626,38.993531 V 93.53651 l -8e-6,73.00647 c 0.172987,35.36812 -3.6248834,38.99353 -38.921572,38.99358 H -173.72332 c -35.29672,0 -38.92162,-3.62501 -38.92157,-38.99358 l -9e-5,-73.006469 V 20.53003 c 0,-35.368534 3.6249,-38.993532 38.92162,-38.993533 z"
         fill="#fbfbfb"
         id="path819"
         style="stroke-width:0.999999" /></clipPath><clipPath
       clipPathUnits="userSpaceOnUse"
       id="clipPath821"><path
         d="m -27.566612,-18.463502 c 35.2967357,6e-6 39.094616,3.625426 38.921626,38.993531 V 93.53651 l -8e-6,73.00647 c 0.172987,35.36812 -3.6248834,38.99353 -38.921572,38.99358 H -173.72332 c -35.29672,0 -38.92162,-3.62501 -38.92157,-38.99358 l -9e-5,-73.006469 V 20.53003 c 0,-35.368534 3.6249,-38.993532 38.92162,-38.993533 z"
         fill="#fbfbfb"
         id="path823"
         style="stroke-width:0.999999" /></clipPath><clipPath
       clipPathUnits="userSpaceOnUse"
       id="clipPath825"><path
         d="m -27.566612,-18.463502 c 35.2967357,6e-6 39.094616,3.625426 38.921626,38.993531 V 93.53651 l -8e-6,73.00647 c 0.172987,35.36812 -3.6248834,38.99353 -38.921572,38.99358 H -173.72332 c -35.29672,0 -38.92162,-3.62501 -38.92157,-38.99358 l -9e-5,-73.006469 V 20.53003 c 0,-35.368534 3.6249,-38.993532 38.92162,-38.993533 z"
         fill="#fbfbfb"
         id="path827"
         style="stroke-width:0.999999" /></clipPath><clipPath
       clipPathUnits="userSpaceOnUse"
       id="clipPath829"><path
         d="m -27.566612,-18.463502 c 35.2967357,6e-6 39.094616,3.625426 38.921626,38.993531 V 93.53651 l -8e-6,73.00647 c 0.172987,35.36812 -3.6248834,38.99353 -38.921572,38.99358 H -173.72332 c -35.29672,0 -38.92162,-3.62501 -38.92157,-38.99358 l -9e-5,-73.006469 V 20.53003 c 0,-35.368534 3.6249,-38.993532 38.92162,-38.993533 z"
         fill="#fbfbfb"
         id="path831"
         style="stroke-width:0.999999" /></clipPath><clipPath
       clipPathUnits="userSpaceOnUse"
       id="clipPath833"><path
         d="m -27.566612,-18.463502 c 35.2967357,6e-6 39.094616,3.625426 38.921626,38.993531 V 93.53651 l -8e-6,73.00647 c 0.172987,35.36812 -3.6248834,38.99353 -38.921572,38.99358 H -173.72332 c -35.29672,0 -38.92162,-3.62501 -38.92157,-38.99358 l -9e-5,-73.006469 V 20.53003 c 0,-35.368534 3.6249,-38.993532 38.92162,-38.993533 z"
         fill="#fbfbfb"
         id="path835"
         style="stroke-width:0.999999" /></clipPath><clipPath
       clipPathUnits="userSpaceOnUse"
       id="clipPath837"><path
         d="m -27.566612,-18.463502 c 35.2967357,6e-6 39.094616,3.625426 38.921626,38.993531 V 93.53651 l -8e-6,73.00647 c 0.172987,35.36812 -3.6248834,38.99353 -38.921572,38.99358 H -173.72332 c -35.29672,0 -38.92162,-3.62501 -38.92157,-38.99358 l -9e-5,-73.006469 V 20.53003 c 0,-35.368534 3.6249,-38.993532 38.92162,-38.993533 z"
         fill="#fbfbfb"
         id="path839"
         style="stroke-width:0.999999" /></clipPath><clipPath
       clipPathUnits="userSpaceOnUse"
       id="clipPath841"><path
         d="m -27.566612,-18.463502 c 35.2967357,6e-6 39.094616,3.625426 38.921626,38.993531 V 93.53651 l -8e-6,73.00647 c 0.172987,35.36812 -3.6248834,38.99353 -38.921572,38.99358 H -173.72332 c -35.29672,0 -38.92162,-3.62501 -38.92157,-38.99358 l -9e-5,-73.006469 V 20.53003 c 0,-35.368534 3.6249,-38.993532 38.92162,-38.993533 z"
         fill="#fbfbfb"
         id="path843"
         style="stroke-width:0.999999" /></clipPath><clipPath
       clipPathUnits="userSpaceOnUse"
       id="clipPath845"><path
         d="m -27.566612,-18.463502 c 35.2967357,6e-6 39.094616,3.625426 38.921626,38.993531 V 93.53651 l -8e-6,73.00647 c 0.172987,35.36812 -3.6248834,38.99353 -38.921572,38.99358 H -173.72332 c -35.29672,0 -38.92162,-3.62501 -38.92157,-38.99358 l -9e-5,-73.006469 V 20.53003 c 0,-35.368534 3.6249,-38.993532 38.92162,-38.993533 z"
         fill="#fbfbfb"
         id="path847"
         style="stroke-width:0.999999" /></clipPath><clipPath
       clipPathUnits="userSpaceOnUse"
       id="clipPath849"><path
         d="m -27.566612,-18.463502 c 35.2967357,6e-6 39.094616,3.625426 38.921626,38.993531 V 93.53651 l -8e-6,73.00647 c 0.172987,35.36812 -3.6248834,38.99353 -38.921572,38.99358 H -173.72332 c -35.29672,0 -38.92162,-3.62501 -38.92157,-38.99358 l -9e-5,-73.006469 V 20.53003 c 0,-35.368534 3.6249,-38.993532 38.92162,-38.993533 z"
         fill="#fbfbfb"
         id="path851"
         style="stroke-width:0.999999" /></clipPath></defs><sodipodi:namedview
     id="namedview37"
     pagecolor="#ffffff"
     bordercolor="#000000"
     borderopacity="0.25"
     inkscape:showpageshadow="2"
     inkscape:pageopacity="0.0"
     inkscape:pagecheckerboard="0"
     inkscape:deskcolor="#d1d1d1"
     showgrid="false"
     inkscape:zoom="0.92382815"
     inkscape:cx="134.2241"
     inkscape:cy="224.06765"
     inkscape:window-width="1366"
     inkscape:window-height="704"
     inkscape:window-x="0"
     inkscape:window-y="0"
     inkscape:window-maximized="1"
     inkscape:current-layer="svg35" /><linearGradient
     id="a"
     gradientUnits="userSpaceOnUse"
     x1="88"
     x2="488"
     y1="88"
     y2="488"><stop
       offset="0"
       stop-opacity=".588235"
       id="stop2" /><stop
       offset="1"
       stop-opacity=".205556"
       id="stop4" /></linearGradient><filter
     id="b"
     color-interpolation-filters="sRGB"
     height="1.0908571"
     width="1.090809"
     x="-0.045404476"
     y="-0.045428569"><feGaussianBlur
       stdDeviation="8.48"
       id="feGaussianBlur7" /></filter><filter
     id="c"
     color-interpolation-filters="sRGB"
     height="1.0227143"
     width="1.0227022"
     x="-0.011351119"
     y="-0.011357142"><feGaussianBlur
       stdDeviation="2.12"
       id="feGaussianBlur10" /></filter><g
     id="g417"
     transform="translate(0.77846145,-3.0212424)"><path
       d="m 29.256075,110.29869 c -18.77684,18.77683 -18.87776,22.71664 -0.0605,41.34989 l 38.65252,38.65252 38.652505,38.65251 c 18.63325,18.81731 22.57306,18.71637 41.3499,-0.0605 l 77.18381,-77.18382 c 18.77685,-18.77683 19.28299,-23.13497 0.0605,-41.34988 L 186.4423,71.706912 147.78979,33.054397 c -18.7255,-18.725497 -22.57306,-18.716373 -41.3499,0.06047 z"
       opacity="0.2"
       id="path17"
       style="stroke-width:0.735604" /><path
       d="m 106.89453,34.740821 c 18.35964,-18.359633 22.22088,-18.449339 40.52766,0.0374 l 37.9744,37.974401 37.97439,37.974398 c 18.48675,18.30679 18.39704,22.16801 0.0375,40.52765 l -76.02364,76.0236 c -18.35963,18.35963 -22.13067,18.35957 -40.52764,-0.0375 l -37.974445,-37.97429 -37.9744,-37.97442 c -18.39698,-18.39697 -18.39703,-22.16801 -0.0374,-40.52764 z"
       fill="#fbfbfb"
       id="path19"
       style="stroke-width:0.735604" /><path
       d="m 147.39054,227.27253 c -18.35964,18.35962 -22.22132,18.44915 -40.52811,-0.0376 l -1.0403,-1.04029 c 18.30678,18.48674 22.16848,18.39721 40.52811,0.0376 l 76.02333,-76.02333 c 18.35963,-18.35963 18.35939,-22.13113 -0.0376,-40.52811 l 1.04031,1.0403 c 18.39697,18.39699 18.39721,22.16847 0.0376,40.52811 z"
       opacity="0.2"
       id="path21"
       style="stroke-width:0.735604" /><path
       d="m 30.873895,110.76148 c -18.35964,18.35963 -18.44916,22.22132 0.0376,40.5281 l 1.0403,1.0403 c -18.48674,-18.30679 -18.39721,-22.16847 -0.0376,-40.52811 L 107.93752,35.778449 c 18.35963,-18.359633 22.13111,-18.359393 40.5281,0.03758 l -1.04031,-1.040301 C 129.02834,16.37875 125.25684,16.378512 106.89721,34.738148 Z"
       fill="#ffffff"
       opacity="0.3"
       id="path33"
       style="stroke-width:0.735604" /><path
       style="fill:#37a6e6;fill-opacity:1;stroke-width:6.94974"
       d="M 0.09905012,-7.2049471 C -4.6961148,-12.000112 -11.249321,-14.988899 -18.358038,-14.988982 l -164.578102,0.0096 c -7.11793,-9.4e-5 -13.66055,2.978105 -18.44749,7.7744381 -4.78193,4.7915152 -7.75547,11.3395218 -7.75524,18.4474919 l -0.009,125.936272 -3.4649,-0.27834 -0.009,38.92017 c 1e-4,8.28761 1.20245,19.73031 6.84812,25.16993 5.36547,5.16966 14.97215,4.54543 22.84808,4.54592 l 83.148076,-0.009 0.153567,-3.47451 81.266852,-0.009 c 3.55871,1e-5 6.961968,-0.74178 10.0875697,-2.08278 3.1258021,-1.34127 5.9736419,-3.28618 8.36975253,-5.68229 4.79088467,-4.79089 7.76490667,-11.34336 7.76483787,-18.45709 l 0.0184,-164.569304 C 7.8830018,4.1434248 4.89422,-2.4097773 0.09905012,-7.2049471 Z"
       id="path351"
       sodipodi:nodetypes="scccccccscccccsccs"
       transform="matrix(0.52015111,-0.52015111,0.52015111,0.52015111,130.83715,30.005825)"
       clip-path="url(#clipPath849)" /><path
       style="fill:#fdc92b;fill-opacity:1;stroke-width:6.94974"
       d="m 5.68512,-12.413639 c -5.40587862,-5.405879 -15.961207,-6.04975 -24.04316,-6.049846 l -82.29385,5e-6 v 55.995133 l 112.009478,5e-6 -3e-6,-26.31791 C 11.346606,3.1468826 11.08232,-7.0164385 5.68512,-12.413639 Z"
       id="path353"
       sodipodi:nodetypes="scccccs"
       transform="matrix(0.52015111,-0.52015111,0.52015111,0.52015111,130.83715,30.005825)"
       clip-path="url(#clipPath845)" /><path
       style="fill:#2daaaa;fill-opacity:1;stroke-width:6.94974"
       d="m 11.349369,37.532171 2e-6,55.999307 H -212.63395 V 37.532174 Z"
       id="path355"
       transform="matrix(0.52015111,-0.52015111,0.52015111,0.52015111,130.83715,30.005825)"
       clip-path="url(#clipPath841)" /><path
       style="fill:#f34f17;fill-opacity:1;stroke-width:6.94974"
       d="M 11.347985,93.536393 H -100.64229 l 0.0192,55.995137 H 11.34799 Z"
       id="path357"
       transform="matrix(0.52015111,-0.52015111,0.52015111,0.52015111,130.83715,30.005825)"
       clip-path="url(#clipPath837)" /><path
       style="fill:#d85eca;fill-opacity:1;stroke-width:6.94974"
       d="m -156.65663,93.536393 h -55.97593 l -10e-6,55.995137 z"
       id="path359"
       transform="matrix(0.52015111,-0.52015111,0.52015111,0.52015111,130.83715,30.005825)"
       clip-path="url(#clipPath833)" /><path
       style="fill:#e01b24;stroke-width:6.94974"
       d="m 11.34799,149.53153 h -55.995142 v 55.99514 l 26.289116,-0.009 c 4.040942,2e-5 7.91734,-0.84116 11.4600936,-2.36113 3.5427047,-1.52001 6.75178812,-3.71879 9.4540984,-6.4211 5.4046205,-5.40462 8.782311,-12.83226 8.782232,-20.9142 z"
       id="path361"
       transform="matrix(0.52015111,-0.52015111,0.52015111,0.52015111,130.83715,30.005825)"
       clip-path="url(#clipPath829)" /><path
       style="fill:#9b33ae;fill-opacity:1;stroke-width:6.94974"
       d="m -156.64702,37.531658 h -55.99515 l 0.009,56.004735 h 55.97593 z"
       id="path363"
       transform="matrix(0.52015111,-0.52015111,0.52015111,0.52015111,130.83715,30.005825)"
       clip-path="url(#clipPath825)" /><path
       style="opacity:0.2;fill:#ffffff;stroke-width:6.94974"
       d="m 11.357588,37.531658 -56.00474,0.0096 5e-6,55.995138 h 55.995132 z"
       id="path365"
       transform="matrix(0.52015111,-0.52015111,0.52015111,0.52015111,130.83715,30.005825)"
       clip-path="url(#clipPath821)" /><path
       style="fill:#da1636;fill-opacity:1;stroke-width:6.94974"
       d="m 11.347985,93.536393 -55.995137,55.995137 v 55.99514 l 26.289116,-0.009 c 4.040942,2e-5 8.9048481,-0.50557 12.6757384,-1.30669 7.675897,-1.63074 8.5094519,-2.75949 11.2117622,-5.4618 5.4046204,-5.40462 5.8090024,-14.846 5.8089234,-22.92794 l 0.0096,-26.28911 z"
       id="path367"
       sodipodi:nodetypes="ccccssccc"
       transform="matrix(0.52015111,-0.52015111,0.52015111,0.52015111,130.83715,30.005825)"
       clip-path="url(#clipPath817)" /><path
       style="fill:#eab305;fill-opacity:1;stroke-width:6.94974"
       d="m -100.65189,-18.46348 v 55.995133 l 55.99514,5e-6 z"
       id="path369"
       transform="matrix(0.52015111,-0.52015111,0.52015111,0.52015111,130.83715,30.005825)"
       clip-path="url(#clipPath813)" /><path
       style="fill:#fec589;fill-opacity:1;stroke-width:6.94974"
       d="m -44.647152,149.53153 h -56.014338 l 0.009,55.98554 h 0.0196 z"
       id="path371"
       transform="matrix(0.52015111,-0.52015111,0.52015111,0.52015111,130.83715,30.005825)"
       clip-path="url(#clipPath809)" /><path
       style="fill:#fa9381;fill-opacity:1;stroke-width:6.94974"
       d="m -44.647152,149.53153 -55.985538,55.98554 55.985538,0.009 z"
       id="path373"
       transform="matrix(0.52015111,-0.52015111,0.52015111,0.52015111,130.83715,30.005825)"
       clip-path="url(#clipPath805)" /><path
       style="fill:#2b898f;fill-opacity:1;stroke-width:6.94974"
       d="m -44.647152,37.541255 -56.004738,-0.0096 0.009,56.00474 z"
       id="path375"
       transform="matrix(0.52015111,-0.52015111,0.52015111,0.52015111,130.83715,30.005825)"
       clip-path="url(#clipPath801)" /><path
       style="fill:#1463a5;fill-opacity:1;stroke-width:6.94974"
       d="m -100.65189,37.531653 -55.99513,5e-6 56.00473,56.004735 z"
       id="path377"
       transform="matrix(0.52015111,-0.52015111,0.52015111,0.52015111,130.83715,30.005825)"
       clip-path="url(#clipPath797)" /><path
       style="fill:#37a6e6;fill-opacity:1;stroke-width:6.94974"
       d="m -156.64702,37.531658 -0.009,56.004735 h 56.01434 z"
       id="path379"
       transform="matrix(0.52015111,-0.52015111,0.52015111,0.52015111,130.83715,30.005825)"
       clip-path="url(#clipPath793)" /><path
       style="fill:#62237c;fill-opacity:1;stroke-width:6.94974"
       d="m -100.65189,-18.46348 -82.28425,0.0096 c -8.08672,-1.08e-4 -18.2563,0.811585 -23.65592,6.221799 -5.39313,5.4039469 -6.02158,15.3972738 -6.02131,23.474626 l -0.009,26.289112 111.97108,-1e-6 z"
       id="path381"
       sodipodi:nodetypes="ccccccc"
       transform="matrix(0.52015111,-0.52015111,0.52015111,0.52015111,130.83715,30.005825)"
       clip-path="url(#clipPath789)" /><path
       style="fill:#aee3f8;fill-opacity:1;stroke-width:6.94974"
       d="m -100.64229,93.536393 h -56.01434 l -55.97571,55.995367 h 112.00948 z"
       id="path383"
       transform="matrix(0.52015111,-0.52015111,0.52015111,0.52015111,130.83715,30.005825)"
       clip-path="url(#clipPath785)" /></g></svg>
