<?xml version="1.0" encoding="UTF-8" standalone="no"?>
<svg
   height="256"
   width="256"
   version="1.1"
   id="svg35"
   sodipodi:docname="de.haeckerfelix.Fragments.svg"
   xml:space="preserve"
   inkscape:version="1.2 (dc2aedaf03, 2022-05-15)"
   xmlns:inkscape="http://www.inkscape.org/namespaces/inkscape"
   xmlns:sodipodi="http://sodipodi.sourceforge.net/DTD/sodipodi-0.dtd"
   xmlns="http://www.w3.org/2000/svg"
   xmlns:svg="http://www.w3.org/2000/svg"><defs
     id="defs39"><clipPath
       clipPathUnits="userSpaceOnUse"
       id="clipPath785"><path
         d="m -27.566612,-18.463502 c 35.2967357,6e-6 39.094616,3.625426 38.921626,38.993531 V 93.53651 l -8e-6,73.00647 c 0.172987,35.36812 -3.6248834,38.99353 -38.921572,38.99358 H -173.72332 c -35.29672,0 -38.92162,-3.62501 -38.92157,-38.99358 l -9e-5,-73.006469 V 20.53003 c 0,-35.368534 3.6249,-38.993532 38.92162,-38.993533 z"
         fill="#fbfbfb"
         id="path787"
         style="stroke-width:0.999999" /></clipPath><clipPath
       clipPathUnits="userSpaceOnUse"
       id="clipPath789"><path
         d="m -27.566612,-18.463502 c 35.2967357,6e-6 39.094616,3.625426 38.921626,38.993531 V 93.53651 l -8e-6,73.00647 c 0.172987,35.36812 -3.6248834,38.99353 -38.921572,38.99358 H -173.72332 c -35.29672,0 -38.92162,-3.62501 -38.92157,-38.99358 l -9e-5,-73.006469 V 20.53003 c 0,-35.368534 3.6249,-38.993532 38.92162,-38.993533 z"
         fill="#fbfbfb"
         id="path791"
         style="stroke-width:0.999999" /></clipPath><clipPath
       clipPathUnits="userSpaceOnUse"
       id="clipPath793"><path
         d="m -27.566612,-18.463502 c 35.2967357,6e-6 39.094616,3.625426 38.921626,38.993531 V 93.53651 l -8e-6,73.00647 c 0.172987,35.36812 -3.6248834,38.99353 -38.921572,38.99358 H -173.72332 c -35.29672,0 -38.92162,-3.62501 -38.92157,-38.99358 l -9e-5,-73.006469 V 20.53003 c 0,-35.368534 3.6249,-38.993532 38.92162,-38.993533 z"
         fill="#fbfbfb"
         id="path795"
         style="stroke-width:0.999999" /></clipPath><clipPath
       clipPathUnits="userSpaceOnUse"
       id="clipPath797"><path
         d="m -27.566612,-18.463502 c 35.2967357,6e-6 39.094616,3.625426 38.921626,38.993531 V 93.53651 l -8e-6,73.00647 c 0.172987,35.36812 -3.6248834,38.99353 -38.921572,38.99358 H -173.72332 c -35.29672,0 -38.92162,-3.62501 -38.92157,-38.99358 l -9e-5,-73.006469 V 20.53003 c 0,-35.368534 3.6249,-38.993532 38.92162,-38.993533 z"
         fill="#fbfbfb"
         id="path799"
         style="stroke-width:0.999999" /></clipPath><clipPath
       clipPathUnits="userSpaceOnUse"
       id="clipPath801"><path
         d="m -27.566612,-18.463502 c 35.2967357,6e-6 39.094616,3.625426 38.921626,38.993531 V 93.53651 l -8e-6,73.00647 c 0.172987,35.36812 -3.6248834,38.99353 -38.921572,38.99358 H -173.72332 c -35.29672,0 -38.92162,-3.62501 -38.92157,-38.99358 l -9e-5,-73.006469 V 20.53003 c 0,-35.368534 3.6249,-38.993532 38.92162,-38.993533 z"
         fill="#fbfbfb"
         id="path803"
         style="stroke-width:0.999999" /></clipPath><clipPath
       clipPathUnits="userSpaceOnUse"
       id="clipPath805"><path
         d="m -27.566612,-18.463502 c 35.2967357,6e-6 39.094616,3.625426 38.921626,38.993531 V 93.53651 l -8e-6,73.00647 c 0.172987,35.36812 -3.6248834,38.99353 -38.921572,38.99358 H -173.72332 c -35.29672,0 -38.92162,-3.62501 -38.92157,-38.99358 l -9e-5,-73.006469 V 20.53003 c 0,-35.368534 3.6249,-38.993532 38.92162,-38.993533 z"
         fill="#fbfbfb"
         id="path807"
         style="stroke-width:0.999999" /></clipPath><clipPath
       clipPathUnits="userSpaceOnUse"
       id="clipPath809"><path
         d="m -27.566612,-18.463502 c 35.2967357,6e-6 39.094616,3.625426 38.921626,38.993531 V 93.53651 l -8e-6,73.00647 c 0.172987,35.36812 -3.6248834,38.99353 -38.921572,38.99358 H -173.72332 c -35.29672,0 -38.92162,-3.62501 -38.92157,-38.99358 l -9e-5,-73.006469 V 20.53003 c 0,-35.368534 3.6249,-38.993532 38.92162,-38.993533 z"
         fill="#fbfbfb"
         id="path811"
         style="stroke-width:0.999999" /></clipPath><clipPath
       clipPathUnits="userSpaceOnUse"
       id="clipPath813"><path
         d="m -27.566612,-18.463502 c 35.2967357,6e-6 39.094616,3.625426 38.921626,38.993531 V 93.53651 l -8e-6,73.00647 c 0.172987,35.36812 -3.6248834,38.99353 -38.921572,38.99358 H -173.72332 c -35.29672,0 -38.92162,-3.62501 -38.92157,-38.99358 l -9e-5,-73.006469 V 20.53003 c 0,-35.368534 3.6249,-38.993532 38.92162,-38.993533 z"
         fill="#fbfbfb"
         id="path815"
         style="stroke-width:0.999999" /></clipPath><clipPath
       clipPathUnits="userSpaceOnUse"
       id="clipPath817"><path
         d="m -27.566612,-18.463502 c 35.2967357,6e-6 39.094616,3.625426 38.921626,38.993531 V 93.53651 l -8e-6,73.00647 c 0.172987,35.36812 -3.6248834,38.99353 -38.921572,38.99358 H -173.72332 c -35.29672,0 -38.92162,-3.62501 -38.92157,-38.99358 l -9e-5,-73.006469 V 20.53003 c 0,-35.368534 3.6249,-38.993532 38.92162,-38.993533 z"
         fill="#fbfbfb"
         id="path819"
         style="stroke-width:0.999999" /></clipPath><clipPath
       clipPathUnits="userSpaceOnUse"
       id="clipPath821"><path
         d="m -27.566612,-18.463502 c 35.2967357,6e-6 39.094616,3.625426 38.921626,38.993531 V 93.53651 l -8e-6,73.00647 c 0.172987,35.36812 -3.6248834,38.99353 -38.921572,38.99358 H -173.72332 c -35.29672,0 -38.92162,-3.62501 -38.92157,-38.99358 l -9e-5,-73.006469 V 20.53003 c 0,-35.368534 3.6249,-38.993532 38.92162,-38.993533 z"
         fill="#fbfbfb"
         id="path823"
         style="stroke-width:0.999999" /></clipPath><clipPath
       clipPathUnits="userSpaceOnUse"
       id="clipPath825"><path
         d="m -27.566612,-18.463502 c 35.2967357,6e-6 39.094616,3.625426 38.921626,38.993531 V 93.53651 l -8e-6,73.00647 c 0.172987,35.36812 -3.6248834,38.99353 -38.921572,38.99358 H -173.72332 c -35.29672,0 -38.92162,-3.62501 -38.92157,-38.99358 l -9e-5,-73.006469 V 20.53003 c 0,-35.368534 3.6249,-38.993532 38.92162,-38.993533 z"
         fill="#fbfbfb"
         id="path827"
         style="stroke-width:0.999999" /></clipPath><clipPath
       clipPathUnits="userSpaceOnUse"
       id="clipPath829"><path
         d="m -27.566612,-18.463502 c 35.2967357,6e-6 39.094616,3.625426 38.921626,38.993531 V 93.53651 l -8e-6,73.00647 c 0.172987,35.36812 -3.6248834,38.99353 -38.921572,38.99358 H -173.72332 c -35.29672,0 -38.92162,-3.62501 -38.92157,-38.99358 l -9e-5,-73.006469 V 20.53003 c 0,-35.368534 3.6249,-38.993532 38.92162,-38.993533 z"
         fill="#fbfbfb"
         id="path831"
         style="stroke-width:0.999999" /></clipPath><clipPath
       clipPathUnits="userSpaceOnUse"
       id="clipPath833"><path
         d="m -27.566612,-18.463502 c 35.2967357,6e-6 39.094616,3.625426 38.921626,38.993531 V 93.53651 l -8e-6,73.00647 c 0.172987,35.36812 -3.6248834,38.99353 -38.921572,38.99358 H -173.72332 c -35.29672,0 -38.92162,-3.62501 -38.92157,-38.99358 l -9e-5,-73.006469 V 20.53003 c 0,-35.368534 3.6249,-38.993532 38.92162,-38.993533 z"
         fill="#fbfbfb"
         id="path835"
         style="stroke-width:0.999999" /></clipPath><clipPath
       clipPathUnits="userSpaceOnUse"
       id="clipPath837"><path
         d="m -27.566612,-18.463502 c 35.2967357,6e-6 39.094616,3.625426 38.921626,38.993531 V 93.53651 l -8e-6,73.00647 c 0.172987,35.36812 -3.6248834,38.99353 -38.921572,38.99358 H -173.72332 c -35.29672,0 -38.92162,-3.62501 -38.92157,-38.99358 l -9e-5,-73.006469 V 20.53003 c 0,-35.368534 3.6249,-38.993532 38.92162,-38.993533 z"
         fill="#fbfbfb"
         id="path839"
         style="stroke-width:0.999999" /></clipPath><clipPath
       clipPathUnits="userSpaceOnUse"
       id="clipPath841"><path
         d="m -27.566612,-18.463502 c 35.2967357,6e-6 39.094616,3.625426 38.921626,38.993531 V 93.53651 l -8e-6,73.00647 c 0.172987,35.36812 -3.6248834,38.99353 -38.921572,38.99358 H -173.72332 c -35.29672,0 -38.92162,-3.62501 -38.92157,-38.99358 l -9e-5,-73.006469 V 20.53003 c 0,-35.368534 3.6249,-38.993532 38.92162,-38.993533 z"
         fill="#fbfbfb"
         id="path843"
         style="stroke-width:0.999999" /></clipPath><clipPath
       clipPathUnits="userSpaceOnUse"
       id="clipPath845"><path
         d="m -27.566612,-18.463502 c 35.2967357,6e-6 39.094616,3.625426 38.921626,38.993531 V 93.53651 l -8e-6,73.00647 c 0.172987,35.36812 -3.6248834,38.99353 -38.921572,38.99358 H -173.72332 c -35.29672,0 -38.92162,-3.62501 -38.92157,-38.99358 l -9e-5,-73.006469 V 20.53003 c 0,-35.368534 3.6249,-38.993532 38.92162,-38.993533 z"
         fill="#fbfbfb"
         id="path847"
         style="stroke-width:0.999999" /></clipPath><clipPath
       clipPathUnits="userSpaceOnUse"
       id="clipPath849"><path
         d="m -27.566612,-18.463502 c 35.2967357,6e-6 39.094616,3.625426 38.921626,38.993531 V 93.53651 l -8e-6,73.00647 c 0.172987,35.36812 -3.6248834,38.99353 -38.921572,38.99358 H -173.72332 c -35.29672,0 -38.92162,-3.62501 -38.92157,-38.99358 l -9e-5,-73.006469 V 20.53003 c 0,-35.368534 3.6249,-38.993532 38.92162,-38.993533 z"
         fill="#fbfbfb"
         id="path851"
         style="stroke-width:0.999999" /></clipPath></defs><sodipodi:namedview
     id="namedview37"
     pagecolor="#ffffff"
     bordercolor="#000000"
     borderopacity="0.25"
     inkscape:showpageshadow="2"
     inkscape:pageopacity="0.0"
     inkscape:pagecheckerboard="0"
     inkscape:deskcolor="#d1d1d1"
     showgrid="false"
     inkscape:zoom="0.92382815"
     inkscape:cx="262.49471"
     inkscape:cy="79.019025"
     inkscape:window-width="1366"
     inkscape:window-height="704"
     inkscape:window-x="0"
     inkscape:window-y="0"
     inkscape:window-maximized="1"
     inkscape:current-layer="svg35" /><linearGradient
     id="a"
     gradientUnits="userSpaceOnUse"
     x1="88"
     x2="488"
     y1="88"
     y2="488"><stop
       offset="0"
       stop-opacity=".588235"
       id="stop2" /><stop
       offset="1"
       stop-opacity=".205556"
       id="stop4" /></linearGradient><filter
     id="b"
     color-interpolation-filters="sRGB"
     height="1.0908571"
     width="1.090809"
     x="-0.045404476"
     y="-0.045428569"><feGaussianBlur
       stdDeviation="8.48"
       id="feGaussianBlur7" /></filter><filter
     id="c"
     color-interpolation-filters="sRGB"
     height="1.0227143"
     width="1.0227022"
     x="-0.011351119"
     y="-0.011357142"><feGaussianBlur
       stdDeviation="2.12"
       id="feGaussianBlur10" /></filter><path
     d="M 141.84323,74 C 71.24979,74 63.65402,81.250835 64,151.98706 V 298 444.01294 C 63.65402,514.74917 71.24979,522 141.84323,522 H 434.15677 C 504.75021,522 513.9371,514.72348 512,444.01294 V 298 151.98706 C 512,81.249993 504.75021,74 434.15677,74 Z"
     filter="url(#c)"
     opacity="0.1"
     transform="matrix(0.22912185,-0.22912185,0.22912185,0.22912185,-6.2903067,125.73341)"
     id="path13" /><path
     d="M 141.84323,74 C 71.24979,74 63.65402,81.250835 64,151.98706 V 298 444.01294 C 63.65402,514.74917 71.24979,522 141.84323,522 H 434.15677 C 504.75021,522 513.9371,514.72348 512,444.01294 V 298 151.98706 C 512,81.249993 504.75021,74 434.15677,74 Z"
     fill="url(#a)"
     filter="url(#b)"
     opacity="0.3"
     transform="matrix(0.22912185,-0.22912185,0.22912185,0.22912185,-6.2901681,125.73354)"
     id="path15"
     style="fill:url(#a)" /><path
     d="m 41.280706,109.32297 c -16.542053,16.54205 -16.630967,20.01295 -0.05327,36.4285 l 34.052167,34.05217 34.052167,34.05216 c 16.41555,16.57771 19.88645,16.48879 36.42851,-0.0533 l 67.99754,-67.99755 c 16.54206,-16.54205 16.98796,-20.38149 0.0533,-36.4285 L 179.75893,75.324312 145.70677,41.272146 c -16.49683,-16.496823 -19.88646,-16.488785 -36.42851,0.05327 z"
     opacity="0.2"
     id="path17"
     style="stroke-width:0.648054" /><path
     d="m 109.67879,42.757855 c 16.17451,-16.174504 19.57619,-16.253533 35.70413,0.03295 l 33.45476,33.454759 33.45475,33.454756 c 16.28649,16.12795 16.20746,19.52962 0.033,35.70413 l -66.97545,66.97541 c -16.1745,16.1745 -19.49672,16.17445 -35.70412,-0.033 L 76.19109,178.89216 42.736332,145.43739 c -16.207406,-16.2074 -16.207451,-19.52962 -0.03295,-35.70412 z"
     fill="#fbfbfb"
     id="path19"
     style="stroke-width:0.648054" /><path
     d="m 145.35504,212.3748 c -16.17451,16.1745 -19.57658,16.25337 -35.70453,-0.0331 l -0.91649,-0.91648 c 16.12794,16.28648 19.53003,16.20761 35.70453,0.0331 l 66.97518,-66.97518 c 16.1745,-16.1745 16.17429,-19.49712 -0.0331,-35.70453 l 0.91649,0.91649 c 16.2074,16.20741 16.20761,19.53002 0.0331,35.70453 z"
     opacity="0.2"
     id="path21"
     style="stroke-width:0.648054" /><path
     d="m 42.705972,109.73068 c -16.174503,16.1745 -16.253373,19.57658 0.03311,35.70452 l 0.916488,0.91649 C 27.369087,130.22374 27.447956,126.82167 43.622459,110.64716 L 110.59764,43.671987 c 16.1745,-16.174504 19.49711,-16.174293 35.70452,0.03311 L 145.38567,42.78861 C 129.17827,26.581206 125.85565,26.580996 109.68115,42.7555 Z"
     fill="#ffffff"
     opacity="0.3"
     id="path33"
     style="stroke-width:0.648054" /><path
     style="fill:#37a6e6;stroke-width:6.94974;fill-opacity:1"
     d="M 0.09905012,-7.2049471 C -4.6961148,-12.000112 -11.249321,-14.988899 -18.358038,-14.988982 l -164.578102,0.0096 c -7.11793,-9.4e-5 -13.66055,2.978105 -18.44749,7.7744381 -4.78193,4.7915152 -7.75547,11.3395218 -7.75524,18.4474919 l -0.009,125.936272 -3.4649,-0.27834 -0.009,38.92017 c 1e-4,8.28761 1.20245,19.73031 6.84812,25.16993 5.36547,5.16966 14.97215,4.54543 22.84808,4.54592 l 83.148076,-0.009 0.153567,-3.47451 81.266852,-0.009 c 3.55871,1e-5 6.961968,-0.74178 10.0875697,-2.08278 3.1258021,-1.34127 5.9736419,-3.28618 8.36975253,-5.68229 4.79088467,-4.79089 7.76490667,-11.34336 7.76483787,-18.45709 l 0.0184,-164.569304 C 7.8830018,4.1434248 4.89422,-2.4097773 0.09905012,-7.2049471 Z"
     id="path351"
     sodipodi:nodetypes="scccccccscccccsccs"
     transform="matrix(0.4582437,-0.4582437,0.4582437,0.4582437,130.7718,38.58641)"
     clip-path="url(#clipPath849)" /><path
     style="fill:#fdc92b;stroke-width:6.94974;fill-opacity:1"
     d="m 5.68512,-12.413639 c -5.40587862,-5.405879 -15.961207,-6.04975 -24.04316,-6.049846 l -82.29385,5e-6 v 55.995133 l 112.009478,5e-6 -3e-6,-26.31791 C 11.346606,3.1468826 11.08232,-7.0164385 5.68512,-12.413639 Z"
     id="path353"
     sodipodi:nodetypes="scccccs"
     transform="matrix(0.4582437,-0.4582437,0.4582437,0.4582437,130.7718,38.58641)"
     clip-path="url(#clipPath845)" /><path
     style="fill:#2daaaa;stroke-width:6.94974;fill-opacity:1"
     d="m 11.349369,37.532171 2e-6,55.999307 H -212.63395 V 37.532174 Z"
     id="path355"
     transform="matrix(0.4582437,-0.4582437,0.4582437,0.4582437,130.7718,38.58641)"
     clip-path="url(#clipPath841)" /><path
     style="fill:#f34f17;stroke-width:6.94974;fill-opacity:1"
     d="M 11.347985,93.536393 H -100.64229 l 0.0192,55.995137 H 11.34799 Z"
     id="path357"
     transform="matrix(0.4582437,-0.4582437,0.4582437,0.4582437,130.7718,38.58641)"
     clip-path="url(#clipPath837)" /><path
     style="fill:#d85eca;stroke-width:6.94974;fill-opacity:1"
     d="m -156.65663,93.536393 h -55.97593 l -10e-6,55.995137 z"
     id="path359"
     transform="matrix(0.4582437,-0.4582437,0.4582437,0.4582437,130.7718,38.58641)"
     clip-path="url(#clipPath833)" /><path
     style="fill:#e01b24;stroke-width:6.94974"
     d="m 11.34799,149.53153 h -55.995142 v 55.99514 l 26.289116,-0.009 c 4.040942,2e-5 7.91734,-0.84116 11.4600936,-2.36113 3.5427047,-1.52001 6.75178812,-3.71879 9.4540984,-6.4211 5.4046205,-5.40462 8.782311,-12.83226 8.782232,-20.9142 z"
     id="path361"
     transform="matrix(0.4582437,-0.4582437,0.4582437,0.4582437,130.7718,38.58641)"
     clip-path="url(#clipPath829)" /><path
     style="fill:#9b33ae;stroke-width:6.94974;fill-opacity:1"
     d="m -156.64702,37.531658 h -55.99515 l 0.009,56.004735 h 55.97593 z"
     id="path363"
     transform="matrix(0.4582437,-0.4582437,0.4582437,0.4582437,130.7718,38.58641)"
     clip-path="url(#clipPath825)" /><path
     style="opacity:0.2;fill:#ffffff;stroke-width:6.94974"
     d="m 11.357588,37.531658 -56.00474,0.0096 5e-6,55.995138 h 55.995132 z"
     id="path365"
     transform="matrix(0.4582437,-0.4582437,0.4582437,0.4582437,130.7718,38.58641)"
     clip-path="url(#clipPath821)" /><path
     style="fill:#da1636;stroke-width:6.94974;fill-opacity:1"
     d="m 11.347985,93.536393 -55.995137,55.995137 v 55.99514 l 26.289116,-0.009 c 4.040942,2e-5 8.9048481,-0.50557 12.6757384,-1.30669 7.675897,-1.63074 8.5094519,-2.75949 11.2117622,-5.4618 5.4046204,-5.40462 5.8090024,-14.846 5.8089234,-22.92794 l 0.0096,-26.28911 z"
     id="path367"
     sodipodi:nodetypes="ccccssccc"
     transform="matrix(0.4582437,-0.4582437,0.4582437,0.4582437,130.7718,38.58641)"
     clip-path="url(#clipPath817)" /><path
     style="fill:#eab305;stroke-width:6.94974;fill-opacity:1"
     d="m -100.65189,-18.46348 v 55.995133 l 55.99514,5e-6 z"
     id="path369"
     transform="matrix(0.4582437,-0.4582437,0.4582437,0.4582437,130.7718,38.58641)"
     clip-path="url(#clipPath813)" /><path
     style="fill:#fec589;stroke-width:6.94974;fill-opacity:1"
     d="m -44.647152,149.53153 h -56.014338 l 0.009,55.98554 h 0.0196 z"
     id="path371"
     transform="matrix(0.4582437,-0.4582437,0.4582437,0.4582437,130.7718,38.58641)"
     clip-path="url(#clipPath809)" /><path
     style="fill:#fa9381;stroke-width:6.94974;fill-opacity:1"
     d="m -44.647152,149.53153 -55.985538,55.98554 55.985538,0.009 z"
     id="path373"
     transform="matrix(0.4582437,-0.4582437,0.4582437,0.4582437,130.7718,38.58641)"
     clip-path="url(#clipPath805)" /><path
     style="fill:#2b898f;stroke-width:6.94974;fill-opacity:1"
     d="m -44.647152,37.541255 -56.004738,-0.0096 0.009,56.00474 z"
     id="path375"
     transform="matrix(0.4582437,-0.4582437,0.4582437,0.4582437,130.7718,38.58641)"
     clip-path="url(#clipPath801)" /><path
     style="fill:#1463a5;stroke-width:6.94974;fill-opacity:1"
     d="m -100.65189,37.531653 -55.99513,5e-6 56.00473,56.004735 z"
     id="path377"
     transform="matrix(0.4582437,-0.4582437,0.4582437,0.4582437,130.7718,38.58641)"
     clip-path="url(#clipPath797)" /><path
     style="fill:#37a6e6;stroke-width:6.94974;fill-opacity:1"
     d="m -156.64702,37.531658 -0.009,56.004735 h 56.01434 z"
     id="path379"
     transform="matrix(0.4582437,-0.4582437,0.4582437,0.4582437,130.7718,38.58641)"
     clip-path="url(#clipPath793)" /><path
     style="fill:#62237c;stroke-width:6.94974;fill-opacity:1"
     d="m -100.65189,-18.46348 -82.28425,0.0096 c -8.08672,-1.08e-4 -18.2563,0.811585 -23.65592,6.221799 -5.39313,5.4039469 -6.02158,15.3972738 -6.02131,23.474626 l -0.009,26.289112 111.97108,-1e-6 z"
     id="path381"
     sodipodi:nodetypes="ccccccc"
     transform="matrix(0.4582437,-0.4582437,0.4582437,0.4582437,130.7718,38.58641)"
     clip-path="url(#clipPath789)" /><path
     style="fill:#aee3f8;stroke-width:6.94974;fill-opacity:1"
     d="m -100.64229,93.536393 h -56.01434 l -55.97571,55.995367 h 112.00948 z"
     id="path383"
     transform="matrix(0.4582437,-0.4582437,0.4582437,0.4582437,130.7718,38.58641)"
     clip-path="url(#clipPath785)" /></svg>
