<?xml version="1.0" encoding="UTF-8" standalone="no"?>
<svg
   fill="none"
   height="256"
   viewBox="0 0 256 256"
   width="256"
   version="1.1"
   id="svg74"
   sodipodi:docname="de.wolfvollprecht.UberWriter.svg"
   inkscape:version="1.2 (dc2aedaf03, 2022-05-15)"
   xmlns:inkscape="http://www.inkscape.org/namespaces/inkscape"
   xmlns:sodipodi="http://sodipodi.sourceforge.net/DTD/sodipodi-0.dtd"
   xmlns="http://www.w3.org/2000/svg"
   xmlns:svg="http://www.w3.org/2000/svg">
  <defs
     id="defs78" />
  <sodipodi:namedview
     id="namedview76"
     pagecolor="#ffffff"
     bordercolor="#000000"
     borderopacity="0.25"
     inkscape:showpageshadow="2"
     inkscape:pageopacity="0.0"
     inkscape:pagecheckerboard="0"
     inkscape:deskcolor="#d1d1d1"
     showgrid="false"
     inkscape:zoom="2"
     inkscape:cx="95.75"
     inkscape:cy="102.5"
     inkscape:window-width="1366"
     inkscape:window-height="704"
     inkscape:window-x="0"
     inkscape:window-y="0"
     inkscape:window-maximized="1"
     inkscape:current-layer="svg74" />
  <linearGradient
     id="paint0_linear"
     gradientUnits="userSpaceOnUse"
     x1="132.8"
     x2="132.8"
     y1="63.1989"
     y2="215.199">
    <stop
       offset="0"
       stop-color="#fff"
       id="stop2" />
    <stop
       offset=".125"
       stop-color="#fff"
       stop-opacity=".098039"
       id="stop4" />
    <stop
       offset=".925"
       stop-color="#fff"
       stop-opacity=".098039"
       id="stop6" />
    <stop
       offset="1"
       stop-color="#fff"
       stop-opacity=".498039"
       id="stop8" />
  </linearGradient>
  <linearGradient
     id="paint1_linear"
     gradientUnits="userSpaceOnUse"
     x1="128.8"
     x2="128.8"
     y1="67.1989"
     y2="211.199">
    <stop
       offset="0"
       stop-color="#cdcdcd"
       id="stop11" />
    <stop
       offset="1"
       stop-color="#d9d9d9"
       id="stop13" />
  </linearGradient>
  <linearGradient
     id="paint2_linear"
     gradientUnits="userSpaceOnUse"
     x1="128.8"
     x2="128.8"
     y1="59.1989"
     y2="211.199">
    <stop
       offset="0"
       stop-color="#fff"
       id="stop16" />
    <stop
       offset=".125"
       stop-color="#fff"
       stop-opacity=".098039"
       id="stop18" />
    <stop
       offset=".925"
       stop-opacity=".098039"
       id="stop20" />
    <stop
       offset="1"
       stop-opacity=".498039"
       id="stop22" />
  </linearGradient>
  <linearGradient
     id="paint3_linear"
     gradientUnits="userSpaceOnUse"
     x1="128.8"
     x2="128.8"
     y1="83.1989"
     y2="195.199">
    <stop
       offset="0"
       stop-color="#f2f2f2"
       id="stop25" />
    <stop
       offset="1"
       stop-color="#f7f7f7"
       id="stop27" />
  </linearGradient>
  <g
     fill="#000"
     id="g36">
    <path
       d="m248.799 196.2c0 25-9.783 24.708-35 25h-169.999c-25.2173-.292-35 0-35-25v-110.001c0-25.0001 9.7827-24.7085 35-25.0001h169.999c25.217.2916 35 0 35 25.0001z"
       opacity=".2"
       id="path30" />
    <path
       d="m248.799 194.2c0 25-9.783 24.708-35 25h-169.999c-25.2173-.292-35 0-35-25v-110.001c0-25.0001 9.7827-24.7085 35-25.0001h169.999c25.217.2916 35 0 35 25.0001z"
       opacity=".1"
       id="path32" />
    <path
       d="m248.799 194.2c0 25-9.783 24.708-35 25h-169.999c-25.2174-.292-35 0-35-25v-110.001c0-25.0001 9.7826-24.7085 35-25.0001h169.999c25.217.2916 35 0 35 25.0001z"
       opacity=".5"
       stroke="url(#paint0_linear)"
       stroke-width="4"
       id="path34" />
  </g>
  <path
     d="m248.799 194.2c0 25-9.783 24.708-35 25h-169.999c-25.2173-.292-35 0-35-25v-110.001c0-25.0001 9.7827-24.7085 35-25.0001h169.999c25.217.2916 35 0 35 25.0001z"
     fill="url(#paint1_linear)"
     id="path38" />
  <path
     d="m248.799 194.2c0 25-9.783 24.708-35 25h-169.999c-25.2174-.292-35 0-35-25v-110.001c0-25.0001 9.7826-24.7085 35-25.0001h169.999c25.217.2916 35 0 35 25.0001z"
     opacity=".3"
     stroke="url(#paint2_linear)"
     stroke-width="4"
     id="path40" />
  <path
     d="m41.929 83.1989c-2.8759.0331-4.9805-.0705-6.7012.8789-.8604.4747-1.5377 1.2787-1.9141 2.2813-.3763 1.0025-.5136 2.1942-.5136 3.6972v18.2847c0 1.504.1374 2.695.5136 3.698.3764 1.002 1.0537 1.8 1.9141 2.275 1.7207.95 3.8253.852 6.7012.885h.0098 13.7226.0098c2.8759-.033 4.9805.065 6.7012-.885.8603-.475 1.5377-1.273 1.914-2.275.3748-1.003.5136-2.194.5136-3.698v-18.2847c0-1.503-.1374-2.6947-.5136-3.6972-.3764-1.0026-1.0537-1.8066-1.9141-2.2813-1.7207-.9494-3.8253-.8457-6.7012-.8789h-.0098-13.7226zm40 0c-2.8759.0331-4.9805-.0705-6.7012.8789-.8604.4747-1.5377 1.2787-1.9141 2.2813-.3763 1.0025-.5137 2.1942-.5137 3.6972v18.2847c0 1.504.1375 2.695.5137 3.698.3764 1.002 1.0537 1.8 1.9141 2.275 1.7207.95 3.8253.852 6.7012.885h.01 13.7226.01c2.8759-.033 4.9804.065 6.7014-.885.86-.475 1.538-1.273 1.914-2.275.375-1.003.514-2.194.514-3.698v-18.2847c0-1.503-.138-2.6947-.514-3.6972-.376-1.0026-1.054-1.8066-1.914-2.2813-1.721-.9494-3.8255-.8457-6.7014-.8789h-.01-13.7226zm40 0c-2.876.0331-4.981-.0705-6.701.8789-.861.4747-1.538 1.2787-1.914 2.2813-.377 1.0025-.514 2.1942-.514 3.6972v18.2847c0 1.504.137 2.695.514 3.698.376 1.002 1.053 1.8 1.914 2.275 1.72.95 3.825.852 6.701.885h.01 13.723.01c2.875-.033 4.98.065 6.701-.885.86-.475 1.538-1.273 1.914-2.275.375-1.003.514-2.194.514-3.698v-18.2847c0-1.503-.138-2.6947-.514-3.6972-.376-1.0026-1.054-1.8066-1.914-2.2813-1.721-.9494-3.826-.8457-6.701-.8789h-.01-13.723zm40 0c-2.876.0331-4.981-.0705-6.701.8789-.861.4747-1.538 1.2787-1.914 2.2813-.377 1.0025-.514 2.1942-.514 3.6972v18.2847c0 1.504.137 2.695.514 3.698.376 1.002 1.053 1.8 1.914 2.275 1.72.95 3.825.852 6.701.885h.01 13.723.01c2.875-.033 4.98.065 6.701-.885.86-.475 1.538-1.273 1.914-2.275.375-1.003.514-2.194.514-3.698v-18.2847c0-1.503-.138-2.6947-.514-3.6972-.376-1.0026-1.054-1.8066-1.914-2.2813-1.721-.9494-3.826-.8457-6.701-.8789h-.01-13.723zm40 0c-2.876.0331-4.981-.0705-6.701.8789-.861.4747-1.538 1.2787-1.914 2.2813-.377 1.0025-.514 2.1942-.514 3.6972v18.2847c0 1.504.137 2.695.514 3.698.376 1.002 1.053 1.8 1.914 2.275 1.72.95 3.825.852 6.701.885h.01 13.723.01c2.875-.033 4.98.065 6.701-.885.86-.475 1.538-1.273 1.914-2.275.375-1.003.514-2.194.514-3.698v-18.2847c0-1.503-.138-2.6947-.514-3.6972-.376-1.0026-1.054-1.8066-1.914-2.2813-1.721-.9494-3.826-.8457-6.701-.8789h-.01-13.723zm-144 40.0001c-2.8759.033-4.9805-.071-6.7012.879-.8604.475-1.5377 1.279-1.9141 2.281-.3763 1.003-.5136 2.194-.5136 3.697v18.285c0 1.504.1374 2.695.5136 3.698.3764 1.002 1.0537 1.8 1.9141 2.275 1.7207.95 3.8253.852 6.7012.885h.0098 13.7226.0098c2.8759-.033 4.9805.065 6.7012-.885.8604-.475 1.5377-1.273 1.914-2.275.375-1.003.5137-2.194.5137-3.698v-18.285c0-1.503-.1374-2.694-.5137-3.697-.3763-1.002-1.0536-1.806-1.914-2.281-1.7208-.95-3.8254-.846-6.7013-.879h-.0098-13.7226zm40 0c-2.8759.033-4.9805-.071-6.7012.879-.8604.475-1.5377 1.279-1.9141 2.281-.3763 1.003-.5137 2.194-.5137 3.697v18.285c0 1.504.1375 2.695.5137 3.698.3764 1.002 1.0537 1.8 1.9141 2.275 1.7207.95 3.8253.852 6.7012.885h.01 13.723.01c2.875-.033 4.98.065 6.701-.885.86-.475 1.538-1.273 1.914-2.275.375-1.003.514-2.194.514-3.698v-18.285c0-1.503-.138-2.694-.514-3.697-.376-1.002-1.054-1.806-1.914-2.281-1.721-.95-3.826-.846-6.701-.879h-.01-13.723zm40 0c-2.876.033-4.981-.071-6.701.879-.861.475-1.538 1.279-1.914 2.281-.377 1.003-.514 2.194-.514 3.697v18.285c0 1.504.137 2.695.514 3.698.376 1.002 1.053 1.8 1.914 2.275 1.72.95 3.825.852 6.701.885h.01 13.723.01c2.875-.033 4.98.065 6.701-.885.86-.475 1.538-1.273 1.914-2.275.375-1.003.514-2.194.514-3.698v-18.285c0-1.503-.138-2.694-.514-3.697-.376-1.002-1.054-1.806-1.914-2.281-1.721-.95-3.826-.846-6.701-.879h-.01-13.723zm40 0c-2.876.033-4.981-.071-6.701.879-.861.475-1.538 1.279-1.914 2.281-.377 1.003-.514 2.194-.514 3.697v18.285c0 1.504.137 2.695.514 3.698.376 1.002 1.053 1.8 1.914 2.275 1.72.95 3.825.852 6.701.885h.01 13.723.01c2.875-.033 4.98.065 6.701-.885.86-.475 1.538-1.273 1.914-2.275.375-1.003.514-2.194.514-3.698v-18.285c0-1.503-.138-2.694-.514-3.697-.376-1.002-1.054-1.806-1.914-2.281-1.721-.95-3.826-.846-6.701-.879h-.01-13.723zm-136 40c-2.8759.033-4.9805-.071-6.7012.879-.8604.475-1.5377 1.279-1.9141 2.281-.3763 1.003-.5136 2.194-.5136 3.697v18.285c0 1.504.1374 2.695.5136 3.698.3764 1.002 1.0537 1.8 1.9141 2.275 1.7207.95 3.8253.852 6.7012.885h.0098 13.7226.0098c2.8759-.033 4.9805.065 6.7012-.885.8604-.475 1.5377-1.273 1.914-2.275.375-1.003.5136-2.194.5136-3.698v-18.285c0-1.503-.1374-2.694-.5136-3.697-.3764-1.002-1.0537-1.806-1.9141-2.281-1.7207-.95-3.8253-.846-6.7012-.879h-.0098-13.7226zm40 0c-2.8759.033-4.9805-.071-6.7012.879-.8604.475-1.5377 1.279-1.9141 2.281-.3763 1.003-.5137 2.194-.5137 3.697v18.285c0 1.504.1375 2.695.5137 3.698.3764 1.002 1.0537 1.8 1.9141 2.275 1.7207.95 3.8253.852 6.7012.885h.01 93.723.01c2.875-.033 4.98.065 6.701-.885.86-.475 1.538-1.273 1.914-2.275.375-1.003.514-2.194.514-3.698v-18.285c0-1.503-.138-2.694-.514-3.697-.376-1.002-1.054-1.806-1.914-2.281-1.721-.95-3.826-.846-6.701-.879h-.01-93.723zm120 0c-2.876.033-4.981-.071-6.701.879-.861.475-1.538 1.279-1.914 2.281-.377 1.003-.514 2.194-.514 3.697v18.285c0 1.504.137 2.695.514 3.698.376 1.002 1.053 1.8 1.914 2.275 1.72.95 3.825.852 6.701.885h.01 13.723.01c2.875-.033 4.98.065 6.701-.885.86-.475 1.538-1.273 1.914-2.275.375-1.003.514-2.194.514-3.698v-18.285c0-1.503-.138-2.694-.514-3.697-.376-1.002-1.054-1.806-1.914-2.281-1.721-.95-3.826-.846-6.701-.879h-.01-13.723z"
     fill="#000"
     opacity=".1"
     id="path42" />
  <path
     d="m41.929 85.1989c-2.8759.0331-4.9805-.0705-6.7012.8789-.8604.4747-1.5377 1.2787-1.9141 2.2813-.3763 1.0025-.5136 2.1942-.5136 3.6972v18.2847c0 1.504.1374 2.695.5136 3.698.3764 1.002 1.0537 1.8 1.9141 2.275 1.7207.95 3.8253.852 6.7012.885h.0098 13.7226.0098c2.8759-.033 4.9805.065 6.7012-.885.8603-.475 1.5377-1.273 1.914-2.275.3748-1.003.5136-2.194.5136-3.698v-18.2847c0-1.503-.1374-2.6947-.5136-3.6972-.3764-1.0026-1.0537-1.8066-1.9141-2.2813-1.7207-.9494-3.8253-.8457-6.7012-.8789h-.0098-13.7226zm40 0c-2.8759.0331-4.9805-.0705-6.7012.8789-.8604.4747-1.5377 1.2787-1.9141 2.2813-.3763 1.0025-.5137 2.1942-.5137 3.6972v18.2847c0 1.504.1375 2.695.5137 3.698.3764 1.002 1.0537 1.8 1.9141 2.275 1.7207.95 3.8253.852 6.7012.885h.01 13.7226.01c2.8759-.033 4.9804.065 6.7014-.885.86-.475 1.538-1.273 1.914-2.275.375-1.003.514-2.194.514-3.698v-18.2847c0-1.503-.138-2.6947-.514-3.6972-.376-1.0026-1.054-1.8066-1.914-2.2813-1.721-.9494-3.8255-.8457-6.7014-.8789h-.01-13.7226zm40 0c-2.876.0331-4.981-.0705-6.701.8789-.861.4747-1.538 1.2787-1.914 2.2813-.377 1.0025-.514 2.1942-.514 3.6972v18.2847c0 1.504.137 2.695.514 3.698.376 1.002 1.053 1.8 1.914 2.275 1.72.95 3.825.852 6.701.885h.01 13.723.01c2.875-.033 4.98.065 6.701-.885.86-.475 1.538-1.273 1.914-2.275.375-1.003.514-2.194.514-3.698v-18.2847c0-1.503-.138-2.6947-.514-3.6972-.376-1.0026-1.054-1.8066-1.914-2.2813-1.721-.9494-3.826-.8457-6.701-.8789h-.01-13.723zm40 0c-2.876.0331-4.981-.0705-6.701.8789-.861.4747-1.538 1.2787-1.914 2.2813-.377 1.0025-.514 2.1942-.514 3.6972v18.2847c0 1.504.137 2.695.514 3.698.376 1.002 1.053 1.8 1.914 2.275 1.72.95 3.825.852 6.701.885h.01 13.723.01c2.875-.033 4.98.065 6.701-.885.86-.475 1.538-1.273 1.914-2.275.375-1.003.514-2.194.514-3.698v-18.2847c0-1.503-.138-2.6947-.514-3.6972-.376-1.0026-1.054-1.8066-1.914-2.2813-1.721-.9494-3.826-.8457-6.701-.8789h-.01-13.723zm40 0c-2.876.0331-4.981-.0705-6.701.8789-.861.4747-1.538 1.2787-1.914 2.2813-.377 1.0025-.514 2.1942-.514 3.6972v18.2847c0 1.504.137 2.695.514 3.698.376 1.002 1.053 1.8 1.914 2.275 1.72.95 3.825.852 6.701.885h.01 13.723.01c2.875-.033 4.98.065 6.701-.885.86-.475 1.538-1.273 1.914-2.275.375-1.003.514-2.194.514-3.698v-18.2847c0-1.503-.138-2.6947-.514-3.6972-.376-1.0026-1.054-1.8066-1.914-2.2813-1.721-.9494-3.826-.8457-6.701-.8789h-.01-13.723zm-144 40.0001c-2.8759.033-4.9805-.071-6.7012.879-.8604.475-1.5377 1.279-1.9141 2.281-.3763 1.003-.5136 2.194-.5136 3.697v18.285c0 1.504.1374 2.695.5136 3.698.3764 1.002 1.0537 1.8 1.9141 2.275 1.7207.95 3.8253.852 6.7012.885h.0098 13.7226.0098c2.8759-.033 4.9805.065 6.7012-.885.8604-.475 1.5377-1.273 1.9141-2.275.3749-1.003.5136-2.194.5136-3.698v-18.285c0-1.503-.1374-2.694-.5136-3.697-.3764-1.002-1.0537-1.806-1.9141-2.281-1.7208-.95-3.8254-.846-6.7013-.879h-.0098-13.7226zm40 0c-2.8759.033-4.9805-.071-6.7012.879-.8604.475-1.5377 1.279-1.9141 2.281-.3763 1.003-.5137 2.194-.5137 3.697v18.285c0 1.504.1375 2.695.5137 3.698.3764 1.002 1.0537 1.8 1.9141 2.275 1.7207.95 3.8253.852 6.7012.885h.01 13.723.01c2.875-.033 4.98.065 6.701-.885.86-.475 1.538-1.273 1.914-2.275.375-1.003.514-2.194.514-3.698v-18.285c0-1.503-.138-2.694-.514-3.697-.376-1.002-1.054-1.806-1.914-2.281-1.721-.95-3.826-.846-6.701-.879h-.01-13.723zm40 0c-2.876.033-4.981-.071-6.701.879-.861.475-1.538 1.279-1.914 2.281-.377 1.003-.514 2.194-.514 3.697v18.285c0 1.504.137 2.695.514 3.698.376 1.002 1.053 1.8 1.914 2.275 1.72.95 3.825.852 6.701.885h.01 13.723.01c2.875-.033 4.98.065 6.701-.885.86-.475 1.538-1.273 1.914-2.275.375-1.003.514-2.194.514-3.698v-18.285c0-1.503-.138-2.694-.514-3.697-.376-1.002-1.054-1.806-1.914-2.281-1.721-.95-3.826-.846-6.701-.879h-.01-13.723zm40 0c-2.876.033-4.981-.071-6.701.879-.861.475-1.538 1.279-1.914 2.281-.377 1.003-.514 2.194-.514 3.697v18.285c0 1.504.137 2.695.514 3.698.376 1.002 1.053 1.8 1.914 2.275 1.72.95 3.825.852 6.701.885h.01 13.723.01c2.875-.033 4.98.065 6.701-.885.86-.475 1.538-1.273 1.914-2.275.375-1.003.514-2.194.514-3.698v-18.285c0-1.503-.138-2.694-.514-3.697-.376-1.002-1.054-1.806-1.914-2.281-1.721-.95-3.826-.846-6.701-.879h-.01-13.723zm-136 40c-2.8759.033-4.9805-.071-6.7012.879-.8604.475-1.5377 1.279-1.9141 2.281-.3763 1.003-.5136 2.194-.5136 3.697v18.285c0 1.504.1374 2.695.5136 3.698.3764 1.002 1.0537 1.8 1.9141 2.275 1.7207.95 3.8253.852 6.7012.885h.0098 13.7226.0098c2.8759-.033 4.9805.065 6.7012-.885.8604-.475 1.5377-1.273 1.914-2.275.375-1.003.5136-2.194.5136-3.698v-18.285c0-1.503-.1374-2.694-.5136-3.697-.3764-1.002-1.0537-1.806-1.9141-2.281-1.7207-.95-3.8253-.846-6.7012-.879h-.0098-13.7226zm40 0c-2.8759.033-4.9805-.071-6.7012.879-.8604.475-1.5377 1.279-1.9141 2.281-.3763 1.003-.5137 2.194-.5137 3.697v18.285c0 1.504.1375 2.695.5137 3.698.3764 1.002 1.0537 1.8 1.9141 2.275 1.7207.95 3.8253.852 6.7012.885h.01 93.723.01c2.875-.033 4.98.065 6.701-.885.86-.475 1.538-1.273 1.914-2.275.375-1.003.514-2.194.514-3.698v-18.285c0-1.503-.138-2.694-.514-3.697-.376-1.002-1.054-1.806-1.914-2.281-1.721-.95-3.826-.846-6.701-.879h-.01-93.723zm120 0c-2.876.033-4.981-.071-6.701.879-.861.475-1.538 1.279-1.914 2.281-.377 1.003-.514 2.194-.514 3.697v18.285c0 1.504.137 2.695.514 3.698.376 1.002 1.053 1.8 1.914 2.275 1.72.95 3.825.852 6.701.885h.01 13.723.01c2.875-.033 4.98.065 6.701-.885.86-.475 1.538-1.273 1.914-2.275.375-1.003.514-2.194.514-3.698v-18.285c0-1.503-.138-2.694-.514-3.697-.376-1.002-1.054-1.806-1.914-2.281-1.721-.95-3.826-.846-6.701-.879h-.01-13.723z"
     fill="#000"
     opacity=".1"
     id="path44" />
  <path
     d="m 41.929,83.1989 c -2.8759,0.0331 -4.9805,-0.0705 -6.7012,0.8789 -0.8604,0.4747 -1.5377,1.2787 -1.9141,2.2813 -0.3763,1.0025 -0.5136,2.1942 -0.5136,3.6972 v 18.2847 c 0,1.504 0.1374,2.695 0.5136,3.698 0.3764,1.002 1.0537,1.8 1.9141,2.275 1.7207,0.95 3.8253,0.852 6.7012,0.885 h 0.0098 13.7226 0.0098 c 2.8759,-0.033 4.9805,0.065 6.7012,-0.885 0.8603,-0.475 1.5377,-1.273 1.914,-2.275 0.3748,-1.003 0.5136,-2.194 0.5136,-3.698 V 90.0563 c 0,-1.503 -0.1374,-2.6947 -0.5136,-3.6972 C 63.91,85.3565 63.2327,84.5525 62.3723,84.0778 60.6516,83.1284 58.547,83.2321 55.6711,83.1989 H 55.6613 41.9387 Z m 40,0 c -2.8759,0.0331 -4.9805,-0.0705 -6.7012,0.8789 -0.8604,0.4747 -1.5377,1.2787 -1.9141,2.2813 C 72.9374,87.3616 72.8,88.5533 72.8,90.0563 v 18.2847 c 0,1.504 0.1375,2.695 0.5137,3.698 0.3764,1.002 1.0537,1.8 1.9141,2.275 1.7207,0.95 3.8253,0.852 6.7012,0.885 h 0.01 13.7226 0.01 c 2.8759,-0.033 4.9804,0.065 6.7014,-0.885 0.86,-0.475 1.538,-1.273 1.914,-2.275 0.375,-1.003 0.514,-2.194 0.514,-3.698 V 90.0563 c 0,-1.503 -0.138,-2.6947 -0.514,-3.6972 -0.376,-1.0026 -1.054,-1.8066 -1.914,-2.2813 -1.721,-0.9494 -3.8255,-0.8457 -6.7014,-0.8789 h -0.01 -13.7226 z m 40,0 c -2.876,0.0331 -4.981,-0.0705 -6.701,0.8789 -0.861,0.4747 -1.538,1.2787 -1.914,2.2813 -0.377,1.0025 -0.514,2.1942 -0.514,3.6972 v 18.2847 c 0,1.504 0.137,2.695 0.514,3.698 0.376,1.002 1.053,1.8 1.914,2.275 1.72,0.95 3.825,0.852 6.701,0.885 h 0.01 13.723 0.01 c 2.875,-0.033 4.98,0.065 6.701,-0.885 0.86,-0.475 1.538,-1.273 1.914,-2.275 0.375,-1.003 0.514,-2.194 0.514,-3.698 V 90.0563 c 0,-1.503 -0.138,-2.6947 -0.514,-3.6972 -0.376,-1.0026 -1.054,-1.8066 -1.914,-2.2813 -1.721,-0.9494 -3.826,-0.8457 -6.701,-0.8789 h -0.01 -13.723 z m 40,0 c -2.876,0.0331 -4.981,-0.0705 -6.701,0.8789 -0.861,0.4747 -1.538,1.2787 -1.914,2.2813 -0.377,1.0025 -0.514,2.1942 -0.514,3.6972 v 18.2847 c 0,1.504 0.137,2.695 0.514,3.698 0.376,1.002 1.053,1.8 1.914,2.275 1.72,0.95 3.825,0.852 6.701,0.885 h 0.01 13.723 0.01 c 2.875,-0.033 4.98,0.065 6.701,-0.885 0.86,-0.475 1.538,-1.273 1.914,-2.275 0.375,-1.003 0.514,-2.194 0.514,-3.698 V 90.0563 c 0,-1.503 -0.138,-2.6947 -0.514,-3.6972 -0.376,-1.0026 -1.054,-1.8066 -1.914,-2.2813 -1.721,-0.9494 -3.826,-0.8457 -6.701,-0.8789 h -0.01 -13.723 z m 40,0 c -2.876,0.0331 -4.981,-0.0705 -6.701,0.8789 -0.861,0.4747 -1.538,1.2787 -1.914,2.2813 -0.377,1.0025 -0.514,2.1942 -0.514,3.6972 v 18.2847 c 0,1.504 0.137,2.695 0.514,3.698 0.376,1.002 1.053,1.8 1.914,2.275 1.72,0.95 3.825,0.852 6.701,0.885 h 0.01 13.723 0.01 c 2.875,-0.033 4.98,0.065 6.701,-0.885 0.86,-0.475 1.538,-1.273 1.914,-2.275 0.375,-1.003 0.514,-2.194 0.514,-3.698 V 90.0563 c 0,-1.503 -0.138,-2.6947 -0.514,-3.6972 -0.376,-1.0026 -1.054,-1.8066 -1.914,-2.2813 -1.721,-0.9494 -3.826,-0.8457 -6.701,-0.8789 h -0.01 -13.723 z m -144,40.0001 c -2.8759,0.033 -4.9805,-0.071 -6.7012,0.879 -0.8604,0.475 -1.5377,1.279 -1.9141,2.281 -0.3763,1.003 -0.5136,2.194 -0.5136,3.697 v 18.285 c 0,1.504 0.1374,2.695 0.5136,3.698 0.3764,1.002 1.0537,1.8 1.9141,2.275 1.7207,0.95 3.8253,0.852 6.7012,0.885 h 0.0098 13.7226 0.0098 c 2.8759,-0.033 4.9805,0.065 6.7012,-0.885 0.8604,-0.475 1.5377,-1.273 1.914,-2.275 0.375,-1.003 0.5137,-2.194 0.5137,-3.698 v -18.285 c 0,-1.503 -0.1374,-2.694 -0.5137,-3.697 -0.3763,-1.002 -1.0536,-1.806 -1.914,-2.281 -1.7208,-0.95 -3.8254,-0.846 -6.7013,-0.879 H 71.6613 57.9387 Z m 40,0 c -2.8759,0.033 -4.9805,-0.071 -6.7012,0.879 -0.8604,0.475 -1.5377,1.279 -1.9141,2.281 -0.3763,1.003 -0.5137,2.194 -0.5137,3.697 v 18.285 c 0,1.504 0.1375,2.695 0.5137,3.698 0.3764,1.002 1.0537,1.8 1.9141,2.275 1.7207,0.95 3.8253,0.852 6.7012,0.885 h 0.01 13.723 0.01 c 2.875,-0.033 4.98,0.065 6.701,-0.885 0.86,-0.475 1.538,-1.273 1.914,-2.275 0.375,-1.003 0.514,-2.194 0.514,-3.698 v -18.285 c 0,-1.503 -0.138,-2.694 -0.514,-3.697 -0.376,-1.002 -1.054,-1.806 -1.914,-2.281 -1.721,-0.95 -3.826,-0.846 -6.701,-0.879 h -0.01 -13.723 z m 40,0 c -2.876,0.033 -4.981,-0.071 -6.701,0.879 -0.861,0.475 -1.538,1.279 -1.914,2.281 -0.377,1.003 -0.514,2.194 -0.514,3.697 v 18.285 c 0,1.504 0.137,2.695 0.514,3.698 0.376,1.002 1.053,1.8 1.914,2.275 1.72,0.95 3.825,0.852 6.701,0.885 h 0.01 13.723 0.01 c 2.875,-0.033 4.98,0.065 6.701,-0.885 0.86,-0.475 1.538,-1.273 1.914,-2.275 0.375,-1.003 0.514,-2.194 0.514,-3.698 v -18.285 c 0,-1.503 -0.138,-2.694 -0.514,-3.697 -0.376,-1.002 -1.054,-1.806 -1.914,-2.281 -1.721,-0.95 -3.826,-0.846 -6.701,-0.879 h -0.01 -13.723 z m 40,0 c -2.876,0.033 -4.981,-0.071 -6.701,0.879 -0.861,0.475 -1.538,1.279 -1.914,2.281 -0.377,1.003 -0.514,2.194 -0.514,3.697 v 18.285 c 0,1.504 0.137,2.695 0.514,3.698 0.376,1.002 1.053,1.8 1.914,2.275 1.72,0.95 3.825,0.852 6.701,0.885 h 0.01 13.723 0.01 c 2.875,-0.033 4.98,0.065 6.701,-0.885 0.86,-0.475 1.538,-1.273 1.914,-2.275 0.375,-1.003 0.514,-2.194 0.514,-3.698 v -18.285 c 0,-1.503 -0.138,-2.694 -0.514,-3.697 -0.376,-1.002 -1.054,-1.806 -1.914,-2.281 -1.721,-0.95 -3.826,-0.846 -6.701,-0.879 h -0.01 -13.723 z m -136,40 c -2.8759,0.033 -4.9805,-0.071 -6.7012,0.879 -0.8604,0.475 -1.5377,1.279 -1.9141,2.281 -0.3763,1.003 -0.5136,2.194 -0.5136,3.697 v 18.285 c 0,1.504 0.1374,2.695 0.5136,3.698 0.3764,1.002 1.0537,1.8 1.9141,2.275 1.7207,0.95 3.8253,0.852 6.7012,0.885 h 0.0098 13.7226 0.0098 c 2.8759,-0.033 4.9805,0.065 6.7012,-0.885 0.8604,-0.475 1.5377,-1.273 1.914,-2.275 0.375,-1.003 0.5136,-2.194 0.5136,-3.698 v -18.285 c 0,-1.503 -0.1374,-2.694 -0.5136,-3.697 -0.3764,-1.002 -1.0537,-1.806 -1.9141,-2.281 -1.7207,-0.95 -3.8253,-0.846 -6.7012,-0.879 H 55.6613 41.9387 Z m 40,0 c -2.8759,0.033 -4.9805,-0.071 -6.7012,0.879 -0.8604,0.475 -1.5377,1.279 -1.9141,2.281 -0.3763,1.003 -0.5137,2.194 -0.5137,3.697 v 18.285 c 0,1.504 0.1375,2.695 0.5137,3.698 0.3764,1.002 1.0537,1.8 1.9141,2.275 1.7207,0.95 3.8253,0.852 6.7012,0.885 h 0.01 93.723 0.01 c 2.875,-0.033 4.98,0.065 6.701,-0.885 0.86,-0.475 1.538,-1.273 1.914,-2.275 0.375,-1.003 0.514,-2.194 0.514,-3.698 v -18.285 c 0,-1.503 -0.138,-2.694 -0.514,-3.697 -0.376,-1.002 -1.054,-1.806 -1.914,-2.281 -1.721,-0.95 -3.826,-0.846 -6.701,-0.879 h -0.01 -93.723 z m 120,0 c -2.876,0.033 -4.981,-0.071 -6.701,0.879 -0.861,0.475 -1.538,1.279 -1.914,2.281 -0.377,1.003 -0.514,2.194 -0.514,3.697 v 18.285 c 0,1.504 0.137,2.695 0.514,3.698 0.376,1.002 1.053,1.8 1.914,2.275 1.72,0.95 3.825,0.852 6.701,0.885 h 0.01 13.723 0.01 c 2.875,-0.033 4.98,0.065 6.701,-0.885 0.86,-0.475 1.538,-1.273 1.914,-2.275 0.375,-1.003 0.514,-2.194 0.514,-3.698 v -18.285 c 0,-1.503 -0.138,-2.694 -0.514,-3.697 -0.376,-1.002 -1.054,-1.806 -1.914,-2.281 -1.721,-0.95 -3.826,-0.846 -6.701,-0.879 h -0.01 -13.723 z"
     fill="url(#paint3_linear)"
     id="path46"
     sodipodi:nodetypes="cccssccccccscsscccccccccssccccccccsscccccccccssccccccccsscccccccccssccccccccsssccccccccssccccccccsssccccccscssccccccscsscscccccscssccccccccsscccccccccssccccccccsscccccccccssccccccccsscccccccscssccccccscsscccccccscssccccccccsscccccccccssccccccccsscccccc"
     style="fill:#ececec" />
  <path
     d="m 177.92486,123.21261 c -2.876,0.0329 -4.981,-0.071 -6.701,0.87899 -0.861,0.47501 -1.538,1.279 -1.914,2.281 -0.37701,1.003 -0.514,2.19401 -0.514,3.69701 v 18.285 c 0,1.50399 0.13701,2.695 0.514,3.698 0.37599,1.00199 1.053,1.8 1.914,2.27499 1.72,0.95 3.825,0.852 6.701,0.885 h 0.01 13.723 0.01 c 2.875,-0.0329 4.98,0.065 6.701,-0.885 0.86,-0.47499 1.538,-1.273 1.914,-2.27499 0.375,-1.003 0.514,-2.19401 0.514,-3.698 v -18.285 c 0,-1.503 -0.13799,-2.69401 -0.514,-3.69701 -0.37599,-1.002 -1.054,-1.80599 -1.914,-2.281 -1.721,-0.95 -3.826,-0.84599 -6.701,-0.87899 h -0.01 -13.723 z"
     style="opacity:1;fill:#fda463;stroke-width:0.999999"
     id="path5667" />
  <path
     d="m41.929 83.1989c-2.8759.0331-4.9805-.0705-6.7012.8789-.8604.4747-1.5377 1.2787-1.9141 2.2813-.3763 1.0025-.5136 2.1942-.5136 3.6972v2c0-1.503.1373-2.6947.5136-3.6972.3764-1.0026 1.0537-1.8066 1.9141-2.2813 1.7207-.9494 3.8253-.8458 6.7012-.8789h.0098 13.7226.0098c2.8759.0332 4.9805-.0705 6.7012.8789.8603.4747 1.5377 1.2787 1.914 2.2813.3762 1.0025.5136 2.1942.5136 3.6972v-2c0-1.503-.1374-2.6947-.5136-3.6972-.3764-1.0026-1.0537-1.8066-1.9141-2.2813-1.7207-.9494-3.8253-.8457-6.7012-.8789h-.0098-13.7226zm40 0c-2.8759.0331-4.9805-.0705-6.7012.8789-.8604.4747-1.5377 1.2787-1.9141 2.2813-.3763 1.0025-.5137 2.1942-.5137 3.6972v2c0-1.503.1374-2.6947.5137-3.6972.3764-1.0026 1.0537-1.8066 1.9141-2.2813 1.7207-.9494 3.8253-.8458 6.7012-.8789h.01 13.7226.01c2.8759.0332 4.9804-.0705 6.7014.8789.86.4747 1.538 1.2787 1.914 2.2813.376 1.0025.514 2.1942.514 3.6972v-2c0-1.503-.138-2.6947-.514-3.6972-.376-1.0026-1.054-1.8066-1.914-2.2813-1.721-.9494-3.8255-.8457-6.7014-.8789h-.01-13.7226zm40 0c-2.876.0331-4.981-.0705-6.701.8789-.861.4747-1.538 1.2787-1.914 2.2813-.377 1.0025-.514 2.1942-.514 3.6972v2c0-1.503.137-2.6947.514-3.6972.376-1.0026 1.053-1.8066 1.914-2.2813 1.72-.9494 3.825-.8458 6.701-.8789h.01 13.723.01c2.875.0332 4.98-.0705 6.701.8789.86.4747 1.538 1.2787 1.914 2.2813.376 1.0025.514 2.1942.514 3.6972v-2c0-1.503-.138-2.6947-.514-3.6972-.376-1.0026-1.054-1.8066-1.914-2.2813-1.721-.9494-3.826-.8457-6.701-.8789h-.01-13.723zm40 0c-2.876.0331-4.981-.0705-6.701.8789-.861.4747-1.538 1.2787-1.914 2.2813-.377 1.0025-.514 2.1942-.514 3.6972v2c0-1.503.137-2.6947.514-3.6972.376-1.0026 1.053-1.8066 1.914-2.2813 1.72-.9494 3.825-.8458 6.701-.8789h.01 13.723.01c2.875.0332 4.98-.0705 6.701.8789.86.4747 1.538 1.2787 1.914 2.2813.376 1.0025.514 2.1942.514 3.6972v-2c0-1.503-.138-2.6947-.514-3.6972-.376-1.0026-1.054-1.8066-1.914-2.2813-1.721-.9494-3.826-.8457-6.701-.8789h-.01-13.723zm40 0c-2.876.0331-4.981-.0705-6.701.8789-.861.4747-1.538 1.2787-1.914 2.2813-.377 1.0025-.514 2.1942-.514 3.6972v2c0-1.503.137-2.6947.514-3.6972.376-1.0026 1.053-1.8066 1.914-2.2813 1.72-.9494 3.825-.8458 6.701-.8789h.01 13.723.01c2.875.0332 4.98-.0705 6.701.8789.86.4747 1.538 1.2787 1.914 2.2813.376 1.0025.514 2.1942.514 3.6972v-2c0-1.503-.138-2.6947-.514-3.6972-.376-1.0026-1.054-1.8066-1.914-2.2813-1.721-.9494-3.826-.8457-6.701-.8789h-.01-13.723zm-144 40.0001c-2.8759.033-4.9805-.071-6.7012.879-.8604.475-1.5377 1.279-1.9141 2.281-.3763 1.003-.5136 2.194-.5136 3.697v2c0-1.503.1373-2.694.5136-3.697.3764-1.002 1.0537-1.806 1.9141-2.281 1.7207-.95 3.8253-.846 6.7012-.879h.0098 13.7226.0098c2.8759.033 4.9804-.071 6.7012.879.8604.475 1.5377 1.279 1.914 2.281.3763 1.003.5137 2.194.5137 3.697v-2c0-1.503-.1374-2.694-.5137-3.697-.3763-1.002-1.0536-1.806-1.914-2.281-1.7208-.95-3.8254-.846-6.7013-.879h-.0098-13.7226zm40 0c-2.8759.033-4.9805-.071-6.7012.879-.8604.475-1.5377 1.279-1.9141 2.281-.3763 1.003-.5137 2.194-.5137 3.697v2c0-1.503.1374-2.694.5137-3.697.3764-1.002 1.0537-1.806 1.9141-2.281 1.7207-.95 3.8253-.846 6.7012-.879h.01 13.723.01c2.875.033 4.98-.071 6.701.879.86.475 1.538 1.279 1.914 2.281.376 1.003.514 2.194.514 3.697v-2c0-1.503-.138-2.694-.514-3.697-.376-1.002-1.054-1.806-1.914-2.281-1.721-.95-3.826-.846-6.701-.879h-.01-13.723zm40 0c-2.876.033-4.981-.071-6.701.879-.861.475-1.538 1.279-1.914 2.281-.377 1.003-.514 2.194-.514 3.697v2c0-1.503.137-2.694.514-3.697.376-1.002 1.053-1.806 1.914-2.281 1.72-.95 3.825-.846 6.701-.879h.01 13.723.01c2.875.033 4.98-.071 6.701.879.86.475 1.538 1.279 1.914 2.281.376 1.003.514 2.194.514 3.697v-2c0-1.503-.138-2.694-.514-3.697-.376-1.002-1.054-1.806-1.914-2.281-1.721-.95-3.826-.846-6.701-.879h-.01-13.723zm40 0c-2.876.033-4.981-.071-6.701.879-.861.475-1.538 1.279-1.914 2.281-.377 1.003-.514 2.194-.514 3.697v2c0-1.503.137-2.694.514-3.697.376-1.002 1.053-1.806 1.914-2.281 1.72-.95 3.825-.846 6.701-.879h.01 13.723.01c2.875.033 4.98-.071 6.701.879.86.475 1.538 1.279 1.914 2.281.376 1.003.514 2.194.514 3.697v-2c0-1.503-.138-2.694-.514-3.697-.376-1.002-1.054-1.806-1.914-2.281-1.721-.95-3.826-.846-6.701-.879h-.01-13.723zm-136 40c-2.8759.033-4.9805-.071-6.7012.879-.8604.475-1.5377 1.279-1.9141 2.281-.3763 1.003-.5136 2.194-.5136 3.697v2c0-1.503.1373-2.694.5136-3.697.3764-1.002 1.0537-1.806 1.9141-2.281 1.7207-.95 3.8253-.846 6.7012-.879h.0098 13.7226.0098c2.8759.033 4.9805-.071 6.7012.879.8603.475 1.5377 1.279 1.914 2.281.3762 1.003.5136 2.194.5136 3.697v-2c0-1.503-.1374-2.694-.5136-3.697-.3764-1.002-1.0537-1.806-1.9141-2.281-1.7207-.95-3.8253-.846-6.7012-.879h-.0098-13.7226zm40 0c-2.8759.033-4.9805-.071-6.7012.879-.8604.475-1.5377 1.279-1.9141 2.281-.3763 1.003-.5137 2.194-.5137 3.697v2c0-1.503.1374-2.694.5137-3.697.3764-1.002 1.0537-1.806 1.9141-2.281 1.7207-.95 3.8253-.846 6.7012-.879h.01 93.723.01c2.875.033 4.98-.071 6.701.879.86.475 1.538 1.279 1.914 2.281.376 1.003.514 2.194.514 3.697v-2c0-1.503-.138-2.694-.514-3.697-.376-1.002-1.054-1.806-1.914-2.281-1.721-.95-3.826-.846-6.701-.879h-.01-93.723zm120 0c-2.876.033-4.981-.071-6.701.879-.861.475-1.538 1.279-1.914 2.281-.377 1.003-.514 2.194-.514 3.697v2c0-1.503.137-2.694.514-3.697.376-1.002 1.053-1.806 1.914-2.281 1.72-.95 3.825-.846 6.701-.879h.01 13.723.01c2.875.033 4.98-.071 6.701.879.86.475 1.538 1.279 1.914 2.281.376 1.003.514 2.194.514 3.697v-2c0-1.503-.138-2.694-.514-3.697-.376-1.002-1.054-1.806-1.914-2.281-1.721-.95-3.826-.846-6.701-.879h-.01-13.723z"
     fill="#fff"
     opacity=".4"
     id="path48" />
</svg>
