<?xml version="1.0" encoding="UTF-8" standalone="no"?>
<svg
   height="256"
   viewBox="0 0 67.73 67.73"
   width="256"
   version="1.1"
   id="svg2987"
   sodipodi:docname="discord.svg"
   inkscape:version="1.2 (dc2aedaf03, 2022-05-15)"
   xmlns:inkscape="http://www.inkscape.org/namespaces/inkscape"
   xmlns:sodipodi="http://sodipodi.sourceforge.net/DTD/sodipodi-0.dtd"
   xmlns="http://www.w3.org/2000/svg"
   xmlns:svg="http://www.w3.org/2000/svg">
  <defs
     id="defs2991" />
  <sodipodi:namedview
     id="namedview2989"
     pagecolor="#ffffff"
     bordercolor="#000000"
     borderopacity="0.25"
     inkscape:showpageshadow="2"
     inkscape:pageopacity="0.0"
     inkscape:pagecheckerboard="0"
     inkscape:deskcolor="#d1d1d1"
     showgrid="false"
     inkscape:zoom="1.8476562"
     inkscape:cx="123.9408"
     inkscape:cy="128.27061"
     inkscape:window-width="1366"
     inkscape:window-height="704"
     inkscape:window-x="0"
     inkscape:window-y="0"
     inkscape:window-maximized="1"
     inkscape:current-layer="svg2987" />
  <filter
     id="a"
     color-interpolation-filters="sRGB"
     height="2.62"
     width="2.62"
     x="-0.81000001"
     y="-0.81000001">
    <feGaussianBlur
       stdDeviation="2.7"
       id="feGaussianBlur2937" />
  </filter>
  <linearGradient
     id="b"
     gradientUnits="userSpaceOnUse"
     x1="21.36563332"
     x2="46.765633"
     y1="232.24269652"
     y2="291.50936244"
     gradientTransform="translate(0,-229.26666)">
    <stop
       offset="0"
       stop-color="#8c59d9"
       id="stop2940"
       style="stop-color:#2f5fdd;stop-opacity:1;" />
    <stop
       offset="1"
       stop-color="#a7a7f1"
       id="stop2942"
       style="stop-color:#80a3fa;stop-opacity:1;" />
  </linearGradient>
  <filter
     id="c"
     color-interpolation-filters="sRGB"
     height="1.024"
     width="1.024"
     x="-0.012"
     y="-0.012">
    <feGaussianBlur
       stdDeviation="1.12"
       id="feGaussianBlur2945" />
  </filter>
  <filter
     id="d"
     color-interpolation-filters="sRGB"
     height="1.096"
     width="1.096"
     x="-0.048"
     y="-0.048">
    <feGaussianBlur
       stdDeviation="4.48"
       id="feGaussianBlur2948" />
  </filter>
  <circle
     cx="122.752"
     cy="122.752"
     filter="url(#d)"
     opacity="0.1"
     r="112"
     transform="matrix(0.26458333,0,0,0.26458333,1.5875,1.18957)"
     id="circle2951" />
  <circle
     cx="122.752"
     cy="120.752"
     filter="url(#c)"
     opacity="0.1"
     r="112"
     transform="matrix(0.26458333,0,0,0.26458333,1.5875,1.18957)"
     id="circle2953" />
  <circle
     cx="34.066002"
     cy="32.609348"
     opacity="0.1"
     r="30.162001"
     id="circle2955" />
  <circle
     cx="34.066002"
     cy="32.609348"
     fill="url(#b)"
     r="29.632999"
     id="circle2957"
     style="fill:url(#b)" />
  <path
     style="fill:#ffffff;stroke-width:1.60465"
     d="m 28.089015,16.565452 c -2.979817,0.517963 -5.832576,1.424694 -8.493379,2.65771 -0.02304,0.01033 -0.04003,0.02547 -0.05338,0.0473 -5.408775,8.154914 -6.891621,16.110522 -6.164751,23.966376 0.0034,0.03821 0.02365,0.07382 0.05338,0.09716 3.568554,2.644768 7.025144,4.251172 10.417712,5.315414 0.05458,0.01698 0.11275,-0.002 0.147322,-0.0473 0.802515,-1.105988 1.517823,-1.791754 2.131184,-3.01813 0.03639,-0.07182 0.0019,-0.156481 -0.07205,-0.184926 -1.134689,-0.434385 -2.213858,-0.96247 -3.253184,-1.563913 -0.08218,-0.04852 -0.09127,-0.168853 -0.01578,-0.225683 0.218709,-0.165396 0.439904,-0.3371 0.648757,-0.510866 0.0376,-0.03154 0.09037,-0.03882 0.134767,-0.0188 6.827906,3.146056 14.219718,3.146056 20.967054,0 0.04428,-0.02184 0.09534,-0.01637 0.134768,0.01576 0.208883,0.173765 0.428381,0.348623 0.648756,0.51402 0.07563,0.05701 0.06969,0.177223 -0.01274,0.225683 -1.03932,0.613125 -2.119975,1.131177 -3.256314,1.563906 -0.07399,0.0285 -0.105172,0.11311 -0.06897,0.184926 0.626522,1.22466 1.34034,1.908945 2.128048,3.014995 0.03275,0.04669 0.09298,0.0669 0.147323,0.05034 3.409022,-1.064243 6.864831,-2.670648 10.433383,-5.315415 0.03154,-0.02365 0.05338,-0.05884 0.05641,-0.09716 0.86991,-9.082229 -1.459549,-16.969471 -6.171021,-23.963247 -0.01157,-0.02365 -0.03032,-0.04003 -0.05338,-0.05034 -2.659154,-1.231349 -5.508783,-2.13811 -8.490249,-2.657704 -0.05458,-0.01033 -0.109901,0.01274 -0.137921,0.06266 -0.366759,0.65826 -0.771722,1.196068 -1.056188,1.871051 -3.206757,-0.484483 -6.399162,-0.484483 -9.540167,0 -0.284514,-0.689982 -0.703476,-1.212791 -1.071859,-1.871051 -0.0279,-0.04852 -0.08357,-0.07102 -0.137921,-0.06266 z M 26.841648,31.0042 c 2.251668,0 4.049974,1.816215 4.014771,4.011636 0,2.21123 -1.780704,4.011634 -4.014771,4.011634 -2.198986,0 -4.0085,-1.800404 -4.0085,-4.011634 0,-2.211232 1.774373,-4.011636 4.0085,-4.011636 z m 14.44502,0 c 2.251728,0 4.04677,1.816215 4.011635,4.011636 0,2.21123 -1.759907,4.011634 -4.011635,4.011634 -2.198926,0 -4.011636,-1.800404 -4.011636,-4.011634 0,-2.211232 1.777508,-4.011636 4.011636,-4.011636 z"
     id="path3322" />
  <path
     d="M 34.065633,2.97604 A 29.633333,29.633333 0 0 0 4.4323003,32.60937 29.633333,29.633333 0 0 0 4.4431533,32.91891 29.633333,29.633333 0 0 1 34.065633,3.5052 29.633333,29.633333 0 0 1 63.688114,32.82899 29.633333,29.633333 0 0 0 63.698964,32.60937 29.633333,29.633333 0 0 0 34.06563,2.97604 Z"
     opacity="0.3"
     id="path2979"
     style="fill:#ffffff" />
  <path
     d="M 34.065633,62.2427 A 29.633333,29.633333 0 0 1 4.4323003,32.60937 29.633333,29.633333 0 0 1 4.4431533,32.29983 29.633333,29.633333 0 0 0 34.065633,61.71353 29.633333,29.633333 0 0 0 63.688114,32.38974 29.633333,29.633333 0 0 1 63.698964,32.60937 29.633333,29.633333 0 0 1 34.06563,62.2427 Z"
     opacity="0.2"
     id="path2983" />
</svg>
