<?xml version="1.0" encoding="UTF-8" standalone="no"?>
<svg
   height="256"
   viewBox="0 0 67.73 67.73"
   width="256"
   version="1.1"
   id="svg50"
   sodipodi:docname="firefox.svg"
   xml:space="preserve"
   inkscape:version="1.2 (dc2aedaf03, 2022-05-15)"
   xmlns:inkscape="http://www.inkscape.org/namespaces/inkscape"
   xmlns:sodipodi="http://sodipodi.sourceforge.net/DTD/sodipodi-0.dtd"
   xmlns:xlink="http://www.w3.org/1999/xlink"
   xmlns="http://www.w3.org/2000/svg"
   xmlns:svg="http://www.w3.org/2000/svg"><defs
     id="defs54"><linearGradient
       inkscape:collect="always"
       id="linearGradient2321"><stop
         style="stop-color:#fda463;stop-opacity:1"
         offset="0"
         id="stop2317" /><stop
         style="stop-color:#fdc92b;stop-opacity:1"
         offset="1"
         id="stop2319" /></linearGradient><linearGradient
       inkscape:collect="always"
       id="linearGradient2311"><stop
         style="stop-color:#fda463;stop-opacity:1"
         offset="0"
         id="stop2307" /><stop
         style="stop-color:#fdc92b;stop-opacity:1"
         offset="1"
         id="stop2309" /></linearGradient><linearGradient
       inkscape:collect="always"
       id="linearGradient2256"><stop
         style="stop-color:#fdc92b;stop-opacity:1"
         offset="0"
         id="stop2252" /><stop
         style="stop-color:#bc1938;stop-opacity:1"
         offset="1"
         id="stop2254" /></linearGradient><linearGradient
       inkscape:collect="always"
       id="linearGradient1687"><stop
         style="stop-color:#f34f17;stop-opacity:1"
         offset="0"
         id="stop1683" /><stop
         style="stop-color:#fdc92b;stop-opacity:1"
         offset="1"
         id="stop1685" /></linearGradient><linearGradient
       inkscape:collect="always"
       id="linearGradient1681"><stop
         style="stop-color:#f34f17;stop-opacity:1"
         offset="0"
         id="stop1677" /><stop
         style="stop-color:#fdc92b;stop-opacity:1"
         offset="1"
         id="stop1679" /></linearGradient><linearGradient
       inkscape:collect="always"
       id="linearGradient1669"><stop
         style="stop-color:#f34f17;stop-opacity:1"
         offset="0"
         id="stop1665" /><stop
         style="stop-color:#fdc92b;stop-opacity:1"
         offset="1"
         id="stop1667" /></linearGradient><linearGradient
       inkscape:collect="always"
       id="linearGradient1558"><stop
         style="stop-color:#c43ac4;stop-opacity:1"
         offset="0"
         id="stop1554" /><stop
         style="stop-color:#234db8;stop-opacity:1"
         offset="1"
         id="stop1556" /></linearGradient><linearGradient
       id="a-9"
       x1="70.79"
       x2="6.447"
       y1="12.39"
       y2="74.47"
       gradientTransform="translate(-1.3,-0.004086)"
       gradientUnits="userSpaceOnUse"><stop
         stop-color="#fff44f"
         offset=".048"
         id="stop913" /><stop
         stop-color="#ffe847"
         offset=".111"
         id="stop915" /><stop
         stop-color="#ffc830"
         offset=".225"
         id="stop917" /><stop
         stop-color="#ff980e"
         offset=".368"
         id="stop919" /><stop
         stop-color="#ff8b16"
         offset=".401"
         id="stop921" /><stop
         stop-color="#ff672a"
         offset=".462"
         id="stop923" /><stop
         stop-color="#ff3647"
         offset=".534"
         id="stop925" /><stop
         stop-color="#e31587"
         offset=".705"
         id="stop927" /></linearGradient><radialGradient
       id="b-1"
       cx="-7907"
       cy="-8515"
       r="80.8"
       gradientTransform="translate(7974,8524)"
       gradientUnits="userSpaceOnUse"><stop
         stop-color="#ffbd4f"
         offset=".129"
         id="stop930" /><stop
         stop-color="#ffac31"
         offset=".186"
         id="stop932" /><stop
         stop-color="#ff9d17"
         offset=".247"
         id="stop934" /><stop
         stop-color="#ff980e"
         offset=".283"
         id="stop936" /><stop
         stop-color="#ff563b"
         offset=".403"
         id="stop938" /><stop
         stop-color="#ff3750"
         offset=".467"
         id="stop940" /><stop
         stop-color="#f5156c"
         offset=".71"
         id="stop942" /><stop
         stop-color="#eb0878"
         offset=".782"
         id="stop944" /><stop
         stop-color="#e50080"
         offset=".86"
         id="stop946" /></radialGradient><radialGradient
       id="c"
       cx="-7937"
       cy="-8482"
       r="80.8"
       gradientTransform="translate(7974,8524)"
       gradientUnits="userSpaceOnUse"><stop
         stop-color="#960e18"
         offset=".3"
         id="stop949" /><stop
         stop-color="#b11927"
         stop-opacity=".74"
         offset=".351"
         id="stop951" /><stop
         stop-color="#db293d"
         stop-opacity=".343"
         offset=".435"
         id="stop953" /><stop
         stop-color="#f5334b"
         stop-opacity=".094"
         offset=".497"
         id="stop955" /><stop
         stop-color="#ff3750"
         stop-opacity="0"
         offset=".53"
         id="stop957" /></radialGradient><radialGradient
       id="d"
       cx="-7927"
       cy="-8533"
       r="58.53"
       gradientTransform="translate(7974,8524)"
       gradientUnits="userSpaceOnUse"><stop
         stop-color="#fff44f"
         offset=".132"
         id="stop960" /><stop
         stop-color="#ffdc3e"
         offset=".252"
         id="stop962" /><stop
         stop-color="#ff9d12"
         offset=".506"
         id="stop964" /><stop
         stop-color="#ff980e"
         offset=".526"
         id="stop966" /></radialGradient><radialGradient
       id="e"
       cx="-7946"
       cy="-8461"
       r="38.47"
       gradientTransform="translate(7974,8524)"
       gradientUnits="userSpaceOnUse"><stop
         stop-color="#3a8ee6"
         offset=".353"
         id="stop969" /><stop
         stop-color="#5c79f0"
         offset=".472"
         id="stop971" /><stop
         stop-color="#9059ff"
         offset=".669"
         id="stop973" /><stop
         stop-color="#c139e6"
         offset="1"
         id="stop975" /></radialGradient><radialGradient
       id="f"
       cx="-7936"
       cy="-8492"
       r="20.4"
       gradientTransform="matrix(0.972,-0.235,0.275,1.138,10090,7834)"
       gradientUnits="userSpaceOnUse"><stop
         stop-color="#9059ff"
         stop-opacity="0"
         offset=".206"
         id="stop978" /><stop
         stop-color="#8c4ff3"
         stop-opacity=".064"
         offset=".278"
         id="stop980" /><stop
         stop-color="#7716a8"
         stop-opacity=".45"
         offset=".747"
         id="stop982" /><stop
         stop-color="#6e008b"
         stop-opacity=".6"
         offset=".975"
         id="stop984" /></radialGradient><radialGradient
       id="g"
       cx="-7938"
       cy="-8518"
       r="27.68"
       gradientTransform="translate(7974,8524)"
       gradientUnits="userSpaceOnUse"><stop
         stop-color="#ffe226"
         offset="0"
         id="stop987" /><stop
         stop-color="#ffdb27"
         offset=".121"
         id="stop989" /><stop
         stop-color="#ffc82a"
         offset=".295"
         id="stop991" /><stop
         stop-color="#ffa930"
         offset=".502"
         id="stop993" /><stop
         stop-color="#ff7e37"
         offset=".732"
         id="stop995" /><stop
         stop-color="#ff7139"
         offset=".792"
         id="stop997" /></radialGradient><radialGradient
       id="h"
       cx="-7916"
       cy="-8536"
       r="118.1"
       gradientTransform="translate(7974,8524)"
       gradientUnits="userSpaceOnUse"><stop
         stop-color="#fff44f"
         offset=".113"
         id="stop1000" /><stop
         stop-color="#ff980e"
         offset=".456"
         id="stop1002" /><stop
         stop-color="#ff5634"
         offset=".622"
         id="stop1004" /><stop
         stop-color="#ff3647"
         offset=".716"
         id="stop1006" /><stop
         stop-color="#e31587"
         offset=".904"
         id="stop1008" /></radialGradient><radialGradient
       id="i"
       cx="-7927"
       cy="-8523"
       r="86.5"
       gradientTransform="matrix(0.105,0.995,-0.653,0.069,-4685,8470)"
       gradientUnits="userSpaceOnUse"><stop
         stop-color="#fff44f"
         offset="0"
         id="stop1011" /><stop
         stop-color="#ffe847"
         offset=".06"
         id="stop1013" /><stop
         stop-color="#ffc830"
         offset=".168"
         id="stop1015" /><stop
         stop-color="#ff980e"
         offset=".304"
         id="stop1017" /><stop
         stop-color="#ff8b16"
         offset=".356"
         id="stop1019" /><stop
         stop-color="#ff672a"
         offset=".455"
         id="stop1021" /><stop
         stop-color="#ff3647"
         offset=".57"
         id="stop1023" /><stop
         stop-color="#e31587"
         offset=".737"
         id="stop1025" /></radialGradient><radialGradient
       id="j"
       cx="-7938"
       cy="-8508"
       r="73.72"
       gradientTransform="translate(7974,8524)"
       gradientUnits="userSpaceOnUse"><stop
         stop-color="#fff44f"
         offset=".137"
         id="stop1028" /><stop
         stop-color="#ff980e"
         offset=".48"
         id="stop1030" /><stop
         stop-color="#ff5634"
         offset=".592"
         id="stop1032" /><stop
         stop-color="#ff3647"
         offset=".655"
         id="stop1034" /><stop
         stop-color="#e31587"
         offset=".904"
         id="stop1036" /></radialGradient><radialGradient
       id="k"
       cx="-7919"
       cy="-8504"
       r="80.69"
       gradientTransform="translate(7974,8524)"
       gradientUnits="userSpaceOnUse"><stop
         stop-color="#fff44f"
         offset=".094"
         id="stop1039" /><stop
         stop-color="#ffe141"
         offset=".231"
         id="stop1041" /><stop
         stop-color="#ffaf1e"
         offset=".509"
         id="stop1043" /><stop
         stop-color="#ff980e"
         offset=".626"
         id="stop1045" /></radialGradient><linearGradient
       id="l"
       x1="70.01"
       x2="15.27"
       y1="12.06"
       y2="66.81"
       gradientTransform="translate(-1.3,-0.004086)"
       gradientUnits="userSpaceOnUse"><stop
         stop-color="#fff44f"
         stop-opacity=".8"
         offset=".167"
         id="stop1048" /><stop
         stop-color="#fff44f"
         stop-opacity=".634"
         offset=".266"
         id="stop1050" /><stop
         stop-color="#fff44f"
         stop-opacity=".217"
         offset=".489"
         id="stop1052" /><stop
         stop-color="#fff44f"
         stop-opacity="0"
         offset=".6"
         id="stop1054" /></linearGradient><linearGradient
       inkscape:collect="always"
       xlink:href="#linearGradient1558"
       id="linearGradient1560"
       x1="39.087048"
       y1="22.015829"
       x2="26.964916"
       y2="46.121372"
       gradientUnits="userSpaceOnUse" /><linearGradient
       inkscape:collect="always"
       xlink:href="#linearGradient1669"
       id="linearGradient1671"
       x1="20.28764"
       y1="53.628918"
       x2="46.828403"
       y2="8.3533154"
       gradientUnits="userSpaceOnUse" /><linearGradient
       inkscape:collect="always"
       xlink:href="#linearGradient1687"
       id="linearGradient1673"
       x1="20.28764"
       y1="53.628918"
       x2="46.828403"
       y2="8.3533154"
       gradientUnits="userSpaceOnUse" /><linearGradient
       inkscape:collect="always"
       xlink:href="#linearGradient1681"
       id="linearGradient1675"
       x1="20.28764"
       y1="53.628918"
       x2="46.828403"
       y2="8.3533154"
       gradientUnits="userSpaceOnUse" /><linearGradient
       inkscape:collect="always"
       xlink:href="#linearGradient2256"
       id="linearGradient2258"
       x1="41.764198"
       y1="9.4665594"
       x2="29.136986"
       y2="63.37468"
       gradientUnits="userSpaceOnUse" /><linearGradient
       inkscape:collect="always"
       xlink:href="#linearGradient2321"
       id="linearGradient2315"
       x1="25.554249"
       y1="48.438183"
       x2="41.054825"
       y2="11.587397"
       gradientUnits="userSpaceOnUse" /><linearGradient
       inkscape:collect="always"
       xlink:href="#linearGradient2311"
       id="linearGradient2323"
       gradientUnits="userSpaceOnUse"
       x1="25.554249"
       y1="48.438183"
       x2="41.054825"
       y2="11.587397" /></defs><sodipodi:namedview
     id="namedview52"
     pagecolor="#ffffff"
     bordercolor="#000000"
     borderopacity="0.25"
     inkscape:showpageshadow="2"
     inkscape:pageopacity="0.0"
     inkscape:pagecheckerboard="0"
     inkscape:deskcolor="#d1d1d1"
     showgrid="false"
     inkscape:zoom="0.92382813"
     inkscape:cx="148.83721"
     inkscape:cy="108.24524"
     inkscape:window-width="1221"
     inkscape:window-height="628"
     inkscape:window-x="26"
     inkscape:window-y="23"
     inkscape:window-maximized="0"
     inkscape:current-layer="svg50" /><filter
     id="a"
     color-interpolation-filters="sRGB"
     height="1.0236773"
     width="1.0243316"
     x="-0.012165824"
     y="-0.011838637"><feGaussianBlur
       stdDeviation=".29755466"
       id="feGaussianBlur2" /></filter><filter
     id="b"
     color-interpolation-filters="sRGB"
     height="1.0947091"
     width="1.0973266"
     x="-0.048663291"
     y="-0.047354544"><feGaussianBlur
       stdDeviation="1.1902186"
       id="feGaussianBlur5" /></filter><path
     d="m 41.902497,231.90866 c 0,0 -8.39528,7.25799 -10.01966,15.95782 a 15.448387,15.448387 0 0 0 -8.5985,4.19511 c -0.15353,-0.14598 -0.30296,-0.30086 -0.45338,-0.45338 0.16682,-3.84833 0.1271,-6.42101 -0.10414,-8.65215 -3.35865,2.53028 -4.23,3.16488 -7.03059,5.77932 -0.14791,0.13807 -1.06303,-7.48137 -1.22393,-7.35827 -1.2e-4,8e-5 -4e-4,-8e-5 -5.2e-4,0 -1.24517,0.76132 -2.33835,1.59304 -3.30675,2.47572 -0.10043,0.0895 -0.19899,0.17963 -0.29559,0.27088 -0.0561,0.0532 -0.1115,0.10681 -0.16674,0.16042 -0.0414,0.0406 -0.0851,0.08 -0.1257,0.12097 -0.032,0.0323 -0.0619,0.0659 -0.0936,0.0984 -0.8334004,0.83437 -1.5616104,1.70988 -2.1959114,2.61616 -3.177881,4.4295 -4.557602,9.77832 -4.239815,15.16361 -0.0054,0.19694 -0.0135,0.39797 -0.01683,0.59171 0,16.21279 13.1343854,29.35576 29.3363054,29.35576 16.20181,0 29.33577,-13.14297 29.33577,-29.35576 0,-1.70709 -0.15178,-3.4104 -0.44918,-5.09135 0.0227,0.33769 0.0376,0.67589 0.0479,1.01406 -0.001,-0.0208 -0.003,-0.0412 -0.004,-0.0621 -0.0205,-0.18079 -0.0424,-0.36137 -0.0663,-0.54175 -0.16616,-0.95525 -0.38062,-1.90145 -0.6422,-2.83548 -0.26157,-0.93383 -0.56979,-1.85435 -0.92412,-2.75764 -0.3545,-0.90343 -0.75441,-1.78862 -1.19816,-2.65245 -0.44363,-0.86376 -0.93111,-1.70488 -1.45955,-2.52043 -0.35915,-0.53421 -0.73522,-1.05633 -1.12925,-1.5658 -0.59504,-0.67716 -1.22962,-1.36441 -1.9282,-2.07862 0.54319,1.89463 0.95969,3.49397 1.28021,4.9304 -1.04114,-1.10657 -2.13265,-2.16907 -3.27993,-3.22312 -8.63638,-7.93392 -11.04793,-11.47574 -11.04792,-13.58203 z m 6.11278,41.9616 c -0.31922,0.19981 -0.6445,0.38944 -0.97672,0.56752 z"
     filter="url(#b)"
     opacity="0.1"
     stroke-width="0.085897"
     transform="matrix(1.0256661,0,0,1.0256661,-1.176038,-234.93101)"
     id="path8" /><path
     d="m 41.902497,231.90866 c 0,0 -8.39528,7.25799 -10.01966,15.95782 a 15.448387,15.448387 0 0 0 -8.5985,4.19511 c -0.15353,-0.14598 -0.30296,-0.30086 -0.45338,-0.45338 0.16682,-3.84833 0.1271,-6.42101 -0.10414,-8.65215 -3.35865,2.53028 -4.23,3.16488 -7.03059,5.77932 -0.14791,0.13807 -1.06303,-7.48137 -1.22393,-7.35827 -1.2e-4,8e-5 -4e-4,-8e-5 -5.2e-4,0 -1.24517,0.76132 -2.33835,1.59304 -3.30675,2.47572 -0.10043,0.0895 -0.19899,0.17963 -0.29559,0.27088 -0.0561,0.0532 -0.1115,0.10681 -0.16674,0.16042 -0.0414,0.0406 -0.0851,0.08 -0.1257,0.12097 -0.032,0.0323 -0.0619,0.0659 -0.0936,0.0984 -0.8334004,0.83437 -1.5616104,1.70988 -2.1959114,2.61616 -3.177881,4.4295 -4.557602,9.77832 -4.239815,15.16361 -0.0054,0.19694 -0.0135,0.39797 -0.01683,0.59171 0,16.21279 13.1343854,29.35576 29.3363054,29.35576 16.20181,0 29.33577,-13.14297 29.33577,-29.35576 0,-1.70709 -0.15178,-3.4104 -0.44918,-5.09135 0.0227,0.33769 0.0376,0.67589 0.0479,1.01406 -0.001,-0.0208 -0.003,-0.0412 -0.004,-0.0621 -0.0205,-0.18079 -0.0424,-0.36137 -0.0663,-0.54175 -0.16616,-0.95525 -0.38062,-1.90145 -0.6422,-2.83548 -0.26157,-0.93383 -0.56979,-1.85435 -0.92412,-2.75764 -0.3545,-0.90343 -0.75441,-1.78862 -1.19816,-2.65245 -0.44363,-0.86376 -0.93111,-1.70488 -1.45955,-2.52043 -0.35915,-0.53421 -0.73522,-1.05633 -1.12925,-1.5658 -0.59504,-0.67716 -1.22962,-1.36441 -1.9282,-2.07862 0.54319,1.89463 0.95969,3.49397 1.28021,4.9304 -1.04114,-1.10657 -2.13265,-2.16907 -3.27993,-3.22312 -8.63638,-7.93392 -11.04793,-11.47574 -11.04792,-13.58203 z m 6.11278,41.9616 c -0.31922,0.19981 -0.6445,0.38944 -0.97672,0.56752 z"
     filter="url(#a)"
     opacity="0.1"
     stroke-width="0.085897"
     transform="matrix(1.0256661,0,0,1.0256661,-1.176038,-234.93101)"
     id="path10" /><path
     d="m 41.801933,2.92984 c 0,0 -8.610754,7.44427 -10.276826,16.3674 a 15.844887,15.844887 0 0 0 -8.819189,4.30277 c -0.157471,-0.14972 -0.310736,-0.30858 -0.465017,-0.465 0.171102,-3.94712 0.130362,-6.58582 -0.106813,-8.87422 -3.444853,2.59522 -4.338568,3.24611 -7.211038,5.92765 -0.151706,0.14161 -1.090313,-7.67339 -1.255343,-7.54713 -1.23e-4,8e-5 -4.11e-4,-8e-5 -5.34e-4,0 -1.277129,0.78086 -2.398367,1.63392 -3.391621,2.53926 -0.103008,0.0917 -0.204097,0.18424 -0.3031772,0.27784 -0.05754,0.0546 -0.114362,0.10954 -0.171019,0.16453 -0.04246,0.0417 -0.08729,0.082 -0.128927,0.12408 -0.03282,0.0331 -0.06349,0.0676 -0.096,0.10097 -0.8547901,0.85577 -1.6016904,1.75376 -2.2522715,2.6833 -3.2594449,4.54319 -4.6745779,10.02929 -4.3486345,15.5528 -0.00554,0.202 -0.013847,0.40818 -0.017262,0.6069 0,16.62891 13.4714942,30.1092 30.0892552,30.1092 16.617646,0 30.088704,-13.48029 30.088704,-30.1092 0,-1.75091 -0.155675,-3.49793 -0.460709,-5.22203 0.02329,0.34635 0.03856,0.69323 0.04913,1.04008 -10e-4,-0.0213 -0.0031,-0.0423 -0.0041,-0.0637 -0.02102,-0.18542 -0.04349,-0.37065 -0.068,-0.55565 -0.170424,-0.97976 -0.390389,-1.95025 -0.658683,-2.90825 -0.268284,-0.9578 -0.584414,-1.90195 -0.947839,-2.82842 -0.363598,-0.92662 -0.773772,-1.83453 -1.228911,-2.72053 -0.455017,-0.88593 -0.955008,-1.74864 -1.497012,-2.58513 -0.368367,-0.54792 -0.75409,-1.08343 -1.158233,-1.60598 -0.610312,-0.69454 -1.26118,-1.39943 -1.97769,-2.13197 0.557132,1.94326 0.984322,3.58365 1.313068,5.05695 C 55.429379,19.03139 54.309854,17.94162 53.133129,16.86051 44.275087,8.72295 41.801641,5.09023 41.801652,2.92988 Z m 6.269671,43.03859 c -0.327412,0.20494 -0.661041,0.39944 -1.001788,0.58209 z"
     opacity="0.1"
     stroke-width="0.088101"
     id="path12" /><path
     d="m 41.629971,3.47636 c 0,0 -13.879742,11.99926 -9.521938,23.68183 3.342657,8.9611 11.623622,10.3324 17.966588,15.98447 l 3.484041,-0.73503 c 0,0 6.121292,-14.99792 5.64239,-16.27499 -0.131584,-0.3509 -0.337967,-1.42929 -0.564509,-2.75011 C 56.859608,21.11958 54.903454,19.12938 52.76265,17.16256 44.060011,9.16777 41.629965,5.5988 41.629971,3.47636 Z"
     fill="#ffda64"
     opacity="0.99"
     stroke-width="0.086556"
     id="path14"
     style="fill:#fdc92b" /><circle
     cx="33.710899"
     cy="34.953648"
     fill="#7839b7"
     r="15.566906"
     stroke-width="0.525323"
     id="circle16"
     style="fill-opacity:1;fill:url(#linearGradient1560)" /><path
     d="M 33.710785,19.38648 A 15.566906,15.566906 0 0 0 18.144109,34.95369 15.566906,15.566906 0 0 0 18.155239,35.27274 15.566906,15.566906 0 0 1 33.710785,19.9292 15.566906,15.566906 0 0 1 49.26686,35.17893 15.566906,15.566906 0 0 0 49.27799,34.95369 15.566906,15.566906 0 0 0 33.710783,19.38648 Z"
     fill="#ffffff"
     opacity="0.3"
     stroke-width="0.525323"
     id="path18" /><path
     d="m 3.4681474,34.680129 c 0,16.337166 13.2349156,29.58105 29.5611306,29.58105 16.326115,0 29.56103,-13.243884 29.56103,-29.58105 0,-1.72019 -0.153034,-3.436956 -0.452716,-5.130802 0.03891,0.578606 0.05986,1.158322 0.06185,1.738253 -3e-4,15.039938 -12.18453,27.232024 -27.214349,27.231795 C 19.955676,58.519146 7.771944,46.327193 7.7717445,31.28758 7.7721436,29.664498 8.8753176,28.564594 8.9542137,27.452357 9.1997768,23.990561 12.84456,22.104932 13.987638,19.635545 14.80703,17.865413 14.249606,14.964471 13.989134,13.017446 4.922376,18.561066 3.5881671,27.69433 3.4681474,34.680129 Z"
     fill="#bc1938"
     id="path20"
     style="stroke-width:0.997612;fill:url(#linearGradient2258);fill-opacity:1" /><path
     d="m 41.186988,25.033645 c -0.119155,-0.0018 -0.238296,-0.0012 -0.358281,0.0016 -0.794389,0.01836 -1.60746,0.138428 -2.429528,0.368881 0,0 0.454863,0.418207 0.652962,0.596781 2.439989,1.168212 4.349753,3.110835 5.493466,5.451067 0.962001,1.662953 1.464681,3.507748 1.465986,5.380045 -0.0019,3.611121 -1.86442,7.020012 -5.048795,9.240579 -1.301357,0.962889 -2.808549,1.662191 -4.443004,2.023546 -0.924264,0.237764 -1.874976,0.383864 -2.834977,0.435662 -8.554748,0.706876 -2.18411,1.443316 5.093871,0.461796 5.653219,-0.762404 11.963573,-2.6873 13.259552,-4.31703 2.460021,-10.350664 -3.344528,-19.52801 -10.851252,-19.642916 z"
     fill="#fec589"
     id="path22"
     style="stroke-width:0.271361;fill:url(#linearGradient2323);fill-opacity:1" /><path
     d="m 13.989427,13.017449 c -1.391273,0.956365 -2.817484,1.932167 -3.925192,3.051219 -14.5694091,14.718625 -4.608951,44.40362 24.891524,45.407885 15.070525,1.6e-4 27.286277,-14.527906 27.286071,-29.608539 -5.43e-4,-0.478664 -0.03889,-0.907821 -0.05989,-1.358923 -0.0206,-0.18217 -0.04271,-0.364674 -0.06678,-0.546431 -0.167443,-0.962579 -0.383539,-1.915512 -0.647133,-2.856709 -0.26357,-0.940996 -0.574161,-1.868573 -0.931213,-2.778798 -0.357216,-0.910353 -0.76019,-1.802867 -1.207344,-2.673328 -0.447039,-0.870388 -0.93773,-1.717953 -1.470224,-2.539768 -0.361898,-0.538301 -0.741385,-1.063901 -1.138443,-1.577285 -0.599602,-0.682348 -1.239047,-1.374873 -1.942984,-2.094566 2.011481,7.016105 2.350679,10.094773 2.173006,15.258745 -0.622312,7.193821 -5.836458,14.788347 -13.309931,16.916592 -2.263214,0.797728 -4.744504,1.242323 -7.310842,1.242323 -4.351521,0 -8.608162,-0.607938 -11.520114,-2.733217 -0.46783,-0.341445 -0.903168,-0.716992 -1.308574,-1.120953 a 13.111196,11.7249 0 0 1 -3.6268,-6.957333 c -0.237808,-1.123358 -0.359342,-2.273673 -0.359342,-3.41586 0,-2.845387 0.994648,-5.496927 2.706188,-7.734843 0.367912,-5.987528 0.383685,-9.415638 0.08586,-12.289146 -3.384418,2.549692 -4.262456,3.188628 -7.084531,5.823127 -0.14904,0.139133 -1.071182,-7.538236 -1.233314,-7.414192 z"
     fill="#fb7c38"
     id="path24"
     style="stroke-width:0.271361;fill:url(#linearGradient1675);fill-opacity:1" /><path
     d="m 41.186988,25.033645 c -0.119155,-0.0018 -0.238296,-0.0012 -0.358281,0.0016 -0.794389,0.01836 -1.60746,0.138428 -2.429528,0.368881 0,0 0.262303,0.239905 0.467462,0.427181 0.662715,-0.152959 1.31867,-0.238466 1.962066,-0.253341 6.407651,-0.14816 11.662122,6.306785 11.776104,14.557025 C 52.717735,31.782746 47.569988,25.13136 41.186988,25.033655 Z"
     fill="#ffffff"
     opacity="0.3"
     id="path26"
     style="stroke-width:0.271361" /><path
     d="m 14.855485,20.693011 c 2.195008,-2.238088 4.899565,-4.141349 7.451786,-6.084498 0.129183,1.344071 0.323866,4.31545 0.107507,8.647074 -2.327038,-2.218893 -7.666089,-1.251135 -7.559293,-2.562576 z"
     fill="#f34f17"
     id="path30"
     style="stroke-width:0.997612;fill-opacity:1;fill:url(#linearGradient1671)" /><path
     d="m 40.716869,25.033657 c -0.116938,-0.0018 -0.233862,-0.0012 -0.351614,0.0016 -0.779608,0.0183 -1.577549,0.137911 -2.384322,0.367503 0,0 0.4464,0.416646 0.640812,0.594554 2.394588,1.163849 4.268817,3.099215 5.391247,5.430706 0.944101,1.656742 1.437427,3.494647 1.438708,5.359951 -0.0019,3.597634 -1.829727,6.993791 -4.95485,9.206065 -0.657571,0.493917 -1.369581,0.916871 -2.12373,1.261444 -2.900186,0.897832 -6.054185,1.218174 -8.607792,0.741343 -1.300428,-0.236773 -2.541152,-0.674426 -3.516663,-1.16112 -0.47357,-0.236269 -1.203854,-0.754496 -1.806965,-1.211283 -0.204466,-0.15486 -0.358001,-0.27726 -0.520139,-0.404994 -0.527986,-0.666197 -1.543407,-1.899392 -2.393683,-3.30489 -0.778411,-1.286703 -1.218918,-2.95666 -1.338839,-3.50184 -0.222385,-1.011004 0.117067,-2.235766 0.928969,-3.136453 1.28123,-1.271121 2.532202,-1.61346 4.592833,-2.154857 2.166605,-0.346409 6.032379,-0.71101 6.871046,-2.804323 0.123357,-0.314604 0.108524,-1.079426 -0.163846,-1.071885 -0.01817,5.41e-4 -0.03778,0.0041 -0.05826,0.01213 -0.102538,0.03873 -0.210221,0.07419 -0.322487,0.10666 0.116971,0.223763 0.105366,0.714881 0.01196,0.953081 -0.429409,1.095143 -2.064192,1.216193 -3.134278,1.6737 -1.253184,0.535789 -2.511691,0.441955 -3.82551,0.797841 -0.919996,0.249206 -1.896846,0.519996 -2.742017,0.983758 -0.588322,0.322808 -1.243861,1.039347 -1.762075,1.503883 -0.856274,0.767572 -1.151353,2.125448 -0.928969,3.136452 0.119923,0.545179 2.413919,6.919083 1.33884,3.50184 1.02449,1.234611 1.636184,2.969342 2.934628,3.650744 0.121535,0.09454 0.214462,0.169515 0.353175,0.274572 0.607855,0.460379 1.335442,0.982471 1.849097,1.238742 0.998937,0.498381 2.257869,0.942133 3.585322,1.183823 2.885453,0.446503 4.353983,0.458458 6.951665,-0.252393 0.348223,-0.07815 0.689534,-0.174948 1.025195,-0.284076 1.231558,-0.298963 2.377277,-1.018282 3.335136,-1.731911 3.125123,-2.212274 4.952989,-5.608432 4.95485,-9.206067 -0.0013,-1.865304 -0.494607,-3.703208 -1.438707,-5.35995 -1.122432,-2.331491 -2.99666,-4.266857 -5.391247,-5.430707 -0.194413,-0.177908 -0.640812,-0.594553 -0.640812,-0.594553 0.781248,-0.222327 1.553884,-0.339345 2.30994,-0.363279 -0.03573,-9.73e-4 -0.07082,-0.0053 -0.106628,-0.0058 z m -24.633293,2.262047 c -0.05428,4.06e-4 -0.108556,0.0033 -0.162802,0.0053 1.380974,0.03526 2.756634,0.312613 3.948379,0.550199 1.784699,0.357286 3.450477,1.296489 5.259132,1.537601 1.203129,0.160387 2.596183,0.282107 3.880242,0.267178 -1.129444,-0.019 -2.309893,-0.128842 -3.347619,-0.267178 -1.808654,-0.241112 -3.474434,-1.180315 -5.259133,-1.537601 -1.298207,-0.258819 -2.814393,-0.566487 -4.318199,-0.554951 z"
     fill="#000000"
     opacity="0.2"
     id="path32"
     style="stroke-width:0.997612" /><path
     d="m 18.934264,21.04227 c -0.701128,-0.0188 -1.432162,0.20615 -2.139621,0.22534 -1.472023,0.0366 -2.953149,-0.11613 -4.417202,0.0552 -1.393611,0.16311 -2.8226742,0.34052 -4.1194257,0.92207 -0.7301953,0.32743 -1.8106844,0.5689 -1.9844075,1.41071 -0.4315573,2.09122 1.5757338,4.10144 3.076636,5.48069 0.7901912,0.72615 1.8896082,0.92657 2.8788842,1.24858 0.995805,0.32413 1.99982,0.63443 3.009953,0.92093 0.233625,0.30546 0.513221,0.58393 0.784105,0.85079 0.565462,0.55698 1.219484,1.03523 1.920024,1.40839 0.814059,0.43362 1.971912,0.26663 2.602952,0.93931 l 2.238494,5.13349 c -0.218207,-1.38323 -0.713465,-3.35992 0.27938,-5.17717 0.342156,-0.44399 0.863472,-0.72981 1.364711,-0.98071 0.720069,-0.36043 1.51792,-0.55615 2.305178,-0.72546 1.176352,-0.25297 2.488657,0.0722 3.58366,-0.42655 0.559013,-0.25459 1.365861,-1.23825 1.365861,-1.23825 l 0.09888,-1.03014 c 0,0 -2.839913,-1.47655 -4.168865,-2.38796 -1.48277,-1.0169 -2.815108,-2.2753 -4.218302,-3.41924 -1.259935,-1.02719 -2.272792,-2.57797 -3.772213,-3.09273 -0.225051,-0.0772 -0.45497,-0.111 -0.688676,-0.11727 z"
     fill="none"
     id="path36" /><path
     d="m 18.934264,21.04227 c -0.701128,-0.0188 -1.432162,0.20615 -2.139621,0.22534 -1.472023,0.0366 -2.953149,-0.11613 -4.417202,0.0552 -1.393611,0.16311 -2.8226742,0.34052 -4.1194255,0.92207 -0.7301953,0.32743 -1.8106844,0.5689 -1.9844075,1.41071 -0.4315573,2.09122 1.5757338,4.10144 3.0766358,5.48069 0.7901912,0.72615 1.8896082,0.92657 2.8788842,1.24858 0.995805,0.32413 1.99982,0.63443 3.009953,0.92093 0.233625,0.30546 0.513221,0.58393 0.784105,0.85079 0.565462,0.55698 1.219484,1.03523 1.920024,1.40839 0.814059,0.43362 1.971912,0.26663 2.602952,0.93931 l 2.238494,5.13349 c -0.218207,-1.38323 -0.713465,-3.35992 0.27938,-5.17717 0.342156,-0.44399 0.863472,-0.72981 1.364711,-0.98071 0.720069,-0.36043 1.51792,-0.55615 2.305178,-0.72546 1.176352,-0.25297 2.488657,0.0722 3.58366,-0.42655 0.559013,-0.25459 1.365861,-1.23825 1.365861,-1.23825 l 0.09888,-1.03014 c 0,0 -2.839913,-1.47655 -4.168865,-2.38796 -1.48277,-1.0169 -2.815108,-2.2753 -4.218302,-3.41924 -1.259935,-1.02719 -2.272792,-2.57797 -3.772213,-3.09273 -0.225051,-0.0772 -0.45497,-0.111 -0.688676,-0.11727 z"
     fill="none"
     id="path38" /><path
     d="m 15.213504,21.06055 c 2.72242,-0.49901 5.650826,-0.39221 7.778794,0.95678 0.582117,0.38189 1.372728,1.33113 1.455924,1.49753 0.08319,0.16638 3.03664,2.53746 3.03664,2.53746 l 3.244631,1.9967 1.830305,0.87355 v 0.45758 c 0,0 -8.194772,1.49752 -8.777141,1.45592 -0.582371,-0.0417 -4.534164,2.16309 -4.534164,2.16309 l -0.37438,4.45096 1.123141,3.57742 L 7.4763096,46.80963 5.8955921,43.565 c 0,0 -2.3512376,-4.87213 -2.419744,-9.70971 -0.068507,-4.83757 0.6049166,-9.37248 3.2932983,-13.50188 1.8209054,-2.85293 2.1080906,-4.19851 7.2199876,-7.33596 0.347908,2.69015 0.794012,5.36534 1.22437,8.0431 z"
     fill="#fb7c38"
     id="path40"
     style="fill:url(#linearGradient1673);fill-opacity:1" /><path
     d="m 54.805167,15.58988 c 0.459674,1.60336 0.825143,2.98904 1.123073,4.25166 0.0553,0.0583 0.111939,0.11538 0.166952,0.17385 -0.277887,-1.24533 -0.633009,-2.62531 -1.073784,-4.19867 -0.07383,-0.0763 -0.140968,-0.14988 -0.216241,-0.22684 z m -32.269672,2.98549 c 8.69e-4,0.32719 0.003,0.64784 -5.42e-4,0.99748 -0.004,0.55475 -0.01207,1.13376 -0.03122,1.75747 0.003,0.002 0.0059,0.004 0.0099,0.005 0.009,-0.41534 0.01916,-0.83494 0.02174,-1.22006 0.0059,-0.5404 0.0059,-1.05186 5.43e-4,-1.5402 z M 62.16477,29.69693 c 0.0019,0.0284 0.0019,0.0569 0.0037,0.0853 0.0137,0.11063 0.02829,0.22116 0.04082,0.33179 -0.0022,-0.0687 -0.007,-0.13743 -0.0095,-0.20618 -0.01191,-0.0702 -0.02256,-0.14071 -0.03498,-0.21093 z M 3.4718639,32.41425 c -0.00599,0.5305 0.00399,1.06243 0.030726,1.59477 0.00399,-0.10821 0.00698,-0.21568 0.00998,-0.3233 -0.02504,-0.42423 -0.036313,-0.84817 -0.040304,-1.27147 z M 62.614209,34.54539 C 62.474325,50.76252 49.29575,63.86613 33.056551,63.86613 c -16.203522,0 -29.3597556,-13.04599 -29.5565944,-29.21368 -0.002,0.0585 -0.00399,0.11798 -0.00499,0.17543 h 5.288e-4 c 0,16.33716 13.2351556,29.58097 29.5613636,29.58097 16.32612,0 29.560839,-13.24381 29.560839,-29.58097 0,-0.0941 -0.0022,-0.18835 -0.0032,-0.28249 z"
     opacity="0.2"
     id="path42"
     style="fill:#da1636" /><path
     d="m 41.629009,3.47636 c 0,0 -8.450541,7.31358 -10.088049,16.07919 a 15.566906,15.566906 0 0 1 0.11342,-0.0138 c 1.879627,-8.51633 9.974629,-15.52268 9.974629,-15.52268 -3e-6,2.12243 2.430041,5.69143 11.132683,13.68623 1.156081,1.06212 2.256379,2.1328 3.30562,3.24784 C 56.015582,20.72129 55.957186,20.47742 55.90036,20.23658 54.901046,19.18433 53.857159,18.16901 52.761692,17.16257 44.05905,9.16778 41.629006,5.59878 41.629009,3.47634 Z m -27.641172,9.54109 c -0.0099,0.006 -0.01798,0.0121 -0.02756,0.018 -4.2988792,2.64236 -5.173859,4.02101 -6.4395191,6.1035 -0.4241345,0.61453 -0.8130787,1.24619 -1.1702434,1.8921 -1.2061826,2.03542 -1.9483619,4.16642 -2.3765269,6.38016 -0.00299,0.0149 -0.00602,0.0301 -0.00901,0.0451 -0.018555,0.097 -0.038822,0.19362 -0.05618,0.29096 -0.3285235,1.65851 -0.4803429,3.35487 -0.4642812,5.06205 0.018057,-1.52383 0.1705944,-3.03669 0.4642812,-4.51933 0.017359,-0.0974 0.037625,-0.19395 0.05618,-0.29096 0.00299,-0.015 0.00602,-0.0301 0.00901,-0.0451 0.428165,-2.21375 1.1703443,-4.34474 2.3765269,-6.38016 0.3571647,-0.64591 0.7460989,-1.27757 1.1702434,-1.8921 1.2656501,-2.08247 2.1406399,-3.46114 6.4395191,-6.1035 0.0099,-0.006 0.01768,-0.0121 0.02756,-0.018 h 5.3e-4 5.3e-4 c 0.151997,-0.11629 0.972032,6.62435 1.196743,7.35271 2.133524,-2.09826 4.693762,-3.91357 7.121101,-5.76164 0.118138,1.13981 0.184691,2.37567 0.200871,3.81919 -0.005,-1.67345 -0.06863,-3.08599 -0.200871,-4.36191 -2.427339,1.84807 -4.987568,3.66338 -7.121101,5.76164 -0.224711,-0.72837 -1.044746,-7.469 -1.196743,-7.35271 h -5.3e-4 z m 40.78945,2.42476 c 0.07643,0.26656 0.144711,0.51423 0.216242,0.76956 0.616596,0.63772 1.191257,1.25833 1.726745,1.86773 0.397058,0.51337 0.776545,1.03898 1.138443,1.57727 0.532493,0.82183 1.023185,1.66939 1.470224,2.53978 0.447153,0.87046 0.850127,1.76296 1.207344,2.67333 0.357051,0.91021 0.667642,1.83779 0.931213,2.77879 0.263594,0.94119 0.479689,1.89414 0.647133,2.85671 0.02407,0.18176 0.04616,0.36427 0.06678,0.54644 -0.0092,-0.2917 -0.02245,-0.58325 -0.04081,-0.87451 -0.0089,-0.0716 -0.01653,-0.14327 -0.02597,-0.21465 -0.167444,-0.96258 -0.383539,-1.91552 -0.647133,-2.85671 -0.263571,-0.941 -0.574162,-1.86857 -0.931213,-2.77879 -0.357217,-0.91036 -0.760191,-1.80288 -1.207344,-2.67334 -0.447039,-0.87038 -0.937731,-1.71794 -1.470224,-2.53977 -0.361898,-0.53829 -0.741385,-1.0639 -1.138443,-1.57728 -0.599602,-0.68236 -1.23905,-1.37487 -1.942987,-2.09456 z m -32.291935,6.28846 c -0.004,0.18295 -0.0036,0.34671 -0.0095,0.53743 0.176,0.0907 0.34902,0.18638 0.515692,0.29202 0.202767,0.13303 0.429833,0.33595 0.644481,0.54961 a 15.566906,15.566906 0 0 1 0.282491,-0.24856 C 23.635168,22.55111 23.287459,22.21153 22.991544,22.0174 22.827945,21.9137 22.658049,21.81989 22.485392,21.73067 Z m 39.651538,7.81859 c 0.01689,0.25096 0.02559,0.50232 0.03498,0.75366 0.259285,1.52928 0.398838,3.07649 0.414462,4.62744 8.12e-4,-0.0835 0.0032,-0.16654 0.0032,-0.25015 0,-1.72019 -0.152939,-3.4371 -0.452622,-5.13095 z M 3.4747259,34.40407 c -0.00299,0.0924 -0.00596,0.18572 -0.00795,0.27614 h 5.3e-4 c 0,0.12275 0.00331,0.24489 0.0053,0.36728 0.00399,-0.14119 0.00899,-0.28287 0.01219,-0.42399 -0.00399,-0.0731 -0.00608,-0.14627 -0.010066,-0.21943 z"
     fill="#ffffff"
     opacity="0.3"
     id="path44" /><path
     d="M 17.5594,33.77765 C 16.344335,33.01154 16.188097,33.2612 14.340942,32.41002 12.5524,31.58213 11.776008,31.50375 11.430774,30.0001 c -0.246059,-1.39528 0.684294,-2.1745 1.735158,-2.59007 2.291165,-0.84704 4.977218,-0.30544 7.093732,0.11022 1.818536,0.35863 3.51563,1.30101 5.358578,1.54302 2.256399,0.29631 5.184218,0.47949 6.826058,-0.13122 0.33386,-0.12417 0.360546,0.72695 0.226471,1.06379 -0.437551,1.09925 -1.832252,1.55486 -2.922626,2.01408 -1.276943,0.5378 -2.740138,0.44345 -4.07887,0.80068 -0.93744,0.25013 -1.977842,0.38811 -2.839037,0.85361 -0.599477,0.32402 -1.313038,0.84282 -1.841076,1.30909 -0.872511,0.77044 -1.161964,2.11399 -1.057555,3.14852 0.100014,0.99093 0.593412,2.48979 1.386582,3.78132 1.316107,2.14304 3.061366,3.99739 2.733122,3.74858 -1.637189,-1.24097 -1.41379,-0.85472 -3.275862,-3.13557 -1.532064,-1.87661 -2.202751,-4.28228 -2.36645,-4.89276"
     fill="#fec589"
     id="path46"
     style="fill:url(#linearGradient2315);fill-opacity:1" /></svg>
