<?xml version="1.0" encoding="UTF-8" standalone="no"?>
<svg
   height="256"
   width="256"
   version="1.1"
   id="svg11341"
   sodipodi:docname="inkscape.svg"
   xml:space="preserve"
   inkscape:version="1.2 (dc2aedaf03, 2022-05-15)"
   xmlns:inkscape="http://www.inkscape.org/namespaces/inkscape"
   xmlns:sodipodi="http://sodipodi.sourceforge.net/DTD/sodipodi-0.dtd"
   xmlns:xlink="http://www.w3.org/1999/xlink"
   xmlns="http://www.w3.org/2000/svg"
   xmlns:svg="http://www.w3.org/2000/svg"><defs
     id="defs11345"><clipPath
       clipPathUnits="userSpaceOnUse"
       id="clipPath994"><path
         style="color:#000000;display:inline;overflow:visible;visibility:visible;fill:#cdcdcd;fill-opacity:1;fill-rule:nonzero;stroke:none;stroke-width:2;stroke-miterlimit:4;stroke-dasharray:none;stroke-opacity:1;marker:none;enable-background:accumulate"
         d="m 335.73108,62 c -8.82418,0 -9.77365,0.90635 -9.7304,9.74838 V 84 96.25162 c -0.0433,8.84203 0.90622,9.74838 9.7304,9.74838 h 16.53919 c 8.82418,0 9.7304,-0.90625 9.7304,-9.74838 V 84 71.74838 C 362.00067,62.90625 361.09445,62 352.27027,62 Z"
         id="path996"
         inkscape:connector-curvature="0"
         sodipodi:nodetypes="scccssscsss" /></clipPath><clipPath
       clipPathUnits="userSpaceOnUse"
       id="clipPath971"><path
         style="color:#000000;display:inline;overflow:visible;visibility:visible;opacity:1;fill:#46a926;fill-opacity:1;fill-rule:nonzero;stroke:none;stroke-width:2;stroke-miterlimit:4;stroke-dasharray:none;stroke-opacity:1;marker:none;enable-background:accumulate"
         d="m 327.8652,189 c -4.41209,0 -4.88682,0.45318 -4.8652,4.87419 V 200 206.12581 C 322.9783,210.54682 323.45311,211 327.8652,211 h 8.2696 C 340.54689,211 341,210.54688 341,206.12581 V 200 193.87419 C 341,189.45313 340.54688,189 336.13479,189 Z"
         id="path973"
         inkscape:connector-curvature="0"
         sodipodi:nodetypes="scccssscsss" /></clipPath><clipPath
       clipPathUnits="userSpaceOnUse"
       id="clipPath983"><path
         sodipodi:nodetypes="scccssscsss"
         inkscape:connector-curvature="0"
         id="path985"
         d="m 325.09646,237 c -2.80769,0 -3.10979,0.28839 -3.09603,3.10176 V 244 v 3.89824 c -0.0138,2.81337 0.28834,3.10176 3.09603,3.10176 h 5.8075 C 333.71166,251 334,250.71165 334,247.89824 V 244 240.10176 C 334,237.28836 333.71165,237 330.90396,237 Z"
         style="color:#000000;display:inline;overflow:visible;visibility:visible;opacity:1;fill:#46a926;fill-opacity:1;fill-rule:nonzero;stroke:none;stroke-width:2;stroke-miterlimit:4;stroke-dasharray:none;stroke-opacity:1;marker:none;enable-background:accumulate" /></clipPath><clipPath
       clipPathUnits="userSpaceOnUse"
       id="clipPath994-1"><path
         style="color:#000000;display:inline;overflow:visible;visibility:visible;fill:#cdcdcd;fill-opacity:1;fill-rule:nonzero;stroke:none;stroke-width:2;stroke-miterlimit:4;stroke-dasharray:none;stroke-opacity:1;marker:none;enable-background:accumulate"
         d="m 335.73108,62 c -8.82418,0 -9.77365,0.90635 -9.7304,9.74838 V 84 96.25162 c -0.0433,8.84203 0.90622,9.74838 9.7304,9.74838 h 16.53919 c 8.82418,0 9.7304,-0.90625 9.7304,-9.74838 V 84 71.74838 C 362.00067,62.90625 361.09445,62 352.27027,62 Z"
         id="path996-8"
         inkscape:connector-curvature="0"
         sodipodi:nodetypes="scccssscsss" /></clipPath></defs><sodipodi:namedview
     id="namedview11343"
     pagecolor="#ffffff"
     bordercolor="#000000"
     borderopacity="0.25"
     inkscape:showpageshadow="2"
     inkscape:pageopacity="0.0"
     inkscape:pagecheckerboard="0"
     inkscape:deskcolor="#d1d1d1"
     showgrid="false"
     inkscape:zoom="1.8476562"
     inkscape:cx="112.57505"
     inkscape:cy="142.34249"
     inkscape:window-width="1366"
     inkscape:window-height="704"
     inkscape:window-x="0"
     inkscape:window-y="0"
     inkscape:window-maximized="1"
     inkscape:current-layer="svg11341" /><linearGradient
     id="a"><stop
       offset="0"
       stop-color="#505050"
       id="stop11306" /><stop
       offset=".339"
       stop-color="#2b2b2b"
       id="stop11308" /><stop
       offset=".705"
       stop-color="#0a0a0a"
       id="stop11310" /><stop
       offset="1"
       id="stop11312" /></linearGradient><radialGradient
     id="b"
     cx="30.369"
     cy="306.191"
     gradientTransform="matrix(0.02078412,17.59949,-18.958537,0.02238964,5928.0659,-607.56844)"
     gradientUnits="userSpaceOnUse"
     r="30"
     xlink:href="#a" /><filter
     id="c"
     color-interpolation-filters="sRGB"
     height="1.024172"
     width="1.023854"
     x="-0.011927017"
     y="-0.012085978"><feGaussianBlur
       stdDeviation=".607"
       id="feGaussianBlur11316" /></filter><filter
     id="d"
     color-interpolation-filters="sRGB"
     height="1.096648"
     width="1.0953768"
     x="-0.04768842"
     y="-0.048324002"><feGaussianBlur
       stdDeviation="2.427"
       id="feGaussianBlur11319" /></filter><linearGradient
     id="e"
     gradientUnits="userSpaceOnUse"
     x1="79.354016"
     x2="213.146016"
     xlink:href="#a"
     y1="326.426693"
     y2="326.426693" /><path
     d="m 134.98364,270.2971 -45.089315,46.13985 c -15.234503,18.8661 10.367805,16.67104 21.343085,22.10498 3.93701,4.02427 -15.090191,6.99464 -11.15316,11.02227 3.937,4.02427 23.80662,7.75318 27.75035,11.77747 3.937,4.02426 -8.05862,8.29357 -4.12161,12.31782 3.93701,4.02428 13.04281,0.21146 14.74784,9.50184 1.215,6.63889 16.40923,2.85291 23.84021,-2.58438 3.937,-4.02764 -7.53167,-3.64837 -3.59467,-7.67264 9.79049,-10.012 18.90636,-3.63829 22.25602,-13.67043 1.65467,-4.95735 -14.41221,-7.64244 -10.46849,-11.66669 11.32771,-6.61539 50.47962,-10.9216 31.90219,-29.49903 L 155.65881,270.2971 c -5.71588,-5.48763 -15.25465,-5.54805 -20.67517,0 z m 51.79195,88.93678 c 0,2.28903 16.8657,3.78931 16.8657,-0.54038 -2.40316,-6.95437 -14.87203,-6.48449 -16.8657,0.54038 z m -75.9745,12.16341 c 3.99406,3.45371 10.16305,-0.85923 12.01239,-5.67894 -3.86987,-5.14195 -18.35591,0.18475 -12.01239,5.67894 z m 73.86,-7.46116 c -5.14865,4.61835 0.57728,9.30382 5.6521,6.32001 1.13109,-1.14787 -0.0302,-5.17212 -5.6521,-6.32001 z"
     fill="url(#e)"
     filter="url(#d)"
     opacity="0.3"
     id="path11323"
     style="fill:url(#e)"
     transform="matrix(1.8666667,0,0,1.8666667,-143.12768,-482.70284)" /><path
     d="m 134.98364,270.2971 -45.089315,46.13985 c -15.234503,18.8661 10.367805,16.67104 21.343085,22.10498 3.93701,4.02427 -15.090191,6.99464 -11.15316,11.02227 3.937,4.02427 23.80662,7.75318 27.75035,11.77747 3.937,4.02426 -8.05862,8.29357 -4.12161,12.31782 3.93701,4.02428 13.04281,0.21146 14.74784,9.50184 1.215,6.63889 16.40923,2.85291 23.84021,-2.58438 3.937,-4.02764 -7.53167,-3.64837 -3.59467,-7.67264 9.79049,-10.012 18.90636,-3.63829 22.25602,-13.67043 1.65467,-4.95735 -14.41221,-7.64244 -10.46849,-11.66669 11.32771,-6.61539 50.47962,-10.9216 31.90219,-29.49903 L 155.65881,270.2971 c -5.71588,-5.48763 -15.25465,-5.54805 -20.67517,0 z m 51.79195,88.93678 c 0,2.28903 16.8657,3.78931 16.8657,-0.54038 -2.40316,-6.95437 -14.87203,-6.48449 -16.8657,0.54038 z m -75.9745,12.16341 c 3.99406,3.45371 10.16305,-0.85923 12.01239,-5.67894 -3.86987,-5.14195 -18.35591,0.18475 -12.01239,5.67894 z m 73.86,-7.46116 c -5.14865,4.61835 0.57728,9.30382 5.6521,6.32001 1.13109,-1.14787 -0.0302,-5.17212 -5.6521,-6.32001 z"
     filter="url(#c)"
     opacity="0.1"
     id="path11325"
     transform="matrix(1.8666667,0,0,1.8666667,-143.12768,-482.70284)" /><path
     d="M 108.84179,21.851756 24.675061,107.97948 c -28.4377393,35.21672 19.353238,31.11927 39.840428,41.26263 7.349086,7.51197 -28.168359,13.05666 -20.819232,20.5749 7.349066,7.51197 44.439024,14.4726 51.800654,21.98461 7.349069,7.51195 -15.042758,15.48133 -7.693672,22.99327 7.349085,7.51199 24.346581,0.39472 27.529301,17.73677 2.268,12.39259 30.63056,5.32543 44.50173,-4.82418 7.34906,-7.51826 -14.05912,-6.81029 -6.71005,-14.32226 18.27558,-18.68907 35.29187,-6.79148 41.54457,-25.51814 3.08871,-9.25372 -26.9028,-14.26589 -19.54118,-21.77782 21.14505,-12.34873 94.22862,-20.38699 59.55075,-55.06486 L 147.43544,21.851756 c -10.66965,-10.243577 -28.47535,-10.356361 -38.59365,0 z m 96.6783,166.015324 c 0,4.27286 31.48264,7.07338 31.48264,-1.00871 -4.48589,-12.98149 -27.76112,-12.10438 -31.48264,1.00871 z M 63.701025,210.57211 c 7.455579,6.44693 18.971027,-1.60389 22.423128,-10.60068 -7.223757,-9.59831 -34.264366,0.34486 -22.423128,10.60068 z m 137.872005,-13.9275 c -9.61082,8.62092 1.07759,17.36714 10.55058,11.79736 2.11137,-2.14269 -0.0564,-9.65463 -10.55058,-11.79736 z"
     opacity="0.1"
     id="path11327"
     style="stroke-width:1.86667" /><path
     d="M 109.21075,23.689937 26.520623,108.30665 c -27.9388333,34.59887 19.013703,30.57331 39.141485,40.53872 7.220155,7.38018 -27.674189,12.8276 -20.454001,20.21394 7.220136,7.38019 43.659412,14.2187 50.891887,21.59892 7.220136,7.38015 -14.778849,15.20972 -7.558694,22.58986 7.220155,7.38021 23.91945,0.3878 27.04632,17.42562 2.22822,12.17516 30.09319,5.23198 43.72099,-4.73955 7.22014,-7.38636 -13.81245,-6.69082 -6.59232,-14.071 17.95497,-18.36119 34.67272,-6.67233 40.81572,-25.07046 3.03452,-9.09135 -26.43081,-14.0156 -19.19835,-21.39575 20.77409,-12.13208 92.57548,-20.02931 58.506,-54.0988 L 147.12731,23.689937 c -10.48246,-10.063872 -27.97577,-10.174677 -37.91656,0 z m 94.9822,163.102763 c 0,4.19791 30.93031,6.9493 30.93031,-0.99101 -4.4072,-12.75374 -27.27409,-11.89201 -30.93031,0.99101 z M 64.861924,209.09941 c 7.324781,6.33382 18.6382,-1.57575 22.029747,-10.41472 -7.09703,-9.42991 -33.663243,0.33882 -22.029747,10.41472 z M 200.31512,195.41625 c -9.4422,8.46969 1.0587,17.06244 10.36549,11.59038 2.07433,-2.1051 -0.0554,-9.48524 -10.36549,-11.59038 z"
     fill="url(#b)"
     id="path11329"
     style="fill:#4d4d4d;stroke-width:1.86667;fill-opacity:1" /><path
     d="m 87.421505,155.3986 c 2.209742,1.37258 35.632935,8.16189 43.800995,9.51606 2.83144,0.59705 0.82483,3.51467 -3.07763,5.48434 -8.80206,2.33901 -51.495114,-15.0004 -40.723365,-15.0004 z"
     fill="#ffffff"
     id="path11331"
     style="stroke-width:1.86667" /><path
     d="m 140.12919,31.597305 32.71535,33.226238 c 3.10227,3.169992 3.05919,9.312968 1.32339,11.079526 L 157.92414,62.909239 154.72953,82.15069 141.15715,74.985919 119.42284,88.71837 112.2273,59.770066 100.55072,79.971674 H 82.700407 c -7.275558,0 -8.131144,-9.232888 -1.520363,-15.843651 11.547331,-12.46448 24.799656,-25.168976 32.001336,-32.530718 7.23861,-7.398627 19.85078,-7.189373 26.94781,0 z"
     fill="#ffffff"
     id="path11333"
     style="stroke-width:1.86667" /><path
     d="m 17.916042,125.01425 c -1.414039,16.83463 31.695215,15.88513 47.746084,23.83203 0.350803,0.35857 0.57471,0.71064 0.736344,1.06055 0.445742,-0.98883 0.297454,-2.00385 -0.736344,-3.06055 -15.386224,-7.61783 -46.445644,-7.06252 -47.746084,-21.83203 z m 223.908198,1.78711 c -1.54129,19.88315 -50.86013,26.88371 -67.49023,36.5957 -1.1483,1.17174 -1.36632,2.28103 -0.94142,3.35546 0.18238,-0.44294 0.49017,-0.89501 0.94142,-1.35546 17.17615,-10.0309 69.22939,-17.16833 67.49023,-38.5957 z M 44.472678,165.99667 c -0.445741,0.98945 -0.297472,2.0049 0.736325,3.06249 7.220136,7.38019 43.658142,14.21939 50.890636,21.59961 0.733507,0.74977 1.154048,1.50362 1.345699,2.26173 0.341488,-1.43248 0.02987,-2.85564 -1.345699,-4.26173 -7.232494,-7.38022 -43.6705,-14.21942 -50.890636,-21.59961 -0.351045,-0.35911 -0.574709,-0.7121 -0.736325,-1.06249 z M 193.60744,184.4576 c -0.0278,0.11237 -0.0383,0.22232 -0.0762,0.33594 -6.143,18.39813 -22.8595,6.70914 -40.81446,25.07032 -1.55279,1.58721 -1.79357,2.79989 -1.29493,3.80078 0.23367,-0.54408 0.64673,-1.13822 1.29493,-1.80079 17.95496,-18.36117 34.67146,-6.67218 40.81446,-25.07031 0.27052,-0.81047 0.2732,-1.587 0.0762,-2.33594 z m 41.2129,0.59571 c -2.91353,5.91636 -26.84761,4.03005 -30.22266,0.55664 -0.15269,0.3829 -0.28881,0.77664 -0.4043,1.18359 0,4.19791 30.9297,6.94811 30.9297,-0.99219 -0.0892,-0.25831 -0.19865,-0.50088 -0.30274,-0.74804 z M 86.306657,198.01034 c -3.950053,8.27253 -14.489608,15.10451 -21.445312,9.08985 -1.643059,-1.42307 -2.501632,-2.83773 -2.7832,-4.19532 -0.422539,1.93105 0.312779,4.05564 2.7832,6.19532 7.324782,6.33381 18.639712,-1.57511 22.031259,-10.41406 -0.180507,-0.23977 -0.381267,-0.46054 -0.585947,-0.67579 z m 110.398443,3.17578 c -0.98333,5.94379 6.84047,10.01495 13.97461,5.82031 0.64023,-0.64972 0.87726,-1.80194 0.59961,-3.14648 -0.11592,0.46154 -0.31436,0.85701 -0.59961,1.14649 -6.29826,3.70315 -13.13364,0.96195 -13.97461,-3.82032 z M 87.1973,208.9869 c -0.341675,1.43265 -0.03211,2.8555 1.343739,4.26173 7.220155,7.38019 23.920011,0.38795 27.046881,17.42577 2.22822,12.17516 30.09289,5.23129 43.72069,-4.74024 1.55275,-1.58849 1.79353,-2.8011 1.29493,-3.80273 -0.23365,0.54458 -0.64665,1.13954 -1.29493,1.80273 -13.6278,9.97153 -41.49247,16.9154 -43.72069,4.74025 -3.12687,-17.03783 -19.826726,-10.04558 -27.046881,-17.42578 -0.733414,-0.74967 -1.15207,-1.50373 -1.343739,-2.26173 z"
     opacity="0.2"
     id="path11335"
     style="stroke-width:1.86667" /><path
     d="m 127.96601,16.099622 c -6.92623,-0.01307 -13.78548,2.50251 -18.75587,7.589848 l -82.689517,84.61718 c -6.581641,8.15057 -9.004281,14.15553 -8.603521,18.70704 0.359171,-4.27599 2.944462,-9.69898 8.603521,-16.70704 L 109.21014,25.689473 c 9.9408,-10.174677 27.43555,-10.063891 37.91801,0 l 85.71102,87.609367 c 5.90063,5.90063 8.62204,11.01349 8.98634,15.50196 0.38407,-4.95464 -2.19016,-10.70578 -8.98634,-17.50196 L 147.12815,23.68947 c -5.24123,-5.031936 -12.23587,-7.575997 -19.16214,-7.589848 z M 66.399553,151.90627 c -2.515371,5.58161 -24.614343,10.26508 -21.927752,16.08985 2.516061,-5.58516 24.61536,-10.26953 21.927752,-16.08985 z m 106.994257,16.8457 c -2.48013,6.02474 18.34646,10.57873 20.21486,17.70899 1.85815,-7.45104 -17.99661,-12.09981 -20.21486,-17.70899 z m 47.24418,7.92579 c -7.13788,-0.18032 -14.50296,3.27113 -16.44532,10.11522 0,0.27967 0.14616,0.55233 0.40234,0.81641 4.57981,-11.49591 25.35318,-12.12772 30.2266,-0.55664 0.18945,-0.38478 0.30272,-0.79944 0.30272,-1.25196 -2.06588,-5.97831 -8.18821,-8.96388 -14.48634,-9.12303 z M 77.567521,194.86329 c -7.790627,-0.0722 -16.6446,4.49191 -15.488293,10.04493 1.51144,-6.93349 18.089904,-11.3527 24.226589,-4.89843 0.209664,-0.43908 0.414998,-0.88068 0.585947,-1.32618 -1.996045,-2.65216 -5.531083,-3.78515 -9.324243,-3.82032 z m 19.876977,0.0566 c -1.269296,5.32228 -11.583395,10.78418 -10.248057,16.0664 1.268811,-5.32254 11.583881,-10.78392 10.248057,-16.0664 z m 102.871222,0.49609 c -3.05322,2.73873 -4.01203,5.48671 -3.60939,7.77147 0.299,-1.81065 1.40435,-3.79355 3.60939,-5.77147 7.1245,1.45469 10.33877,5.42625 10.96289,8.4375 0.72218,-2.89654 -2.07611,-8.62297 -10.96289,-10.4375 z m -48.89459,20.24814 c -1.80914,4.2129 7.5719,5.2291 9.1836,8.46679 1.80877,-4.21626 -7.57192,-5.23157 -9.1836,-8.46679 z"
     fill="#fffafa"
     opacity="0.3"
     id="path11337"
     style="stroke-width:1.86667" /></svg>
