<?xml version="1.0" encoding="UTF-8" standalone="no"?>
<svg
   height="256"
   width="256"
   version="1.1"
   id="svg491"
   sodipodi:docname="io.bassi.Amberol.svg"
   inkscape:version="1.2 (dc2aedaf03, 2022-05-15)"
   xml:space="preserve"
   xmlns:inkscape="http://www.inkscape.org/namespaces/inkscape"
   xmlns:sodipodi="http://sodipodi.sourceforge.net/DTD/sodipodi-0.dtd"
   xmlns:xlink="http://www.w3.org/1999/xlink"
   xmlns="http://www.w3.org/2000/svg"
   xmlns:svg="http://www.w3.org/2000/svg"><defs
     id="defs495"><linearGradient
       id="linearGradient15927"><stop
         offset="0"
         stop-color="#fed965"
         id="stop15923"
         style="stop-color:#c5c9f5;stop-opacity:1;" /><stop
         offset="1"
         stop-color="#fed965"
         stop-opacity="0"
         id="stop15925"
         style="stop-color:#c5c9f5;stop-opacity:0;" /></linearGradient><linearGradient
       id="linearGradient15921"><stop
         offset="0"
         stop-color="#fed965"
         id="stop15917"
         style="stop-color:#c5c9f5;stop-opacity:1;" /><stop
         offset="1"
         stop-color="#fed965"
         stop-opacity="0"
         id="stop15919"
         style="stop-color:#c5c9f5;stop-opacity:0;" /></linearGradient><linearGradient
       id="linearGradient15915"><stop
         offset="0"
         stop-color="#fed965"
         id="stop15911"
         style="stop-color:#c5c9f5;stop-opacity:1;" /><stop
         offset="1"
         stop-color="#fed965"
         stop-opacity="0"
         id="stop15913"
         style="stop-color:#c5c9f5;stop-opacity:0;" /></linearGradient><linearGradient
       id="linearGradient15909"><stop
         offset="0"
         stop-color="#fed965"
         id="stop15905"
         style="stop-color:#c5c9f5;stop-opacity:1;" /><stop
         offset="1"
         stop-color="#fed965"
         stop-opacity="0"
         id="stop15907"
         style="stop-color:#c5c9f5;stop-opacity:0;" /></linearGradient><linearGradient
       id="linearGradient15903"><stop
         offset="0"
         stop-color="#fed965"
         id="stop15899"
         style="stop-color:#c5c9f5;stop-opacity:1;" /><stop
         offset="1"
         stop-color="#fed965"
         stop-opacity="0"
         id="stop15901"
         style="stop-color:#c5c9f5;stop-opacity:0;" /></linearGradient><linearGradient
       id="linearGradient15897"><stop
         offset="0"
         stop-color="#fed965"
         id="stop15893"
         style="stop-color:#c5c9f5;stop-opacity:1;" /><stop
         offset="1"
         stop-color="#fed965"
         stop-opacity="0"
         id="stop15895"
         style="stop-color:#c5c9f5;stop-opacity:0;" /></linearGradient><linearGradient
       id="linearGradient15891"><stop
         offset="0"
         stop-color="#fed965"
         id="stop15887"
         style="stop-color:#c5c9f5;stop-opacity:1;" /><stop
         offset="1"
         stop-color="#fed965"
         stop-opacity="0"
         id="stop15889"
         style="stop-color:#c5c9f5;stop-opacity:0;" /></linearGradient><linearGradient
       id="linearGradient15885"><stop
         offset="0"
         stop-color="#fed965"
         id="stop15881"
         style="stop-color:#c5c9f5;stop-opacity:1;" /><stop
         offset="1"
         stop-color="#fed965"
         stop-opacity="0"
         id="stop15883"
         style="stop-color:#c5c9f5;stop-opacity:0;" /></linearGradient><linearGradient
       id="linearGradient15879"><stop
         offset="0"
         stop-color="#fed965"
         id="stop15875"
         style="stop-color:#c5c9f5;stop-opacity:1;" /><stop
         offset="1"
         stop-color="#fed965"
         stop-opacity="0"
         id="stop15877"
         style="stop-color:#c5c9f5;stop-opacity:0;" /></linearGradient><linearGradient
       id="linearGradient15873"><stop
         offset="0"
         stop-color="#fed965"
         id="stop15869"
         style="stop-color:#c5c9f5;stop-opacity:1;" /><stop
         offset="1"
         stop-color="#fed965"
         stop-opacity="0"
         id="stop15871"
         style="stop-color:#c5c9f5;stop-opacity:0;" /></linearGradient><linearGradient
       id="linearGradient15867"><stop
         offset="0"
         stop-color="#fed965"
         id="stop15863"
         style="stop-color:#c5c9f5;stop-opacity:1;" /><stop
         offset="1"
         stop-color="#fed965"
         stop-opacity="0"
         id="stop15865"
         style="stop-color:#c5c9f5;stop-opacity:0;" /></linearGradient><linearGradient
       id="linearGradient13747"><stop
         offset="0"
         stop-color="#ff9169"
         id="stop13743"
         style="stop-color:#a2bcfe;stop-opacity:1;" /><stop
         offset="1"
         stop-color="#f09778"
         stop-opacity="0"
         id="stop13745"
         style="stop-color:#a2bcfe;stop-opacity:0;" /></linearGradient><linearGradient
       id="linearGradient13741"><stop
         offset="0"
         stop-color="#ff9169"
         id="stop13737"
         style="stop-color:#a2bcfe;stop-opacity:1;" /><stop
         offset="1"
         stop-color="#f09778"
         stop-opacity="0"
         id="stop13739"
         style="stop-color:#a2bcfe;stop-opacity:0;" /></linearGradient><linearGradient
       id="linearGradient13735"><stop
         offset="0"
         stop-color="#ff9169"
         id="stop13731"
         style="stop-color:#a2bcfe;stop-opacity:1;" /><stop
         offset="1"
         stop-color="#f09778"
         stop-opacity="0"
         id="stop13733"
         style="stop-color:#a2bcfe;stop-opacity:0;" /></linearGradient><linearGradient
       id="linearGradient13729"><stop
         offset="0"
         stop-color="#ff9169"
         id="stop13725"
         style="stop-color:#a2bcfe;stop-opacity:1;" /><stop
         offset="1"
         stop-color="#f09778"
         stop-opacity="0"
         id="stop13727"
         style="stop-color:#a2bcfe;stop-opacity:0;" /></linearGradient><linearGradient
       id="linearGradient13723"><stop
         offset="0"
         stop-color="#ff9169"
         id="stop13719"
         style="stop-color:#a2bcfe;stop-opacity:1;" /><stop
         offset="1"
         stop-color="#f09778"
         stop-opacity="0"
         id="stop13721"
         style="stop-color:#a2bcfe;stop-opacity:0;" /></linearGradient><linearGradient
       id="linearGradient13717"><stop
         offset="0"
         stop-color="#ff9169"
         id="stop13713"
         style="stop-color:#a2bcfe;stop-opacity:1;" /><stop
         offset="1"
         stop-color="#f09778"
         stop-opacity="0"
         id="stop13715"
         style="stop-color:#a2bcfe;stop-opacity:0;" /></linearGradient><linearGradient
       id="linearGradient13711"><stop
         offset="0"
         stop-color="#ff9169"
         id="stop13707"
         style="stop-color:#a2bcfe;stop-opacity:1;" /><stop
         offset="1"
         stop-color="#f09778"
         stop-opacity="0"
         id="stop13709"
         style="stop-color:#a2bcfe;stop-opacity:0;" /></linearGradient><linearGradient
       id="linearGradient13705"><stop
         offset="0"
         stop-color="#ff9169"
         id="stop13701"
         style="stop-color:#a2bcfe;stop-opacity:1;" /><stop
         offset="1"
         stop-color="#f09778"
         stop-opacity="0"
         id="stop13703"
         style="stop-color:#a2bcfe;stop-opacity:0;" /></linearGradient><linearGradient
       id="linearGradient13699"><stop
         offset="0"
         stop-color="#ff9169"
         id="stop13695"
         style="stop-color:#a2bcfe;stop-opacity:1;" /><stop
         offset="1"
         stop-color="#f09778"
         stop-opacity="0"
         id="stop13697"
         style="stop-color:#a2bcfe;stop-opacity:0;" /></linearGradient><linearGradient
       id="linearGradient13693"><stop
         offset="0"
         stop-color="#ff9169"
         id="stop13689"
         style="stop-color:#a2bcfe;stop-opacity:1;" /><stop
         offset="1"
         stop-color="#f09778"
         stop-opacity="0"
         id="stop13691"
         style="stop-color:#a2bcfe;stop-opacity:0;" /></linearGradient><linearGradient
       id="linearGradient13687"><stop
         offset="0"
         stop-color="#ff9169"
         id="stop13683"
         style="stop-color:#a2bcfe;stop-opacity:1;" /><stop
         offset="1"
         stop-color="#f09778"
         stop-opacity="0"
         id="stop13685"
         style="stop-color:#a2bcfe;stop-opacity:0;" /></linearGradient><linearGradient
       id="d-3"
       gradientUnits="userSpaceOnUse"
       x1="256"
       x2="256"
       y1="138"
       y2="375"><stop
         offset="0"
         stop-opacity="0"
         id="stop629" /><stop
         offset=".505"
         id="stop631" /><stop
         offset="1"
         stop-opacity="0"
         id="stop633" /></linearGradient><filter
       id="e-6"
       color-interpolation-filters="sRGB"
       height="1.18128"
       width="1.1966963"
       x="-0.098348157"
       y="-0.090640005"><feGaussianBlur
         stdDeviation="9.064"
         id="feGaussianBlur636" /></filter><filter
       id="c-7"
       color-interpolation-filters="sRGB"
       height="1.02266"
       width="1.024587"
       x="-0.01229352"
       y="-0.011330001"><feGaussianBlur
         stdDeviation="1.133"
         id="feGaussianBlur626" /></filter><linearGradient
       id="b-5"
       gradientUnits="userSpaceOnUse"
       x1="130.12241"
       x2="130.12241"
       y1="187.16916"
       y2="67.309654"
       gradientTransform="translate(82.250819,-21.511823)"><stop
         offset="0"
         stop-color="#f5f5f5"
         id="stop621" /><stop
         offset="1"
         stop-color="#f1d7e9"
         id="stop623"
         style="stop-color:#d7e5f1;stop-opacity:1;" /></linearGradient><filter
       id="F"
       color-interpolation-filters="sRGB"
       height="1.0227143"
       width="1.0227022"
       x="-0.011351119"
       y="-0.011357142"><feGaussianBlur
         stdDeviation="2.12"
         id="feGaussianBlur67" /></filter><linearGradient
       id="D"
       gradientUnits="userSpaceOnUse"
       x1="88"
       x2="488"
       y1="88"
       y2="488"><stop
         offset="0"
         stop-opacity=".588235"
         id="stop59" /><stop
         offset="1"
         stop-opacity=".205556"
         id="stop61" /></linearGradient><filter
       id="E"
       color-interpolation-filters="sRGB"
       height="1.0908571"
       width="1.090809"
       x="-0.045404476"
       y="-0.045428569"><feGaussianBlur
         stdDeviation="8.48"
         id="feGaussianBlur64" /></filter><linearGradient
       id="C"
       gradientTransform="rotate(90,-65.224648,-106.10473)"
       gradientUnits="userSpaceOnUse"
       x1="39.997002"
       x2="263.99701"
       y1="268.00201"
       y2="43.997002"><stop
         offset="0"
         stop-color="#e72662"
         id="stop52" /><stop
         offset=".483"
         stop-color="#ec3c50"
         id="stop54" /><stop
         offset="1"
         stop-color="#ff7b66"
         id="stop56" /></linearGradient><linearGradient
       id="q"
       gradientUnits="userSpaceOnUse"
       x1="288"
       x2="288"
       xlink:href="#r"
       y1="296"
       y2="72" /><linearGradient
       id="r"><stop
         offset="0"
         stop-color="#ff9169"
         id="stop37" /><stop
         offset="1"
         stop-color="#f09778"
         stop-opacity="0"
         id="stop39" /></linearGradient><linearGradient
       id="s"
       gradientUnits="userSpaceOnUse"
       x1="216"
       x2="218"
       xlink:href="#r"
       y1="326.10199"
       y2="-32" /><linearGradient
       id="t"
       gradientUnits="userSpaceOnUse"
       x1="177.60001"
       x2="176"
       xlink:href="#r"
       y1="264"
       y2="136" /><linearGradient
       id="u"
       gradientUnits="userSpaceOnUse"
       x1="136"
       x2="136"
       xlink:href="#r"
       y1="312"
       y2="80" /><linearGradient
       id="v"
       gradientUnits="userSpaceOnUse"
       x1="96.800003"
       x2="96.800003"
       xlink:href="#r"
       y1="352"
       y2="162.39999" /><linearGradient
       id="w"
       gradientUnits="userSpaceOnUse"
       x1="56"
       x2="56"
       xlink:href="#r"
       y1="360"
       y2="184" /><linearGradient
       id="x"
       gradientUnits="userSpaceOnUse"
       x1="296"
       x2="296"
       xlink:href="#r"
       y1="280"
       y2="72" /><linearGradient
       id="y"
       gradientUnits="userSpaceOnUse"
       x1="336"
       x2="336"
       xlink:href="#r"
       y1="288"
       y2="152" /><linearGradient
       id="z"
       gradientUnits="userSpaceOnUse"
       x1="376"
       x2="376"
       xlink:href="#r"
       y1="304"
       y2="96" /><linearGradient
       id="A"
       gradientUnits="userSpaceOnUse"
       x1="416"
       x2="416"
       xlink:href="#r"
       y1="336"
       y2="128" /><linearGradient
       id="B"
       gradientUnits="userSpaceOnUse"
       x1="456"
       x2="456"
       xlink:href="#r"
       y1="368"
       y2="192" /><linearGradient
       id="e-62"
       gradientUnits="userSpaceOnUse"
       x1="256"
       x2="256"
       xlink:href="#f"
       y1="232"
       y2="400" /><linearGradient
       id="f"><stop
         offset="0"
         stop-color="#fed965"
         id="stop21" /><stop
         offset="1"
         stop-color="#fed965"
         stop-opacity="0"
         id="stop23" /></linearGradient><linearGradient
       id="g"
       gradientUnits="userSpaceOnUse"
       x1="216"
       x2="216"
       xlink:href="#f"
       y1="232"
       y2="472" /><linearGradient
       id="h"
       gradientUnits="userSpaceOnUse"
       x1="176"
       x2="176"
       xlink:href="#f"
       y1="200"
       y2="400" /><linearGradient
       id="i"
       gradientUnits="userSpaceOnUse"
       x1="136"
       x2="136"
       xlink:href="#f"
       y1="152"
       y2="368" /><linearGradient
       id="j"
       gradientUnits="userSpaceOnUse"
       x1="96"
       x2="96"
       xlink:href="#f"
       y1="112"
       y2="408" /><linearGradient
       id="k"
       gradientUnits="userSpaceOnUse"
       x1="56"
       x2="56"
       xlink:href="#f"
       y1="160"
       y2="312" /><linearGradient
       id="l"
       gradientUnits="userSpaceOnUse"
       x1="296"
       x2="296"
       xlink:href="#f"
       y1="160"
       y2="544" /><linearGradient
       id="m"
       gradientUnits="userSpaceOnUse"
       x1="336"
       x2="336"
       xlink:href="#f"
       y1="208"
       y2="456" /><linearGradient
       id="n"
       gradientUnits="userSpaceOnUse"
       x1="376"
       x2="376"
       xlink:href="#f"
       y1="176"
       y2="368" /><linearGradient
       id="o"
       gradientUnits="userSpaceOnUse"
       x1="416"
       x2="416"
       xlink:href="#f"
       y1="185.89799"
       y2="376" /><linearGradient
       id="p"
       gradientUnits="userSpaceOnUse"
       x1="456"
       x2="456"
       xlink:href="#f"
       y1="128"
       y2="352" /><linearGradient
       id="c-9"
       gradientUnits="userSpaceOnUse"
       x1="137.88399"
       x2="137.88399"
       y1="47.174774"
       y2="207.17477"
       gradientTransform="translate(-457.20989,-16.05723)"><stop
         offset="0"
         stop-opacity="0"
         id="stop10" /><stop
         offset=".519"
         id="stop12" /><stop
         offset="1"
         stop-opacity="0"
         id="stop14" /></linearGradient><filter
       id="d-1"
       color-interpolation-filters="sRGB"
       height="1.170587"
       width="1.2195332"
       x="-0.10976661"
       y="-0.085293515"><feGaussianBlur
         stdDeviation="5.263"
         id="feGaussianBlur17" /></filter><filter
       id="b-2"
       color-interpolation-filters="sRGB"
       height="1.0213274"
       width="1.0274469"
       x="-0.013723434"
       y="-0.010663715"><feGaussianBlur
         stdDeviation=".658"
         id="feGaussianBlur7" /></filter><linearGradient
       id="a-7"
       gradientUnits="userSpaceOnUse"
       x1="173.88399"
       x2="109.88399"
       y1="131.17477"
       y2="131.17477"
       gradientTransform="translate(-457.20989,-16.05723)"><stop
         offset="0"
         stop-color="#ef5145"
         stop-opacity="0"
         id="stop2" /><stop
         offset="1"
         stop-color="#ef5145"
         id="stop4" /></linearGradient><linearGradient
       inkscape:collect="always"
       xlink:href="#linearGradient15897"
       id="linearGradient12554"
       gradientUnits="userSpaceOnUse"
       x1="256"
       y1="232"
       x2="256"
       y2="400"
       gradientTransform="matrix(0.5,0,0,0.5,-229.88938,6.3758168)" /><linearGradient
       inkscape:collect="always"
       xlink:href="#linearGradient15891"
       id="linearGradient12556"
       gradientUnits="userSpaceOnUse"
       x1="216"
       y1="232"
       x2="216"
       y2="472"
       gradientTransform="matrix(0.5,0,0,0.5,-229.88938,6.3758168)" /><linearGradient
       inkscape:collect="always"
       xlink:href="#linearGradient15885"
       id="linearGradient12558"
       gradientUnits="userSpaceOnUse"
       x1="176"
       y1="200"
       x2="176"
       y2="400"
       gradientTransform="matrix(0.5,0,0,0.5,-229.88938,6.3758168)" /><linearGradient
       inkscape:collect="always"
       xlink:href="#linearGradient15879"
       id="linearGradient12560"
       gradientUnits="userSpaceOnUse"
       x1="136"
       y1="152"
       x2="136"
       y2="368"
       gradientTransform="matrix(0.5,0,0,0.5,-229.88938,6.3758168)" /><linearGradient
       inkscape:collect="always"
       xlink:href="#linearGradient15873"
       id="linearGradient12562"
       gradientUnits="userSpaceOnUse"
       x1="96"
       y1="112"
       x2="96"
       y2="408"
       gradientTransform="matrix(0.5,0,0,0.5,-229.88938,6.3758168)" /><linearGradient
       inkscape:collect="always"
       xlink:href="#linearGradient15867"
       id="linearGradient12564"
       gradientUnits="userSpaceOnUse"
       x1="56"
       y1="160"
       x2="56"
       y2="312"
       gradientTransform="matrix(0.5,0,0,0.5,-229.88938,6.3758168)" /><linearGradient
       inkscape:collect="always"
       xlink:href="#linearGradient15903"
       id="linearGradient12566"
       gradientUnits="userSpaceOnUse"
       x1="296"
       y1="160"
       x2="296"
       y2="544"
       gradientTransform="matrix(0.5,0,0,0.5,-229.88938,6.3758168)" /><linearGradient
       inkscape:collect="always"
       xlink:href="#linearGradient15909"
       id="linearGradient12568"
       gradientUnits="userSpaceOnUse"
       x1="336"
       y1="208"
       x2="336"
       y2="456"
       gradientTransform="matrix(0.5,0,0,0.5,-229.88938,6.3758168)" /><linearGradient
       inkscape:collect="always"
       xlink:href="#linearGradient15915"
       id="linearGradient12570"
       gradientUnits="userSpaceOnUse"
       x1="376"
       y1="176"
       x2="376"
       y2="368"
       gradientTransform="matrix(0.5,0,0,0.5,-229.88938,6.3758168)" /><linearGradient
       inkscape:collect="always"
       xlink:href="#linearGradient15921"
       id="linearGradient12572"
       gradientUnits="userSpaceOnUse"
       x1="416"
       y1="185.89799"
       x2="416"
       y2="376"
       gradientTransform="matrix(0.5,0,0,0.5,-229.88938,6.3758168)" /><linearGradient
       inkscape:collect="always"
       xlink:href="#linearGradient15927"
       id="linearGradient12574"
       gradientUnits="userSpaceOnUse"
       x1="456"
       y1="128"
       x2="456"
       y2="352"
       gradientTransform="matrix(0.5,0,0,0.5,-229.88938,6.3758168)" /><linearGradient
       inkscape:collect="always"
       xlink:href="#linearGradient13717"
       id="linearGradient12576"
       gradientUnits="userSpaceOnUse"
       x1="288"
       y1="296"
       x2="288"
       y2="72"
       gradientTransform="matrix(0.5,0,0,0.5,-245.88938,-9.6241832)" /><linearGradient
       inkscape:collect="always"
       xlink:href="#linearGradient13711"
       id="linearGradient12578"
       gradientUnits="userSpaceOnUse"
       x1="216"
       y1="326.10199"
       x2="218"
       y2="-32"
       gradientTransform="matrix(0.5,0,0,0.5,-229.88938,6.3758168)" /><linearGradient
       inkscape:collect="always"
       xlink:href="#linearGradient13705"
       id="linearGradient12580"
       gradientUnits="userSpaceOnUse"
       x1="177.60001"
       y1="264"
       x2="176"
       y2="136"
       gradientTransform="matrix(0.5,0,0,0.5,-229.88938,6.3758168)" /><linearGradient
       inkscape:collect="always"
       xlink:href="#linearGradient13699"
       id="linearGradient12582"
       gradientUnits="userSpaceOnUse"
       x1="136"
       y1="312"
       x2="136"
       y2="80"
       gradientTransform="matrix(0.5,0,0,0.5,-229.88938,6.3758168)" /><linearGradient
       inkscape:collect="always"
       xlink:href="#linearGradient13693"
       id="linearGradient12584"
       gradientUnits="userSpaceOnUse"
       x1="96.800003"
       y1="352"
       x2="96.800003"
       y2="162.39999"
       gradientTransform="matrix(0.5,0,0,0.5,-229.88938,6.3758168)" /><linearGradient
       inkscape:collect="always"
       xlink:href="#linearGradient13687"
       id="linearGradient12586"
       gradientUnits="userSpaceOnUse"
       x1="56"
       y1="360"
       x2="56"
       y2="184"
       gradientTransform="matrix(0.5,0,0,0.5,-229.88938,6.3758168)" /><linearGradient
       inkscape:collect="always"
       xlink:href="#linearGradient13723"
       id="linearGradient12588"
       gradientUnits="userSpaceOnUse"
       x1="296"
       y1="280"
       x2="296"
       y2="72"
       gradientTransform="matrix(0.5,0,0,0.5,-229.88938,6.3758168)" /><linearGradient
       inkscape:collect="always"
       xlink:href="#linearGradient13729"
       id="linearGradient12590"
       gradientUnits="userSpaceOnUse"
       x1="336"
       y1="288"
       x2="336"
       y2="152"
       gradientTransform="matrix(0.5,0,0,0.5,-229.88938,6.3758168)" /><linearGradient
       inkscape:collect="always"
       xlink:href="#linearGradient13735"
       id="linearGradient12592"
       gradientUnits="userSpaceOnUse"
       x1="376"
       y1="304"
       x2="376"
       y2="96"
       gradientTransform="matrix(0.5,0,0,0.5,-229.88938,6.3758168)" /><linearGradient
       inkscape:collect="always"
       xlink:href="#linearGradient13741"
       id="linearGradient12594"
       gradientUnits="userSpaceOnUse"
       x1="416"
       y1="336"
       x2="416"
       y2="128"
       gradientTransform="matrix(0.5,0,0,0.5,-229.88938,6.3758168)" /><linearGradient
       inkscape:collect="always"
       xlink:href="#linearGradient13747"
       id="linearGradient12596"
       gradientUnits="userSpaceOnUse"
       x1="456"
       y1="368"
       x2="456"
       y2="192"
       gradientTransform="matrix(0.5,0,0,0.5,-229.88938,6.3758168)" /></defs><sodipodi:namedview
     id="namedview493"
     pagecolor="#ffffff"
     bordercolor="#000000"
     borderopacity="0.25"
     inkscape:showpageshadow="2"
     inkscape:pageopacity="0.0"
     inkscape:pagecheckerboard="0"
     inkscape:deskcolor="#d1d1d1"
     showgrid="false"
     inkscape:zoom="0.23095703"
     inkscape:cx="-1268.6342"
     inkscape:cy="584.52431"
     inkscape:window-width="1366"
     inkscape:window-height="704"
     inkscape:window-x="0"
     inkscape:window-y="0"
     inkscape:window-maximized="1"
     inkscape:current-layer="svg491" /><filter
     id="a"
     color-interpolation-filters="sRGB"
     height="1.1423948"
     width="1.2947106"
     x="-0.1473553"
     y="-0.071197387"><feGaussianBlur
       stdDeviation="4.264"
       id="feGaussianBlur452" /></filter><filter
     id="b"
     color-interpolation-filters="sRGB"
     height="1.0177993"
     width="1.0368388"
     x="-0.018419412"
     y="-0.0088996728"><feGaussianBlur
       stdDeviation=".533"
       id="feGaussianBlur455" /></filter><linearGradient
     id="c"
     gradientUnits="userSpaceOnUse"
     x1="80.751999"
     x2="176.751999"
     y1="11.248008"
     y2="235.248008"><stop
       offset="0"
       stop-color="#1a7fd4"
       id="stop458"
       style="stop-color:#1a80d4;stop-opacity:1;" /><stop
       offset="1"
       stop-color="#37a6e6"
       id="stop460" /></linearGradient><filter
     id="d"
     color-interpolation-filters="sRGB"
     height="1.024"
     width="1.024"
     x="-0.012"
     y="-0.012"><feGaussianBlur
       stdDeviation="1.12"
       id="feGaussianBlur463" /></filter><filter
     id="e"
     color-interpolation-filters="sRGB"
     height="1.096"
     width="1.096"
     x="-0.048"
     y="-0.048"><feGaussianBlur
       stdDeviation="4.48"
       id="feGaussianBlur466" /></filter><circle
     cx="128.752"
     cy="127.248"
     filter="url(#e)"
     opacity=".1"
     r="112"
     id="circle469" /><circle
     cx="128.752"
     cy="125.248"
     filter="url(#d)"
     opacity=".1"
     r="112"
     id="circle471" /><circle
     cx="128.752"
     cy="123.248"
     opacity=".1"
     r="114"
     id="circle473" /><circle
     cx="128.752"
     cy="123.248"
     fill="url(#c)"
     r="112"
     id="circle475" /><path
     d="m16.751998 132.94391a112.5345 112.53445 0 0 0 111.977532 102.3041 112.5345 112.53445 0 0 0 112.02247-102.3041z"
     fill="#fff"
     opacity=".1"
     id="path477" /><path
     d="m128.752 11.248008a112 112 0 0 0 -112.000002 111.999992 112 112 0 0 0 .04102 1.16992 112 112 0 0 1 111.958982-111.169912 112 112 0 0 1 111.95898 110.830072 112 112 0 0 0 .041-.83008 112 112 0 0 0 -112-111.999992z"
     fill="#fff"
     opacity=".3"
     id="path487" /><path
     d="m128.752 235.24801a112 112 0 0 1 -112.000002-112.00001 112 112 0 0 1 .04102-1.16992 112 112 0 0 0 111.958982 111.16993 112 112 0 0 0 111.95898-110.83009 112 112 0 0 1 .041.83008 112 112 0 0 1 -112 112.00001z"
     opacity=".2"
     id="path489" /><g
     id="g15979"
     transform="matrix(0.88520868,0,0,0.88520868,218.19336,14.00919)"><g
       id="g15953"><path
         d="m -109.88938,26.375817 v 8 h 16 v -8 z m 0,12 v 8 h 16 v -8 z m 0,12 v 8 h 16 v -8 z m 0,12 v 8 h 16 v -8 z m 0,12 v 8 h 16 v -8 z m 0,12 v 8 h 16 v -8 z m 0,12 v 8.000003 h 16 v -8.000003 z m 0,12.000003 v 8 h 16 v -8 z m 0,12 v 8 h 16 v -8 z"
         fill="url(#q)"
         id="path12506"
         style="opacity:0.5;fill:url(#linearGradient12576);stroke-width:0.5" /><path
         d="m -129.88938,26.375817 v 8 h 16 v -8 z m 0,12 v 8 h 16 v -8 z m 0,12 v 8 h 16 v -8 z m 0,12 v 8 h 16 v -8 z m 0,12 v 8 h 16 v -8 z m 0,12 v 8 h 16 v -8 z m 0,12 v 8.000003 h 16 v -8.000003 z m 0,12.000003 v 8 h 16 v -8 z m 0,12 v 8 h 16 v -8 z"
         fill="url(#s)"
         id="path12508"
         style="opacity:0.5;fill:url(#linearGradient12578);stroke-width:0.5" /><path
         d="m -149.88938,26.375817 v 8 h 16 v -8 z m 0,12 v 8 h 16 v -8 z m 0,12 v 8 h 16 v -8 z m 0,12 v 8 h 16 v -8 z m 0,12 v 8 h 16 v -8 z m 0,12 v 8 h 16 v -8 z m 0,12 v 8.000003 h 16 v -8.000003 z m 0,12.000003 v 8 h 16 v -8 z m 0,12 v 8 h 16 v -8 z"
         fill="url(#t)"
         id="path12510"
         style="opacity:0.5;fill:url(#linearGradient12580);stroke-width:0.5" /><path
         d="m -169.88938,26.375817 v 8 h 16 v -8 z m 0,12 v 8 h 16 v -8 z m 0,12 v 8 h 16 v -8 z m 0,12 v 8 h 16 v -8 z m 0,12 v 8 h 16 v -8 z m 0,12 v 8 h 16 v -8 z m 0,12 v 8.000003 h 16 v -8.000003 z m 0,12.000003 v 8 h 16 v -8 z m 0,12 v 8 h 16 v -8 z"
         fill="url(#u)"
         id="path12512"
         style="opacity:0.5;fill:url(#linearGradient12582);stroke-width:0.5" /><path
         d="m -189.88938,26.375817 v 8 h 16 v -8 z m 0,12 v 8 h 16 v -8 z m 0,12 v 8 h 16 v -8 z m 0,12 v 8 h 16 v -8 z m 0,12 v 8 h 16 v -8 z m 0,12 v 8 h 16 v -8 z m 0,12 v 8.000003 h 16 v -8.000003 z m 0,12.000003 v 8 h 16 v -8 z m 0,12 v 8 h 16 v -8 z"
         fill="url(#v)"
         id="path12514"
         style="opacity:0.5;fill:url(#linearGradient12584);stroke-width:0.5" /><path
         d="m -209.88938,26.375817 v 8 h 16 v -8 z m 0,12 v 8 h 16 v -8 z m 0,12 v 8 h 16 v -8 z m 0,12 v 8 h 16 v -8 z m 0,12 v 8 h 16 v -8 z m 0,12 v 8 h 16 v -8 z m 0,12 v 8.000003 h 16 v -8.000003 z m 0,12.000003 v 8 h 16 v -8 z m 0,12 v 8 h 16 v -8 z"
         fill="url(#w)"
         id="path12516"
         style="opacity:0.5;fill:url(#linearGradient12586);stroke-width:0.5" /><path
         d="m -89.88938,26.375817 v 8 h 16 v -8 z m 0,12 v 8 h 16 v -8 z m 0,12 v 8 h 16 v -8 z m 0,12 v 8 h 16 v -8 z m 0,12 v 8 h 16 v -8 z m 0,12 v 8 h 16 v -8 z m 0,12 v 8.000003 h 16 v -8.000003 z m 0,12.000003 v 8 h 16 v -8 z m 0,12 v 8 h 16 v -8 z"
         fill="url(#x)"
         id="path12518"
         style="opacity:0.5;fill:url(#linearGradient12588);stroke-width:0.5" /><path
         d="m -69.88938,26.375817 v 8 h 16 v -8 z m 0,12 v 8 h 16 v -8 z m 0,12 v 8 h 16 v -8 z m 0,12 v 8 h 16 v -8 z m 0,12 v 8 h 16 v -8 z m 0,12 v 8 h 16 v -8 z m 0,12 v 8.000003 h 16 v -8.000003 z m 0,12.000003 v 8 h 16 v -8 z m 0,12 v 8 h 16 v -8 z"
         fill="url(#y)"
         id="path12520"
         style="opacity:0.5;fill:url(#linearGradient12590);stroke-width:0.5" /><path
         d="m -49.88938,26.375817 v 8 h 16 v -8 z m 0,12 v 8 h 16 v -8 z m 0,12 v 8 h 16 v -8 z m 0,12 v 8 h 16 v -8 z m 0,12 v 8 h 16 v -8 z m 0,12 v 8 h 16 v -8 z m 0,12 v 8.000003 h 16 v -8.000003 z m 0,12.000003 v 8 h 16 v -8 z m 0,12 v 8 h 16 v -8 z"
         fill="url(#z)"
         id="path12522"
         style="opacity:0.5;fill:url(#linearGradient12592);stroke-width:0.5" /><path
         d="m -29.88938,26.375817 v 8 h 16 v -8 z m 0,12 v 8 h 16 v -8 z m 0,12 v 8 h 16 v -8 z m 0,12 v 8 h 16 v -8 z m 0,12 v 8 h 16 v -8 z m 0,12 v 8 h 16 v -8 z m 0,12 v 8.000003 h 16 v -8.000003 z m 0,12.000003 v 8 h 16 v -8 z m 0,12 v 8 h 16 v -8 z"
         fill="url(#A)"
         id="path12524"
         style="opacity:0.5;fill:url(#linearGradient12594);stroke-width:0.5" /><path
         d="m -9.88938,26.375817 v 8 h 16 v -8 z m 0,12 v 8 h 16 v -8 z m 0,12 v 8 h 16 v -8 z m 0,12 v 8 h 16 v -8 z m 0,12 v 8 h 16 v -8 z m 0,12 v 8 h 16 v -8 z m 0,12 v 8.000003 h 16 v -8.000003 z m 0,12.000003 v 8 h 16 v -8 z m 0,12 v 8 h 16 v -8 z"
         fill="url(#B)"
         id="path12526"
         style="opacity:0.5;fill:url(#linearGradient12596);stroke-width:0.5" /></g><g
       id="g15940"><path
         d="m -109.88938,138.37582 v 8 h 16 v -8 z m 0,12 v 8 h 16 v -8 z m 0,12 v 8 h 16 v -8 z m 0,12 v 8 h 16 v -8 z m 0,12 v 8 h 16 v -8 z m 0,12 v 8 h 16 v -8 z m 0,12 v 8 h 16 v -8 z m 0,12 v 8 h 16 v -8 z m 0,12 v 8 h 16 v -8 z"
         fill="url(#e)"
         opacity="0.2335"
         id="path12530"
         style="fill:url(#linearGradient12554);stroke-width:0.5" /><path
         d="m -129.88938,138.37582 v 8 h 16 v -8 z m 0,12 v 8 h 16 v -8 z m 0,12 v 8 h 16 v -8 z m 0,12 v 8 h 16 v -8 z m 0,12 v 8 h 16 v -8 z m 0,12 v 8 h 16 v -8 z m 0,12 v 8 h 16 v -8 z m 0,12 v 8 h 16 v -8 z m 0,12 v 8 h 16 v -8 z"
         fill="url(#g)"
         opacity="0.2335"
         id="path12532"
         style="fill:url(#linearGradient12556);stroke-width:0.5" /><path
         d="m -149.88938,138.37582 v 8 h 16 v -8 z m 0,12 v 8 h 16 v -8 z m 0,12 v 8 h 16 v -8 z m 0,12 v 8 h 16 v -8 z m 0,12 v 8 h 16 v -8 z m 0,12 v 8 h 16 v -8 z m 0,12 v 8 h 16 v -8 z m 0,12 v 8 h 16 v -8 z m 0,12 v 8 h 16 v -8 z"
         fill="url(#h)"
         opacity="0.2335"
         id="path12534"
         style="fill:url(#linearGradient12558);stroke-width:0.5" /><path
         d="m -169.88938,138.37582 v 8 h 16 v -8 z m 0,12 v 8 h 16 v -8 z m 0,12 v 8 h 16 v -8 z m 0,12 v 8 h 16 v -8 z m 0,12 v 8 h 16 v -8 z m 0,12 v 8 h 16 v -8 z m 0,12 v 8 h 16 v -8 z m 0,12 v 8 h 16 v -8 z m 0,12 v 8 h 16 v -8 z"
         fill="url(#i)"
         opacity="0.2335"
         id="path12536"
         style="fill:url(#linearGradient12560);stroke-width:0.5" /><path
         d="m -189.88938,138.37582 v 8 h 16 v -8 z m 0,12 v 8 h 16 v -8 z m 0,12 v 8 h 16 v -8 z m 0,12 v 8 h 16 v -8 z m 0,12 v 8 h 16 v -8 z m 0,12 v 8 h 16 v -8 z m 0,12 v 8 h 16 v -8 z m 0,12 v 8 h 16 v -8 z m 0,12 v 8 h 16 v -8 z"
         fill="url(#j)"
         opacity="0.2335"
         id="path12538"
         style="fill:url(#linearGradient12562);stroke-width:0.5" /><path
         d="m -209.88938,138.37582 v 8 h 16 v -8 z m 0,12 v 8 h 16 v -8 z m 0,12 v 8 h 16 v -8 z m 0,12 v 8 h 16 v -8 z m 0,12 v 8 h 16 v -8 z m 0,12 v 8 h 16 v -8 z m 0,12 v 8 h 16 v -8 z m 0,12 v 8 h 16 v -8 z m 0,12 v 8 h 16 v -8 z"
         fill="url(#k)"
         opacity="0.2335"
         id="path12540"
         style="fill:url(#linearGradient12564);stroke-width:0.5" /><path
         d="m -89.88938,138.37582 v 8 h 16 v -8 z m 0,12 v 8 h 16 v -8 z m 0,12 v 8 h 16 v -8 z m 0,12 v 8 h 16 v -8 z m 0,12 v 8 h 16 v -8 z m 0,12 v 8 h 16 v -8 z m 0,12 v 8 h 16 v -8 z m 0,12 v 8 h 16 v -8 z m 0,12 v 8 h 16 v -8 z"
         fill="url(#l)"
         opacity="0.2335"
         id="path12542"
         style="fill:url(#linearGradient12566);stroke-width:0.5" /><path
         d="m -69.88938,138.37582 v 8 h 16 v -8 z m 0,12 v 8 h 16 v -8 z m 0,12 v 8 h 16 v -8 z m 0,12 v 8 h 16 v -8 z m 0,12 v 8 h 16 v -8 z m 0,12 v 8 h 16 v -8 z m 0,12 v 8 h 16 v -8 z m 0,12 v 8 h 16 v -8 z m 0,12 v 8 h 16 v -8 z"
         fill="url(#m)"
         opacity="0.2335"
         id="path12544"
         style="fill:url(#linearGradient12568);stroke-width:0.5" /><path
         d="m -49.88938,138.37582 v 8 h 16 v -8 z m 0,12 v 8 h 16 v -8 z m 0,12 v 8 h 16 v -8 z m 0,12 v 8 h 16 v -8 z m 0,12 v 8 h 16 v -8 z m 0,12 v 8 h 16 v -8 z m 0,12 v 8 h 16 v -8 z m 0,12 v 8 h 16 v -8 z m 0,12 v 8 h 16 v -8 z"
         fill="url(#n)"
         opacity="0.2335"
         id="path12546"
         style="fill:url(#linearGradient12570);stroke-width:0.5" /><path
         d="m -29.88938,138.37582 v 8 h 16 v -8 z m 0,12 v 8 h 16 v -8 z m 0,12 v 8 h 16 v -8 z m 0,12 v 8 h 16 v -8 z m 0,12 v 8 h 16 v -8 z m 0,12 v 8 h 16 v -8 z m 0,12 v 8 h 16 v -8 z m 0,12 v 8 h 16 v -8 z m 0,12 v 8 h 16 v -8 z"
         fill="url(#o)"
         opacity="0.2335"
         id="path12548"
         style="fill:url(#linearGradient12572);stroke-width:0.5" /><path
         d="m -9.88938,138.37582 v 8 h 16 v -8 z m 0,12 v 8 h 16 v -8 z m 0,12 v 8 h 16 v -8 z m 0,12 v 8 h 16 v -8 z m 0,12 v 8 h 16 v -8 z m 0,12 v 8 h 16 v -8 z m 0,12 v 8 h 16 v -8 z m 0,12 v 8 h 16 v -8 z m 0,12 v 8 h 16 v -8 z"
         fill="url(#p)"
         opacity="0.2335"
         id="path12550"
         style="fill:url(#linearGradient12574);stroke-width:0.5" /></g></g><g
     id="g9036"
     transform="translate(-9.2056243,17.698817)"><path
       d="m 155.41127,137.99999 v 239.99999 c 0,0 121.72498,-49.19762 221.18971,-120.07579 0,-0.0217 -0.0115,-0.0398 -0.0253,-0.0645 -0.0115,-0.0263 -0.0264,-0.0523 -0.0448,-0.0786 -0.0191,-0.026 -0.0374,-0.0533 -0.0504,-0.0786 -0.0147,-0.0262 -0.0253,-0.0526 -0.0253,-0.0758 C 271.53919,184.48813 155.41146,138.00011 155.41146,138.00011 Z"
       fill="url(#d)"
       filter="url(#e)"
       opacity="0.4"
       transform="matrix(0.5,0,0,0.5,21.624598,-13.001592)"
       id="path669"
       style="fill:url(#d-3);filter:url(#e-6)" /><path
       d="m 155.41127,137.99999 v 239.99999 c 0,0 121.72498,-49.19762 221.18971,-120.07579 0,-0.0217 -0.0115,-0.0398 -0.0253,-0.0645 -0.0115,-0.0263 -0.0264,-0.0523 -0.0448,-0.0786 -0.0191,-0.026 -0.0374,-0.0533 -0.0504,-0.0786 -0.0147,-0.0262 -0.0253,-0.0526 -0.0253,-0.0758 C 271.53919,184.48813 155.41146,138.00011 155.41146,138.00011 Z"
       filter="url(#c)"
       opacity="0.1"
       transform="matrix(0.5,0,0,0.5,21.624598,-13.001592)"
       id="path671"
       style="filter:url(#c-7)" /><path
       d="M 99.330224,54.998404 V 174.99841 c 0,0 60.862466,-24.59881 110.594826,-60.0379 0,-0.0108 -0.006,-0.0199 -0.0127,-0.0322 -0.006,-0.0132 -0.0132,-0.0262 -0.0224,-0.0393 -0.01,-0.013 -0.0187,-0.0266 -0.0252,-0.0393 -0.007,-0.0131 -0.0127,-0.0263 -0.0127,-0.0379 C 157.39406,78.242519 99.330204,54.998504 99.330204,54.998504 Z"
       fill="url(#b)"
       id="path673"
       style="fill:#f8fbfe;fill-opacity:1" /><path
       d="m 99.329934,54.998409 v 1 c 0,0 57.669516,23.07928 109.946966,59.417981 0.21558,-0.15303 0.43312,-0.30263 0.64844,-0.45606 0,-0.0108 -0.006,-0.0199 -0.0127,-0.0322 -0.006,-0.0132 -0.0132,-0.0259 -0.0225,-0.0391 -0.01,-0.013 -0.0189,-0.0264 -0.0254,-0.0391 -0.007,-0.0131 -0.0127,-0.0265 -0.0127,-0.0381 C 157.3941,78.242609 99.329934,54.998409 99.329934,54.998409 Z"
       fill="#ffffff"
       id="path675" /></g></svg>
