<?xml version="1.0" encoding="UTF-8" standalone="no"?>
<svg
   enable-background="new"
   height="256"
   viewBox="0 0 256 256"
   width="256"
   version="1.1"
   id="svg41"
   sodipodi:docname="io.github.hmlendea.geforcenow-electron.svg"
   xml:space="preserve"
   inkscape:version="1.2 (dc2aedaf03, 2022-05-15)"
   xmlns:inkscape="http://www.inkscape.org/namespaces/inkscape"
   xmlns:sodipodi="http://sodipodi.sourceforge.net/DTD/sodipodi-0.dtd"
   xmlns:xlink="http://www.w3.org/1999/xlink"
   xmlns="http://www.w3.org/2000/svg"
   xmlns:svg="http://www.w3.org/2000/svg"><defs
     id="defs45"><filter
       id="c-3"
       color-interpolation-filters="sRGB"
       height="1.0227143"
       width="1.0289082"
       x="-0.014454102"
       y="-0.011357142"><feGaussianBlur
         stdDeviation="2.12"
         id="feGaussianBlur12-7" /></filter><linearGradient
       id="a-5"
       gradientTransform="rotate(-90,287.9946,298)"
       gradientUnits="userSpaceOnUse"
       x1="88"
       x2="488"
       y1="88"
       y2="488"><stop
         offset="0"
         stop-opacity=".588235"
         id="stop2-9" /><stop
         offset=".88"
         stop-opacity="0"
         id="stop4-2" /><stop
         offset="1"
         id="stop6-2" /></linearGradient><filter
       id="b-8"
       color-interpolation-filters="sRGB"
       height="1.0908571"
       width="1.1156328"
       x="-0.057816406"
       y="-0.045428569"><feGaussianBlur
         stdDeviation="8.48"
         id="feGaussianBlur9-9" /></filter><filter
       inkscape:collect="always"
       style="color-interpolation-filters:sRGB"
       id="filter4346-3"
       x="-0.014454287"
       width="1.0289086"
       y="-0.011357288"
       height="1.0227146"><feGaussianBlur
         inkscape:collect="always"
         stdDeviation="2.120027"
         id="feGaussianBlur4348-6" /></filter><linearGradient
       inkscape:collect="always"
       xlink:href="#linearGradient4360"
       id="linearGradient4358-7"
       x1="88"
       y1="88"
       x2="488"
       y2="488"
       gradientUnits="userSpaceOnUse"
       gradientTransform="rotate(-90,287.9946,298)" /><linearGradient
       id="linearGradient4360"
       inkscape:collect="always"><stop
         id="stop4362"
         offset="0"
         style="stop-color:#000000;stop-opacity:0.58823532" /><stop
         style="stop-color:#000000;stop-opacity:0"
         offset="0.88"
         id="stop4364" /><stop
         id="stop4366"
         offset="1"
         style="stop-color:#000000;stop-opacity:1" /></linearGradient><filter
       inkscape:collect="always"
       style="color-interpolation-filters:sRGB"
       id="filter4380-6"
       x="-0.057817147"
       width="1.1156343"
       y="-0.045429151"
       height="1.0908583"><feGaussianBlur
         inkscape:collect="always"
         stdDeviation="8.4801079"
         id="feGaussianBlur4382-2" /></filter><linearGradient
       inkscape:collect="always"
       xlink:href="#linearGradient3797-5"
       id="linearGradient3471"
       gradientUnits="userSpaceOnUse"
       gradientTransform="translate(-23.997296,-29.000003)"
       x1="152.0025"
       y1="246.0025"
       x2="151.9973"
       y2="69.002701" /><linearGradient
       id="linearGradient3797-5"><stop
         id="stop3801"
         offset="0"
         style="stop-color:#f7f7f7;stop-opacity:1" /><stop
         id="stop3799"
         offset="1"
         style="stop-color:#e6e6e6;stop-opacity:1" /></linearGradient><linearGradient
       inkscape:collect="always"
       xlink:href="#linearGradient982"
       id="linearGradient3473"
       gradientUnits="userSpaceOnUse"
       gradientTransform="translate(-23.997296,-29.000003)"
       x1="152.0025"
       y1="246.0025"
       x2="151.9973"
       y2="69.002701" /><linearGradient
       id="linearGradient982"><stop
         id="stop977"
         offset="0"
         style="stop-color:#8ad600;stop-opacity:1" /><stop
         id="stop979"
         offset="1"
         style="stop-color:#70ad00;stop-opacity:1" /></linearGradient><linearGradient
       id="linearGradient1148"><stop
         id="stop1144"
         offset="0"
         style="stop-color:#ffffff;stop-opacity:1" /><stop
         id="stop1146"
         offset="1"
         style="stop-color:#f2f2f2;stop-opacity:1" /></linearGradient><linearGradient
       inkscape:collect="always"
       xlink:href="#linearGradient982"
       id="linearGradient3477"
       gradientUnits="userSpaceOnUse"
       gradientTransform="translate(-23.997296,-29.000003)"
       x1="135"
       y1="244"
       x2="135"
       y2="68" /></defs><sodipodi:namedview
     id="namedview43"
     pagecolor="#ffffff"
     bordercolor="#000000"
     borderopacity="0.25"
     inkscape:showpageshadow="2"
     inkscape:pageopacity="0.0"
     inkscape:pagecheckerboard="0"
     inkscape:deskcolor="#d1d1d1"
     showgrid="false"
     inkscape:zoom="0.92382813"
     inkscape:cx="-10.824524"
     inkscape:cy="87.678646"
     inkscape:window-width="1366"
     inkscape:window-height="704"
     inkscape:window-x="0"
     inkscape:window-y="0"
     inkscape:window-maximized="1"
     inkscape:current-layer="svg41" /><linearGradient
     id="a"
     gradientTransform="matrix(0 -1 1 0 -10.0054 585.9946)"
     gradientUnits="userSpaceOnUse"
     x1="88"
     x2="488"
     y1="88"
     y2="488"><stop
       offset="0"
       stop-opacity=".588235"
       id="stop2" /><stop
       offset=".88"
       stop-opacity="0"
       id="stop4" /><stop
       offset="1"
       id="stop6" /></linearGradient><filter
     id="b"
     color-interpolation-filters="sRGB"
     height="1.0908571"
     width="1.1156328"
     x="-0.057816406"
     y="-0.045428569"><feGaussianBlur
       stdDeviation="8.48"
       id="feGaussianBlur9" /></filter><filter
     id="c"
     color-interpolation-filters="sRGB"
     height="1.0227143"
     width="1.0289082"
     x="-0.014454102"
     y="-0.011357142"><feGaussianBlur
       stdDeviation="2.12"
       id="feGaussianBlur12" /></filter><path
     style="color:#000000;display:inline;overflow:visible;visibility:visible;opacity:0.1;fill:#000000;fill-opacity:1;fill-rule:nonzero;stroke:none;stroke-width:2;marker:none;filter:url(#filter4346-3);enable-background:accumulate"
     d="M 189.84323,74 C 119.24979,74 111.65402,81.250835 112,151.98706 V 298 444.01294 C 111.65402,514.74917 119.24979,522 189.84323,522 H 386.15677 C 456.75021,522 462.16345,514.72616 464,444.01294 V 298 151.98706 C 464,81.249993 456.75021,74 386.15677,74 Z"
     id="rect4158-9-3"
     inkscape:connector-curvature="0"
     sodipodi:nodetypes="scccssscsss"
     transform="matrix(0,0.5,-0.5,0,277,-15.997305)" /><path
     sodipodi:nodetypes="scccssscsss"
     inkscape:connector-curvature="0"
     id="path4350-6"
     d="M 189.84323,74 C 119.24979,74 111.65402,81.250835 112,151.98706 V 298 444.01294 C 111.65402,514.74917 119.24979,522 189.84323,522 H 386.15677 C 456.75021,522 464,514.75001 464,444.01294 V 298 151.98706 C 464,81.249993 456.75021,74 386.15677,74 Z"
     style="color:#000000;display:inline;overflow:visible;visibility:visible;opacity:0.3;fill:url(#linearGradient4358-7);fill-opacity:1;fill-rule:nonzero;stroke:none;stroke-width:2;marker:none;filter:url(#filter4380-6);enable-background:accumulate"
     transform="matrix(0,0.5,-0.5,0,277,-15.997305)" /><path
     style="color:#000000;display:inline;overflow:visible;visibility:visible;opacity:0.1;fill:#000000;fill-opacity:1;fill-rule:nonzero;stroke:none;stroke-width:1.02029;marker:none;enable-background:accumulate"
     d="m 242.0052,76.809099 c 0,-36.098813 -3.69016,-39.983003 -39.68984,-39.806083 H 128.0052 53.695044 c -35.99969,-0.17692 -39.68984,3.70727 -39.68984,39.806083 V 177.19642 c 0,36.09881 3.68973,39.80608 39.68984,39.80608 h 74.310156 74.31016 c 36.00011,0 39.68984,-3.70727 39.68984,-39.80608 z"
     id="rect4158-7-0"
     inkscape:connector-curvature="0"
     sodipodi:nodetypes="scccssscsss" /><path
     style="color:#000000;display:inline;overflow:visible;visibility:visible;fill:#262626;fill-opacity:1;fill-rule:nonzero;stroke:none;stroke-width:1;marker:none;enable-background:accumulate"
     d="m 240,176.07568 c 0,35.29673 -3.62542,39.09461 -38.99353,38.92162 H 128 54.993534 c -35.36812,0.17299 -38.99353,-3.62489 -38.99353,-38.92162 V 77.918919 c 0,-35.296723 3.625,-38.921613 38.99353,-38.921613 H 128 201.00647 C 236.375,38.997306 240,42.622196 240,77.918919 Z"
     id="rect4158-62"
     inkscape:connector-curvature="0"
     sodipodi:nodetypes="scccssscsss" /><path
     id="path965-6"
     style="color:#000000;display:inline;overflow:visible;visibility:visible;fill:url(#linearGradient3473);fill-opacity:1;fill-rule:nonzero;stroke:none;stroke-width:1;marker:none;enable-background:accumulate"
     d="M 111.0027,38.998046 V 214.99805 h 90.00391 c 35.36811,0.17299 38.99414,-3.62515 38.99414,-38.92188 V 77.917969 c 0,-35.296723 -3.62561,-38.919923 -38.99414,-38.919923 z"
     sodipodi:nodetypes="cccsssc" /><path
     id="path969-1"
     style="display:inline;opacity:0.2;fill:#000000;fill-opacity:1;fill-rule:nonzero;stroke-width:0;stroke-linecap:butt;stroke-linejoin:miter;stroke-miterlimit:10;enable-background:new"
     d="m 111.00266,81.244679 c 1.14279,-0.0884 2.28529,-0.16255 3.43434,-0.20166 44.25837,-1.49165 73.09586,36.298911 73.09586,36.298911 0,0 -33.12066,40.27407 -67.62658,40.27407 -3.16243,0 -6.12337,-0.29326 -8.90409,-0.78526 l 4.7e-4,10.74607 c 2.37788,0.30194 4.84296,0.47971 7.41561,0.47971 32.11004,0 55.33146,-16.39829 77.81655,-35.80698 3.72796,2.98565 18.99027,10.24834 22.12767,13.42876 -21.37906,17.89907 -71.20475,32.32681 -99.45229,32.32681 -2.72284,0 -5.33723,-0.16453 -7.90754,-0.41248 z m 4.91777,9.21986 c -0.4919,0.002 -0.98615,0.0103 -1.48343,0.0259 -1.16391,0.0368 -2.30328,0.0982 -3.43434,0.17722 v 11.638261 c 2.08143,-0.22292 4.20199,-0.37887 6.41953,-0.37887 20.38645,0 32.47959,15.86092 32.47959,15.86092 l -16.56674,13.96957 c -7.44887,-12.41741 -9.94235,-17.88979 -22.33238,-19.38692 v 35.28755 c 2.80809,0.94412 5.92777,1.50329 9.40777,1.50329 24.1809,0 46.73333,-31.32156 46.73333,-31.32156 0,0 -20.23359,-27.470501 -51.22333,-27.375421 z"
     sodipodi:nodetypes="cccsccsccsccscccsccccscss" /><path
     id="path971-8"
     style="display:inline;opacity:0.3;fill:#000000;fill-opacity:1;fill-rule:nonzero;stroke-width:0;stroke-linecap:butt;stroke-linejoin:miter;stroke-miterlimit:10;enable-background:new"
     d="m 111.0027,81.329249 c -38.929236,3.12645 -72.640626,36.097661 -72.640626,36.097661 0,0 19.09366,55.19621 72.640626,60.25 V 167.66128 C 71.706614,162.717 58.252704,119.40933 58.252704,119.40933 c 0,0 17.60347,-25.972131 52.749996,-28.658201 z m 0,20.976561 c -23.682626,2.56092 -37.941406,18.35743 -37.941406,18.35743 0,0 8.24288,30.87326 37.941406,36.16796 v -9.17187 -0.002 C 94.258954,142.03176 88.817154,122.4835 88.817154,122.4835 c 0,0 9.71071,-11.61079 22.140626,-10.11914 0.0149,0 0.0269,0.006 0.0449,0.006 z" /><path
     id="path845-7"
     style="fill:#262626;fill-opacity:1;fill-rule:nonzero;stroke-width:0;stroke-linecap:butt;stroke-linejoin:miter;stroke-miterlimit:10"
     d="m 111.00266,79.091209 c 1.14279,-0.0884 2.28529,-0.16255 3.43434,-0.20166 44.25837,-1.49165 73.09586,36.298911 73.09586,36.298911 0,0 -33.12066,40.27407 -67.62658,40.27407 -3.16243,0 -6.12337,-0.29326 -8.90409,-0.78526 l 4.7e-4,10.74607 c 2.37788,0.30194 4.84296,0.47971 7.41561,0.47971 32.11004,0 55.33146,-16.39829 77.81655,-35.80698 3.72796,2.98565 18.99027,10.24834 22.12767,13.42876 -21.37906,17.89907 -71.20475,32.32681 -99.45229,32.32681 -2.72284,0 -5.33723,-0.16453 -7.90754,-0.41248 z m 4.91777,9.21986 c -0.4919,0.002 -0.98615,0.0103 -1.48343,0.0259 -1.16391,0.0368 -2.30328,0.0982 -3.43434,0.17722 v 11.638261 c 2.08143,-0.222921 4.20199,-0.378871 6.41953,-0.378871 20.38645,0 32.47959,15.860921 32.47959,15.860921 l -16.56674,13.96957 c -7.44887,-12.41741 -9.94235,-17.88979 -22.33238,-19.38692 v 35.28755 c 2.80809,0.94412 5.92777,1.50329 9.40777,1.50329 24.1809,0 46.73333,-31.32156 46.73333,-31.32156 0,0 -20.23359,-27.470501 -51.22333,-27.375421 z"
     sodipodi:nodetypes="cccsccsccsccscccsccccscss" /><path
     id="path6-9"
     style="fill:url(#linearGradient3477);fill-opacity:1;fill-rule:nonzero;stroke-width:0;stroke-linecap:butt;stroke-linejoin:miter;stroke-miterlimit:10"
     d="m 111.0027,79.175779 c -38.929236,3.12645 -72.640626,36.097661 -72.640626,36.097661 0,0 19.09366,55.19621 72.640626,60.25 v -10.01563 c -39.296086,-4.94428 -52.749996,-48.25195 -52.749996,-48.25195 0,0 17.60347,-25.972131 52.749996,-28.658201 z m 0,20.976561 c -23.682626,2.56092 -37.941406,18.35743 -37.941406,18.35743 0,0 8.24288,30.87326 37.941406,36.16796 v -9.17187 -0.002 c -16.743746,-5.62557 -22.185546,-25.17383 -22.185546,-25.17383 0,0 9.71071,-11.61079 22.140626,-10.11914 0.0149,0 0.0269,0.006 0.0449,0.006 z" /><path
     id="path1027-2"
     style="color:#000000;display:inline;overflow:visible;visibility:visible;opacity:0.2;fill:url(#linearGradient3471);fill-opacity:1;fill-rule:nonzero;stroke:none;stroke-width:1;marker:none;enable-background:accumulate"
     d="m 15.502704,115.14797 0.49805,60.9282 c 0.28851,35.29555 3.62406,39.09487 38.99218,38.92188 h 73.007816 73.00586 c 35.36811,0.17299 38.99414,-3.62515 38.99414,-38.92188 l -0.49805,-60.9282 z"
     sodipodi:nodetypes="cscccscc" /><path
     style="color:#000000;display:inline;overflow:visible;visibility:visible;opacity:0.3;fill:#ffffff;fill-opacity:1;fill-rule:nonzero;stroke:none;stroke-width:1;marker:none;enable-background:accumulate"
     d="m 54.992934,38.998046 c -35.36853,0 -38.99218,3.6232 -38.99218,38.919923 v 98.158201 c 0,0.0882 0.002,0.16224 0.002,0.25 V 79.916019 c -5e-5,-35.296723 3.62556,-38.921883 38.99409,-38.921883 h 73.005856 73.00586 c 35.28016,0 38.97394,3.62104 38.99219,38.671883 v -1.74805 c 0,-35.296723 -3.62561,-38.919923 -38.99414,-38.919923 h -73.00586 z"
     id="rect4158-78-0"
     inkscape:connector-curvature="0" /><path
     style="color:#000000;display:inline;overflow:visible;visibility:visible;opacity:0.2;fill:#000000;fill-opacity:1;fill-rule:nonzero;stroke:none;stroke-width:1;marker:none;enable-background:accumulate"
     d="m 16.000754,174.07617 v 2 c 0,35.29673 3.62406,39.09487 38.99218,38.92188 h 73.007816 73.00586 c 35.36811,0.17299 38.99414,-3.62515 38.99414,-38.92188 v -2 c 0,35.29673 -3.62603,39.09487 -38.99414,38.92188 H 128.00075 54.992934 c -35.36812,0.17299 -38.99218,-3.62515 -38.99218,-38.92188 z"
     id="rect4158-6-2"
     inkscape:connector-curvature="0" /></svg>
