<?xml version="1.0" encoding="UTF-8" standalone="no"?>
<svg
   enable-background="new"
   height="256"
   viewBox="0 0 256 256"
   width="256"
   version="1.1"
   id="svg41"
   sodipodi:docname="nvidia.svg"
   xml:space="preserve"
   inkscape:version="1.2 (dc2aedaf03, 2022-05-15)"
   xmlns:inkscape="http://www.inkscape.org/namespaces/inkscape"
   xmlns:sodipodi="http://sodipodi.sourceforge.net/DTD/sodipodi-0.dtd"
   xmlns:xlink="http://www.w3.org/1999/xlink"
   xmlns="http://www.w3.org/2000/svg"
   xmlns:svg="http://www.w3.org/2000/svg"><defs
     id="defs45"><linearGradient
       id="linearGradient1148"><stop
         id="stop1144"
         offset="0"
         style="stop-color:#ffffff;stop-opacity:1" /><stop
         id="stop1146"
         offset="1"
         style="stop-color:#f2f2f2;stop-opacity:1" /></linearGradient><linearGradient
       id="linearGradient982"><stop
         id="stop977"
         offset="0"
         style="stop-color:#8ad600;stop-opacity:1" /><stop
         id="stop979"
         offset="1"
         style="stop-color:#70ad00;stop-opacity:1" /></linearGradient><clipPath
       clipPathUnits="userSpaceOnUse"
       id="clipPath9430"><path
         sodipodi:nodetypes="sssssssss"
         inkscape:connector-curvature="0"
         id="path9432"
         d="m 166.0625,-196 h 179.875 C 491.2348,-196 512,-175.28677 512,-30.125 v 148.25 C 512,263.28618 491.2348,284 345.9375,284 H 166.0625 C 20.7652,284 0,263.28618 0,118.125 V -30.125 C 0,-175.28677 20.7652,-196 166.0625,-196 Z"
         style="color:#000000;display:inline;overflow:visible;visibility:visible;fill:#ffffff;fill-opacity:1;fill-rule:nonzero;stroke:none;stroke-width:1;marker:none;enable-background:new" /></clipPath><clipPath
       clipPathUnits="userSpaceOnUse"
       id="clipPath1082"><path
         sodipodi:nodetypes="sssssssss"
         inkscape:connector-curvature="0"
         id="path1084"
         d="M 361.9375,-212 C 507.2348,-212 528,-191.28677 528,-46.125 V 70.125 C 528,215.28618 507.2348,236 361.9375,236 H 214.0625 C 68.7652,236 48,215.28618 48,70.125 V -46.125 C 48,-191.28677 68.7652,-212 214.0625,-212 Z"
         style="display:inline;opacity:1;fill:#8c59d9;fill-opacity:1;stroke:none;stroke-width:2;stroke-linecap:round;stroke-linejoin:round;stroke-miterlimit:4;stroke-dasharray:none;stroke-dashoffset:0;stroke-opacity:1;enable-background:new" /></clipPath><linearGradient
       id="linearGradient4360"
       inkscape:collect="always"><stop
         id="stop4362"
         offset="0"
         style="stop-color:#000000;stop-opacity:0.58823532" /><stop
         style="stop-color:#000000;stop-opacity:0"
         offset="0.88"
         id="stop4364" /><stop
         id="stop4366"
         offset="1"
         style="stop-color:#000000;stop-opacity:1" /></linearGradient><clipPath
       clipPathUnits="userSpaceOnUse"
       id="clipPath994"><path
         style="color:#000000;display:inline;overflow:visible;visibility:visible;fill:#cdcdcd;fill-opacity:1;fill-rule:nonzero;stroke:none;stroke-width:2;stroke-miterlimit:4;stroke-dasharray:none;stroke-opacity:1;marker:none;enable-background:accumulate"
         d="m 335.73108,62 c -8.82418,0 -9.77365,0.90635 -9.7304,9.74838 V 84 96.25162 c -0.0433,8.84203 0.90622,9.74838 9.7304,9.74838 h 16.53919 c 8.82418,0 9.7304,-0.90625 9.7304,-9.74838 V 84 71.74838 C 362.00067,62.90625 361.09445,62 352.27027,62 Z"
         id="path996"
         inkscape:connector-curvature="0"
         sodipodi:nodetypes="scccssscsss" /></clipPath><clipPath
       clipPathUnits="userSpaceOnUse"
       id="clipPath959"><path
         style="color:#000000;display:inline;overflow:visible;visibility:visible;opacity:1;fill:#46a926;fill-opacity:1;fill-rule:nonzero;stroke:none;stroke-width:2;stroke-miterlimit:4;stroke-dasharray:none;stroke-opacity:1;marker:none;enable-background:accumulate"
         d="m 330.1929,133.99999 c -5.61538,0 -6.21958,0.57678 -6.19206,6.20352 v 7.79648 7.79648 c -0.0276,5.62673 0.57668,6.20351 6.19206,6.20351 h 11.615 c 5.6154,0 6.19208,-0.5767 6.19208,-6.20351 v -7.79648 -7.79648 c 0,-5.6268 -0.5767,-6.20352 -6.19208,-6.20352 z"
         id="path961"
         inkscape:connector-curvature="0"
         sodipodi:nodetypes="scccssscsss" /></clipPath><clipPath
       clipPathUnits="userSpaceOnUse"
       id="clipPath971"><path
         style="color:#000000;display:inline;overflow:visible;visibility:visible;opacity:1;fill:#46a926;fill-opacity:1;fill-rule:nonzero;stroke:none;stroke-width:2;stroke-miterlimit:4;stroke-dasharray:none;stroke-opacity:1;marker:none;enable-background:accumulate"
         d="m 327.8652,189 c -4.41209,0 -4.88682,0.45318 -4.8652,4.87419 V 200 206.12581 C 322.9783,210.54682 323.45311,211 327.8652,211 h 8.2696 C 340.54689,211 341,210.54688 341,206.12581 V 200 193.87419 C 341,189.45313 340.54688,189 336.13479,189 Z"
         id="path973"
         inkscape:connector-curvature="0"
         sodipodi:nodetypes="scccssscsss" /></clipPath><clipPath
       clipPathUnits="userSpaceOnUse"
       id="clipPath983"><path
         sodipodi:nodetypes="scccssscsss"
         inkscape:connector-curvature="0"
         id="path985"
         d="m 325.09646,237 c -2.80769,0 -3.10979,0.28839 -3.09603,3.10176 V 244 v 3.89824 c -0.0138,2.81337 0.28834,3.10176 3.09603,3.10176 h 5.8075 C 333.71166,251 334,250.71165 334,247.89824 V 244 240.10176 C 334,237.28836 333.71165,237 330.90396,237 Z"
         style="color:#000000;display:inline;overflow:visible;visibility:visible;opacity:1;fill:#46a926;fill-opacity:1;fill-rule:nonzero;stroke:none;stroke-width:2;stroke-miterlimit:4;stroke-dasharray:none;stroke-opacity:1;marker:none;enable-background:accumulate" /></clipPath><linearGradient
       id="linearGradient4336-3"><stop
         style="stop-color:#5884f4;stop-opacity:1"
         offset="0"
         id="stop4338-8" /><stop
         id="stop4344-3"
         offset="0.27800092"
         style="stop-color:#5884f4;stop-opacity:1" /><stop
         style="stop-color:#2f5fdd;stop-opacity:1"
         offset="0.27800092"
         id="stop4346-3" /><stop
         id="stop4350-1"
         offset="0.70735365"
         style="stop-color:#2f5fdd;stop-opacity:1" /><stop
         id="stop4348-6"
         offset="0.70936078"
         style="stop-color:#234db8;stop-opacity:1" /><stop
         style="stop-color:#234db8;stop-opacity:1"
         offset="1"
         id="stop4340-0" /></linearGradient><clipPath
       clipPathUnits="userSpaceOnUse"
       id="clipPath994-1"><path
         style="color:#000000;display:inline;overflow:visible;visibility:visible;fill:#cdcdcd;fill-opacity:1;fill-rule:nonzero;stroke:none;stroke-width:2;stroke-miterlimit:4;stroke-dasharray:none;stroke-opacity:1;marker:none;enable-background:accumulate"
         d="m 335.73108,62 c -8.82418,0 -9.77365,0.90635 -9.7304,9.74838 V 84 96.25162 c -0.0433,8.84203 0.90622,9.74838 9.7304,9.74838 h 16.53919 c 8.82418,0 9.7304,-0.90625 9.7304,-9.74838 V 84 71.74838 C 362.00067,62.90625 361.09445,62 352.27027,62 Z"
         id="path996-8"
         inkscape:connector-curvature="0"
         sodipodi:nodetypes="scccssscsss" /></clipPath><clipPath
       clipPathUnits="userSpaceOnUse"
       id="clipPath1144"><path
         sodipodi:nodetypes="sssssssss"
         inkscape:connector-curvature="0"
         id="path1146"
         d="m 563.72139,-143.78206 c 77.49205,0 88.56678,11.04708 88.56678,88.466604 V 6.684672 c 0,77.419349 -11.07473,88.466603 -88.56678,88.466603 h -78.86661 c -77.49171,0 -88.56661,-11.047254 -88.56661,-88.466603 v -62.000128 c 0,-77.419524 11.0749,-88.466604 88.56678,-88.466604 z"
         style="display:inline;opacity:1;fill:#a3dbf0;fill-opacity:1;stroke:none;stroke-width:2;stroke-linecap:round;stroke-linejoin:round;stroke-miterlimit:4;stroke-dasharray:none;stroke-dashoffset:0;stroke-opacity:1;enable-background:new" /></clipPath><clipPath
       clipPathUnits="userSpaceOnUse"
       id="clipPath1151"><path
         sodipodi:nodetypes="sssssssss"
         inkscape:connector-curvature="0"
         id="path1153"
         d="m 335.71582,189.50031 c 6.81081,10e-6 7.78418,0.97093 7.78418,7.77539 v 5.44891 c 0,6.80444 -0.97337,7.77539 -7.78418,7.77539 h -7.43164 c -6.81081,0 -7.78418,-0.97095 -7.78418,-7.77539 v -5.44892 c 0,-6.80446 0.97337,-7.7754 7.78418,-7.77539 z"
         style="display:inline;opacity:1;fill:#a3dbf0;fill-opacity:1;stroke:none;stroke-width:2;stroke-linecap:round;stroke-linejoin:round;stroke-miterlimit:4;stroke-dasharray:none;stroke-dashoffset:0;stroke-opacity:1;enable-background:new" /></clipPath><clipPath
       clipPathUnits="userSpaceOnUse"
       id="clipPath1158"><path
         style="display:inline;opacity:1;fill:#a3dbf0;fill-opacity:1;stroke:none;stroke-width:2;stroke-linecap:round;stroke-linejoin:round;stroke-miterlimit:4;stroke-dasharray:none;stroke-dashoffset:0;stroke-opacity:1;enable-background:new"
         d="m 341.12109,133.5 c 9.08109,0 10.37891,1.29458 10.37891,10.36719 v 8.26562 c 0,9.07258 -1.29782,10.36719 -10.37891,10.36719 H 330.87891 C 321.79783,162.5 320.5,161.20539 320.5,152.13281 v -8.26562 c 0,-9.07261 1.29783,-10.36719 10.37891,-10.36719 z"
         id="path1160"
         inkscape:connector-curvature="0"
         sodipodi:nodetypes="sssssssss" /></clipPath><clipPath
       clipPathUnits="userSpaceOnUse"
       id="clipPath1165"><path
         style="display:inline;opacity:1;fill:#a3dbf0;fill-opacity:1;stroke:none;stroke-width:2;stroke-linecap:round;stroke-linejoin:round;stroke-miterlimit:4;stroke-dasharray:none;stroke-dashoffset:0;stroke-opacity:1;enable-background:new"
         d="M 351.93164,62.5 C 365.55326,62.5 367.5,64.44187 367.5,78.05078 V 89.94922 C 367.5,103.55808 365.55326,105.5 351.93164,105.5 H 336.06836 C 322.44674,105.5 320.5,103.55808 320.5,89.94922 V 78.05078 C 320.5,64.44187 322.44674,62.5 336.06836,62.5 Z"
         id="path1167"
         inkscape:connector-curvature="0"
         sodipodi:nodetypes="sssssssss" /></clipPath><clipPath
       clipPathUnits="userSpaceOnUse"
       id="clipPath1082-3"><path
         sodipodi:nodetypes="sssssssss"
         inkscape:connector-curvature="0"
         id="path1084-6"
         d="M 361.9375,-212 C 507.2348,-212 528,-191.28677 528,-46.125 V 70.125 C 528,215.28618 507.2348,236 361.9375,236 H 214.0625 C 68.7652,236 48,215.28618 48,70.125 V -46.125 C 48,-191.28677 68.7652,-212 214.0625,-212 Z"
         style="display:inline;opacity:1;fill:#8c59d9;fill-opacity:1;stroke:none;stroke-width:2;stroke-linecap:round;stroke-linejoin:round;stroke-miterlimit:4;stroke-dasharray:none;stroke-dashoffset:0;stroke-opacity:1;enable-background:new" /></clipPath><clipPath
       clipPathUnits="userSpaceOnUse"
       id="clipPath1064"><path
         style="opacity:1;fill:#a3dbf0;fill-opacity:1;stroke:none;stroke-width:2;stroke-linecap:round;stroke-linejoin:round;stroke-miterlimit:4;stroke-dasharray:none;stroke-dashoffset:0;stroke-opacity:1"
         d="M 115.03125,44 C 42.3826,44 32,54.356615 32,126.9375 v 58.125 c 0,10.16582 0.217657,19.07051 0.767578,26.9375 3.376331,48.30069 19.790377,56 82.263672,56 h 73.9375 c 62.4733,0 78.88734,-7.69931 82.26367,-56 C 271.78234,204.13301 272,195.22832 272,185.0625 v -58.125 C 272,54.356615 261.6174,44 188.96875,44 Z"
         id="path1066"
         inkscape:connector-curvature="0" /></clipPath><clipPath
       clipPathUnits="userSpaceOnUse"
       id="clipPath1064-8"><path
         style="opacity:1;fill:#a3dbf0;fill-opacity:1;stroke:none;stroke-width:2;stroke-linecap:round;stroke-linejoin:round;stroke-miterlimit:4;stroke-dasharray:none;stroke-dashoffset:0;stroke-opacity:1"
         d="M 115.03125,44 C 42.3826,44 32,54.356615 32,126.9375 v 58.125 c 0,10.16582 0.217657,19.07051 0.767578,26.9375 3.376331,48.30069 19.790377,56 82.263672,56 h 73.9375 c 62.4733,0 78.88734,-7.69931 82.26367,-56 C 271.78234,204.13301 272,195.22832 272,185.0625 v -58.125 C 272,54.356615 261.6174,44 188.96875,44 Z"
         id="path1066-4"
         inkscape:connector-curvature="0" /></clipPath><clipPath
       clipPathUnits="userSpaceOnUse"
       id="clipPath1144-3"><path
         sodipodi:nodetypes="sssssssss"
         inkscape:connector-curvature="0"
         id="path1146-8"
         d="m 563.72139,-143.78206 c 77.49205,0 88.56678,11.04708 88.56678,88.466604 V 6.684672 c 0,77.419349 -11.07473,88.466603 -88.56678,88.466603 h -78.86661 c -77.49171,0 -88.56661,-11.047254 -88.56661,-88.466603 v -62.000128 c 0,-77.419524 11.0749,-88.466604 88.56678,-88.466604 z"
         style="display:inline;opacity:1;fill:#a3dbf0;fill-opacity:1;stroke:none;stroke-width:2;stroke-linecap:round;stroke-linejoin:round;stroke-miterlimit:4;stroke-dasharray:none;stroke-dashoffset:0;stroke-opacity:1;enable-background:new" /></clipPath><clipPath
       clipPathUnits="userSpaceOnUse"
       id="clipPath1151-3"><path
         sodipodi:nodetypes="sssssssss"
         inkscape:connector-curvature="0"
         id="path1153-6"
         d="m 335.71582,189.50031 c 6.81081,10e-6 7.78418,0.97093 7.78418,7.77539 v 5.44891 c 0,6.80444 -0.97337,7.77539 -7.78418,7.77539 h -7.43164 c -6.81081,0 -7.78418,-0.97095 -7.78418,-7.77539 v -5.44892 c 0,-6.80446 0.97337,-7.7754 7.78418,-7.77539 z"
         style="display:inline;opacity:1;fill:#a3dbf0;fill-opacity:1;stroke:none;stroke-width:2;stroke-linecap:round;stroke-linejoin:round;stroke-miterlimit:4;stroke-dasharray:none;stroke-dashoffset:0;stroke-opacity:1;enable-background:new" /></clipPath><clipPath
       clipPathUnits="userSpaceOnUse"
       id="clipPath1158-2"><path
         style="display:inline;opacity:1;fill:#a3dbf0;fill-opacity:1;stroke:none;stroke-width:2;stroke-linecap:round;stroke-linejoin:round;stroke-miterlimit:4;stroke-dasharray:none;stroke-dashoffset:0;stroke-opacity:1;enable-background:new"
         d="m 341.12109,133.5 c 9.08109,0 10.37891,1.29458 10.37891,10.36719 v 8.26562 c 0,9.07258 -1.29782,10.36719 -10.37891,10.36719 H 330.87891 C 321.79783,162.5 320.5,161.20539 320.5,152.13281 v -8.26562 c 0,-9.07261 1.29783,-10.36719 10.37891,-10.36719 z"
         id="path1160-3"
         inkscape:connector-curvature="0"
         sodipodi:nodetypes="sssssssss" /></clipPath><clipPath
       clipPathUnits="userSpaceOnUse"
       id="clipPath1165-5"><path
         style="display:inline;opacity:1;fill:#a3dbf0;fill-opacity:1;stroke:none;stroke-width:2;stroke-linecap:round;stroke-linejoin:round;stroke-miterlimit:4;stroke-dasharray:none;stroke-dashoffset:0;stroke-opacity:1;enable-background:new"
         d="M 351.93164,62.5 C 365.55326,62.5 367.5,64.44187 367.5,78.05078 V 89.94922 C 367.5,103.55808 365.55326,105.5 351.93164,105.5 H 336.06836 C 322.44674,105.5 320.5,103.55808 320.5,89.94922 V 78.05078 C 320.5,64.44187 322.44674,62.5 336.06836,62.5 Z"
         id="path1167-1"
         inkscape:connector-curvature="0"
         sodipodi:nodetypes="sssssssss" /></clipPath><clipPath
       clipPathUnits="userSpaceOnUse"
       id="clipPath1144-5"><path
         sodipodi:nodetypes="sssssssss"
         inkscape:connector-curvature="0"
         id="path1146-3"
         d="m 563.72139,-143.78206 c 77.49205,0 88.56678,11.04708 88.56678,88.466604 V 6.684672 c 0,77.419349 -11.07473,88.466603 -88.56678,88.466603 h -78.86661 c -77.49171,0 -88.56661,-11.047254 -88.56661,-88.466603 v -62.000128 c 0,-77.419524 11.0749,-88.466604 88.56678,-88.466604 z"
         style="display:inline;opacity:1;fill:#a3dbf0;fill-opacity:1;stroke:none;stroke-width:2;stroke-linecap:round;stroke-linejoin:round;stroke-miterlimit:4;stroke-dasharray:none;stroke-dashoffset:0;stroke-opacity:1;enable-background:new" /></clipPath><clipPath
       clipPathUnits="userSpaceOnUse"
       id="clipPath1151-0"><path
         sodipodi:nodetypes="sssssssss"
         inkscape:connector-curvature="0"
         id="path1153-8"
         d="m 335.71582,189.50031 c 6.81081,10e-6 7.78418,0.97093 7.78418,7.77539 v 5.44891 c 0,6.80444 -0.97337,7.77539 -7.78418,7.77539 h -7.43164 c -6.81081,0 -7.78418,-0.97095 -7.78418,-7.77539 v -5.44892 c 0,-6.80446 0.97337,-7.7754 7.78418,-7.77539 z"
         style="display:inline;opacity:1;fill:#a3dbf0;fill-opacity:1;stroke:none;stroke-width:2;stroke-linecap:round;stroke-linejoin:round;stroke-miterlimit:4;stroke-dasharray:none;stroke-dashoffset:0;stroke-opacity:1;enable-background:new" /></clipPath><clipPath
       clipPathUnits="userSpaceOnUse"
       id="clipPath1158-9"><path
         style="display:inline;opacity:1;fill:#a3dbf0;fill-opacity:1;stroke:none;stroke-width:2;stroke-linecap:round;stroke-linejoin:round;stroke-miterlimit:4;stroke-dasharray:none;stroke-dashoffset:0;stroke-opacity:1;enable-background:new"
         d="m 341.12109,133.5 c 9.08109,0 10.37891,1.29458 10.37891,10.36719 v 8.26562 c 0,9.07258 -1.29782,10.36719 -10.37891,10.36719 H 330.87891 C 321.79783,162.5 320.5,161.20539 320.5,152.13281 v -8.26562 c 0,-9.07261 1.29783,-10.36719 10.37891,-10.36719 z"
         id="path1160-4"
         inkscape:connector-curvature="0"
         sodipodi:nodetypes="sssssssss" /></clipPath><clipPath
       clipPathUnits="userSpaceOnUse"
       id="clipPath1165-7"><path
         style="display:inline;opacity:1;fill:#a3dbf0;fill-opacity:1;stroke:none;stroke-width:2;stroke-linecap:round;stroke-linejoin:round;stroke-miterlimit:4;stroke-dasharray:none;stroke-dashoffset:0;stroke-opacity:1;enable-background:new"
         d="M 351.93164,62.5 C 365.55326,62.5 367.5,64.44187 367.5,78.05078 V 89.94922 C 367.5,103.55808 365.55326,105.5 351.93164,105.5 H 336.06836 C 322.44674,105.5 320.5,103.55808 320.5,89.94922 V 78.05078 C 320.5,64.44187 322.44674,62.5 336.06836,62.5 Z"
         id="path1167-7"
         inkscape:connector-curvature="0"
         sodipodi:nodetypes="sssssssss" /></clipPath><clipPath
       clipPathUnits="userSpaceOnUse"
       id="clipPath1082-3-6"><path
         sodipodi:nodetypes="sssssssss"
         inkscape:connector-curvature="0"
         id="path1084-6-4"
         d="M 361.9375,-212 C 507.2348,-212 528,-191.28677 528,-46.125 V 70.125 C 528,215.28618 507.2348,236 361.9375,236 H 214.0625 C 68.7652,236 48,215.28618 48,70.125 V -46.125 C 48,-191.28677 68.7652,-212 214.0625,-212 Z"
         style="display:inline;opacity:1;fill:#8c59d9;fill-opacity:1;stroke:none;stroke-width:2;stroke-linecap:round;stroke-linejoin:round;stroke-miterlimit:4;stroke-dasharray:none;stroke-dashoffset:0;stroke-opacity:1;enable-background:new" /></clipPath><clipPath
       clipPathUnits="userSpaceOnUse"
       id="clipPath1064-6"><path
         style="opacity:1;fill:#a3dbf0;fill-opacity:1;stroke:none;stroke-width:2;stroke-linecap:round;stroke-linejoin:round;stroke-miterlimit:4;stroke-dasharray:none;stroke-dashoffset:0;stroke-opacity:1"
         d="M 115.03125,44 C 42.3826,44 32,54.356615 32,126.9375 v 58.125 c 0,10.16582 0.217657,19.07051 0.767578,26.9375 3.376331,48.30069 19.790377,56 82.263672,56 h 73.9375 c 62.4733,0 78.88734,-7.69931 82.26367,-56 C 271.78234,204.13301 272,195.22832 272,185.0625 v -58.125 C 272,54.356615 261.6174,44 188.96875,44 Z"
         id="path1066-1"
         inkscape:connector-curvature="0" /></clipPath><linearGradient
       id="linearGradient3797-5"><stop
         id="stop3801"
         offset="0"
         style="stop-color:#f7f7f7;stop-opacity:1" /><stop
         id="stop3799"
         offset="1"
         style="stop-color:#e6e6e6;stop-opacity:1" /></linearGradient><filter
       inkscape:collect="always"
       style="color-interpolation-filters:sRGB"
       id="filter4346-3"
       x="-0.014454287"
       width="1.0289086"
       y="-0.011357288"
       height="1.0227146"><feGaussianBlur
         inkscape:collect="always"
         stdDeviation="2.120027"
         id="feGaussianBlur4348-6" /></filter><linearGradient
       inkscape:collect="always"
       xlink:href="#linearGradient4360"
       id="linearGradient4358-7"
       x1="88"
       y1="88"
       x2="488"
       y2="488"
       gradientUnits="userSpaceOnUse"
       gradientTransform="rotate(-90,287.9946,298)" /><filter
       inkscape:collect="always"
       style="color-interpolation-filters:sRGB"
       id="filter4380-6"
       x="-0.057817147"
       width="1.1156343"
       y="-0.045429151"
       height="1.0908583"><feGaussianBlur
         inkscape:collect="always"
         stdDeviation="8.4801079"
         id="feGaussianBlur4382-2" /></filter><linearGradient
       inkscape:collect="always"
       xlink:href="#linearGradient3797-5"
       id="linearGradient3471"
       gradientUnits="userSpaceOnUse"
       gradientTransform="translate(-71.89582,-5.456662)"
       x1="152.0025"
       y1="246.0025"
       x2="151.9973"
       y2="69.002701" /><linearGradient
       inkscape:collect="always"
       xlink:href="#linearGradient982"
       id="linearGradient3473"
       gradientUnits="userSpaceOnUse"
       gradientTransform="translate(-71.89582,-5.456662)"
       x1="152.0025"
       y1="246.0025"
       x2="151.9973"
       y2="69.002701" /><linearGradient
       inkscape:collect="always"
       xlink:href="#linearGradient1148"
       id="linearGradient3475"
       gradientUnits="userSpaceOnUse"
       gradientTransform="translate(-71.89582,-5.456662)"
       x1="144"
       y1="68"
       x2="144"
       y2="244" /><linearGradient
       inkscape:collect="always"
       xlink:href="#linearGradient982"
       id="linearGradient3477"
       gradientUnits="userSpaceOnUse"
       gradientTransform="translate(-71.89582,-5.456662)"
       x1="135"
       y1="244"
       x2="135"
       y2="68" /><linearGradient
       inkscape:collect="always"
       xlink:href="#linearGradient3797-5"
       id="linearGradient3479"
       gradientUnits="userSpaceOnUse"
       gradientTransform="translate(-71.89582,-5.456662)"
       x1="152.0025"
       y1="246.0025"
       x2="151.9973"
       y2="69.002701" /></defs><sodipodi:namedview
     id="namedview43"
     pagecolor="#ffffff"
     bordercolor="#000000"
     borderopacity="0.25"
     inkscape:showpageshadow="2"
     inkscape:pageopacity="0.0"
     inkscape:pagecheckerboard="0"
     inkscape:deskcolor="#d1d1d1"
     showgrid="false"
     inkscape:zoom="0.46191406"
     inkscape:cx="287.93235"
     inkscape:cy="99.585624"
     inkscape:window-width="1366"
     inkscape:window-height="704"
     inkscape:window-x="0"
     inkscape:window-y="0"
     inkscape:window-maximized="1"
     inkscape:current-layer="svg41" /><linearGradient
     id="a"
     gradientTransform="matrix(0 -1 1 0 -10.0054 585.9946)"
     gradientUnits="userSpaceOnUse"
     x1="88"
     x2="488"
     y1="88"
     y2="488"><stop
       offset="0"
       stop-opacity=".588235"
       id="stop2" /><stop
       offset=".88"
       stop-opacity="0"
       id="stop4" /><stop
       offset="1"
       id="stop6" /></linearGradient><filter
     id="b"
     color-interpolation-filters="sRGB"
     height="1.0908571"
     width="1.1156328"
     x="-0.057816406"
     y="-0.045428569"><feGaussianBlur
       stdDeviation="8.48"
       id="feGaussianBlur9" /></filter><filter
     id="c"
     color-interpolation-filters="sRGB"
     height="1.0227143"
     width="1.0289082"
     x="-0.014454102"
     y="-0.011357142"><feGaussianBlur
       stdDeviation="2.12"
       id="feGaussianBlur12" /></filter><g
     id="g3505"
     transform="translate(47.898524,-23.543341)"><path
       style="color:#000000;display:inline;overflow:visible;visibility:visible;opacity:0.1;fill:#000000;fill-opacity:1;fill-rule:nonzero;stroke:none;stroke-width:2;marker:none;filter:url(#filter4346-3);enable-background:accumulate"
       d="M 189.84323,74 C 119.24979,74 111.65402,81.250835 112,151.98706 V 298 444.01294 C 111.65402,514.74917 119.24979,522 189.84323,522 H 386.15677 C 456.75021,522 462.16345,514.72616 464,444.01294 V 298 151.98706 C 464,81.249993 456.75021,74 386.15677,74 Z"
       id="rect4158-9-3"
       inkscape:connector-curvature="0"
       sodipodi:nodetypes="scccssscsss"
       transform="matrix(0,0.5,-0.5,0,229.10148,7.546036)" /><path
       sodipodi:nodetypes="scccssscsss"
       inkscape:connector-curvature="0"
       id="path4350-6"
       d="M 189.84323,74 C 119.24979,74 111.65402,81.250835 112,151.98706 V 298 444.01294 C 111.65402,514.74917 119.24979,522 189.84323,522 H 386.15677 C 456.75021,522 464,514.75001 464,444.01294 V 298 151.98706 C 464,81.249993 456.75021,74 386.15677,74 Z"
       style="color:#000000;display:inline;overflow:visible;visibility:visible;opacity:0.3;fill:url(#linearGradient4358-7);fill-opacity:1;fill-rule:nonzero;stroke:none;stroke-width:2;marker:none;filter:url(#filter4380-6);enable-background:accumulate"
       transform="matrix(0,0.5,-0.5,0,229.10148,7.546036)" /><path
       style="color:#000000;display:inline;overflow:visible;visibility:visible;opacity:0.1;fill:#000000;fill-opacity:1;fill-rule:nonzero;stroke:none;stroke-width:1.02029;marker:none;enable-background:accumulate"
       d="m 194.10668,100.35244 c 0,-36.098813 -3.69016,-39.983003 -39.68984,-39.806083 H 80.10668 5.79652 c -35.99969,-0.17692 -39.68984,3.70727 -39.68984,39.806083 v 100.38732 c 0,36.09881 3.68973,39.80608 39.68984,39.80608 h 74.31016 74.31016 c 36.00011,0 39.68984,-3.70727 39.68984,-39.80608 z"
       id="rect4158-7-0"
       inkscape:connector-curvature="0"
       sodipodi:nodetypes="scccssscsss" /><path
       style="color:#000000;display:inline;overflow:visible;visibility:visible;fill:url(#linearGradient3471);fill-opacity:1;fill-rule:nonzero;stroke:none;stroke-width:1;marker:none;enable-background:accumulate"
       d="m 192.10148,199.61902 c 0,35.29673 -3.62542,39.09461 -38.99353,38.92162 H 80.10148 7.09501 c -35.36812,0.17299 -38.99353,-3.62489 -38.99353,-38.92162 v -98.15676 c 0,-35.296723 3.625,-38.921613 38.99353,-38.921613 h 73.00647 73.00647 c 35.36853,0 38.99353,3.62489 38.99353,38.921613 z"
       id="rect4158-62"
       inkscape:connector-curvature="0"
       sodipodi:nodetypes="scccssscsss" /><path
       id="path965-6"
       style="color:#000000;display:inline;overflow:visible;visibility:visible;fill:url(#linearGradient3473);fill-opacity:1;fill-rule:nonzero;stroke:none;stroke-width:1;marker:none;enable-background:accumulate"
       d="M 63.10418,62.541387 V 238.54139 h 90.00391 c 35.36811,0.17299 38.99414,-3.62515 38.99414,-38.92188 v -98.1582 c 0,-35.296723 -3.62561,-38.919923 -38.99414,-38.919923 z"
       sodipodi:nodetypes="cccsssc" /><path
       id="path969-1"
       style="display:inline;opacity:0.2;fill:#000000;fill-opacity:1;fill-rule:nonzero;stroke-width:0;stroke-linecap:butt;stroke-linejoin:miter;stroke-miterlimit:10;enable-background:new"
       d="m 63.10414,104.78802 c 1.14279,-0.0884 2.28529,-0.16255 3.43434,-0.20166 44.25837,-1.49165 73.09586,36.29891 73.09586,36.29891 0,0 -33.12066,40.27407 -67.62658,40.27407 -3.16243,0 -6.12337,-0.29326 -8.90409,-0.78526 l 4.7e-4,10.74607 c 2.37788,0.30194 4.84296,0.47971 7.41561,0.47971 32.11004,0 55.33146,-16.39829 77.81655,-35.80698 3.72796,2.98565 18.99027,10.24834 22.12767,13.42876 -21.37906,17.89907 -71.20475,32.32681 -99.45229,32.32681 -2.72284,0 -5.33723,-0.16453 -7.90754,-0.41248 z m 4.91777,9.21986 c -0.4919,0.002 -0.98615,0.0103 -1.48343,0.0259 -1.16391,0.0368 -2.30328,0.0982 -3.43434,0.17722 v 11.63826 c 2.08143,-0.22292 4.20199,-0.37887 6.41953,-0.37887 20.38645,0 32.47959,15.86092 32.47959,15.86092 L 85.43652,155.30088 C 77.98765,142.88347 75.49417,137.41109 63.10414,135.91396 v 35.28755 c 2.80809,0.94412 5.92777,1.50329 9.40777,1.50329 24.1809,0 46.73333,-31.32156 46.73333,-31.32156 0,0 -20.23359,-27.4705 -51.22333,-27.37542 z"
       sodipodi:nodetypes="cccsccsccsccscccsccccscss" /><path
       id="path971-8"
       style="display:inline;opacity:0.3;fill:#000000;fill-opacity:1;fill-rule:nonzero;stroke-width:0;stroke-linecap:butt;stroke-linejoin:miter;stroke-miterlimit:10;enable-background:new"
       d="m 63.10418,104.87259 c -38.92924,3.12645 -72.64063,36.09766 -72.64063,36.09766 0,0 19.09366,55.19621 72.64063,60.25 v -10.01563 c -39.29609,-4.94428 -52.75,-48.25195 -52.75,-48.25195 0,0 17.60347,-25.97213 52.75,-28.6582 z m 0,20.97656 c -23.68263,2.56092 -37.94141,18.35743 -37.94141,18.35743 0,0 8.24288,30.87326 37.94141,36.16796 v -9.17187 -0.002 C 46.36043,165.5751 40.91863,146.02684 40.91863,146.02684 c 0,0 9.71071,-11.61079 22.14063,-10.11914 0.0149,0 0.0269,0.006 0.0449,0.006 z" /><path
       id="path845-7"
       style="fill:url(#linearGradient3475);fill-opacity:1;fill-rule:nonzero;stroke-width:0;stroke-linecap:butt;stroke-linejoin:miter;stroke-miterlimit:10"
       d="m 63.10414,102.63455 c 1.14279,-0.0884 2.28529,-0.16255 3.43434,-0.20166 44.25837,-1.49165 73.09586,36.29891 73.09586,36.29891 0,0 -33.12066,40.27407 -67.62658,40.27407 -3.16243,0 -6.12337,-0.29326 -8.90409,-0.78526 l 4.7e-4,10.74607 c 2.37788,0.30194 4.84296,0.47971 7.41561,0.47971 32.11004,0 55.33146,-16.39829 77.81655,-35.80698 3.72796,2.98565 18.99027,10.24834 22.12767,13.42876 -21.37906,17.89907 -71.20475,32.32681 -99.45229,32.32681 -2.72284,0 -5.33723,-0.16453 -7.90754,-0.41248 z m 4.91777,9.21986 c -0.4919,0.002 -0.98615,0.0103 -1.48343,0.0259 -1.16391,0.0368 -2.30328,0.0982 -3.43434,0.17722 v 11.63826 c 2.08143,-0.22292 4.20199,-0.37887 6.41953,-0.37887 20.38645,0 32.47959,15.86092 32.47959,15.86092 L 85.43652,153.14741 C 77.98765,140.73 75.49417,135.25762 63.10414,133.76049 v 35.28755 c 2.80809,0.94412 5.92777,1.50329 9.40777,1.50329 24.1809,0 46.73333,-31.32156 46.73333,-31.32156 0,0 -20.23359,-27.4705 -51.22333,-27.37542 z"
       sodipodi:nodetypes="cccsccsccsccscccsccccscss" /><path
       id="path6-9"
       style="fill:url(#linearGradient3477);fill-opacity:1;fill-rule:nonzero;stroke-width:0;stroke-linecap:butt;stroke-linejoin:miter;stroke-miterlimit:10"
       d="m 63.10418,102.71912 c -38.92924,3.12645 -72.64063,36.09766 -72.64063,36.09766 0,0 19.09366,55.19621 72.64063,60.25 v -10.01563 c -39.29609,-4.94428 -52.75,-48.25195 -52.75,-48.25195 0,0 17.60347,-25.97213 52.75,-28.6582 z m 0,20.97656 c -23.68263,2.56092 -37.94141,18.35743 -37.94141,18.35743 0,0 8.24288,30.87326 37.94141,36.16796 v -9.17187 -0.002 c -16.74375,-5.62557 -22.18555,-25.17383 -22.18555,-25.17383 0,0 9.71071,-11.61079 22.14063,-10.11914 0.0149,0 0.0269,0.006 0.0449,0.006 z" /><path
       id="path1027-2"
       style="color:#000000;display:inline;overflow:visible;visibility:visible;opacity:0.2;fill:url(#linearGradient3479);fill-opacity:1;fill-rule:nonzero;stroke:none;stroke-width:1;marker:none;enable-background:accumulate"
       d="m -32.39582,138.69131 0.49805,60.9282 c 0.28851,35.29555 3.62406,39.09487 38.99218,38.92188 h 73.00782 73.00586 c 35.36811,0.17299 38.99414,-3.62515 38.99414,-38.92188 l -0.49805,-60.9282 z"
       sodipodi:nodetypes="cscccscc" /><path
       style="color:#000000;display:inline;overflow:visible;visibility:visible;opacity:0.3;fill:#ffffff;fill-opacity:1;fill-rule:nonzero;stroke:none;stroke-width:1;marker:none;enable-background:accumulate"
       d="m 7.09441,62.541387 c -35.36853,0 -38.99218,3.6232 -38.99218,38.919923 v 98.1582 c 0,0.0882 0.002,0.16224 0.002,0.25 v -96.41015 c -5e-5,-35.296723 3.62556,-38.921883 38.99409,-38.921883 h 73.00586 73.00586 c 35.28016,0 38.97394,3.62104 38.99219,38.671883 v -1.74805 c 0,-35.296723 -3.62561,-38.919923 -38.99414,-38.919923 H 80.10223 Z"
       id="rect4158-78-0"
       inkscape:connector-curvature="0" /><path
       style="color:#000000;display:inline;overflow:visible;visibility:visible;opacity:0.2;fill:#000000;fill-opacity:1;fill-rule:nonzero;stroke:none;stroke-width:1;marker:none;enable-background:accumulate"
       d="m -31.89777,197.61951 v 2 c 0,35.29673 3.62406,39.09487 38.99218,38.92188 h 73.00782 73.00586 c 35.36811,0.17299 38.99414,-3.62515 38.99414,-38.92188 v -2 c 0,35.29673 -3.62603,39.09487 -38.99414,38.92188 H 80.10223 7.09441 c -35.36812,0.17299 -38.99218,-3.62515 -38.99218,-38.92188 z"
       id="rect4158-6-2"
       inkscape:connector-curvature="0" /></g></svg>
