<?xml version="1.0" encoding="UTF-8" standalone="no"?>
<svg
   id="svg16"
   height="256"
   width="256"
   version="1.1"
   sodipodi:docname="onlyoffice.svg"
   inkscape:version="1.2 (dc2aedaf03, 2022-05-15)"
   xmlns:inkscape="http://www.inkscape.org/namespaces/inkscape"
   xmlns:sodipodi="http://sodipodi.sourceforge.net/DTD/sodipodi-0.dtd"
   xmlns="http://www.w3.org/2000/svg"
   xmlns:svg="http://www.w3.org/2000/svg">
  <defs
     id="defs24">
    <filter
       inkscape:collect="always"
       style="color-interpolation-filters:sRGB"
       id="filter2081"
       x="-0.023144194"
       y="-0.024615535"
       width="1.0462884"
       height="1.0492311">
      <feGaussianBlur
         inkscape:collect="always"
         stdDeviation="1.6393804"
         id="feGaussianBlur2083" />
    </filter>
    <filter
       inkscape:collect="always"
       style="color-interpolation-filters:sRGB"
       id="filter2109"
       x="-0.058411699"
       y="-0.062125095"
       width="1.1168234"
       height="1.1242502">
      <feGaussianBlur
         inkscape:collect="always"
         stdDeviation="4.1374957"
         id="feGaussianBlur2111" />
    </filter>
  </defs>
  <sodipodi:namedview
     id="namedview22"
     pagecolor="#ffffff"
     bordercolor="#000000"
     borderopacity="0.25"
     inkscape:showpageshadow="2"
     inkscape:pageopacity="0.0"
     inkscape:pagecheckerboard="0"
     inkscape:deskcolor="#d1d1d1"
     showgrid="false"
     inkscape:zoom="1.3064903"
     inkscape:cx="51.282433"
     inkscape:cy="130.88502"
     inkscape:window-width="1366"
     inkscape:window-height="704"
     inkscape:window-x="0"
     inkscape:window-y="0"
     inkscape:window-maximized="1"
     inkscape:current-layer="svg16" />
  <filter
     id="a"
     color-interpolation-filters="sRGB"
     height="1.0477144"
     width="1.0477144"
     x="-0.023857199"
     y="-0.023857199">
    <feGaussianBlur
       id="feGaussianBlur2"
       stdDeviation="2.226672" />
  </filter>
  <filter
     id="b"
     color-interpolation-filters="sRGB"
     height="1.1204224"
     width="1.1204224"
     x="-0.060211199"
     y="-0.060211199">
    <feGaussianBlur
       id="feGaussianBlur5"
       stdDeviation="5.619712" />
  </filter>
  <g
     id="g2150"
     transform="translate(21.893054,-31.719265)">
    <g
       id="g2107"
       transform="matrix(1.2465317,0,0,1.2465317,-59.32002,14.411769)"
       style="opacity:0.1;fill:#000000;filter:url(#filter2109)">
      <path
         id="path2085"
         d="m 133.26892,123.48452 c -1.05052,-0.008 -2.06743,0.24374 -2.94145,0.74995 L 48.234063,159.1001 c -0.884092,1.08728 -0.545295,1.76181 0.241149,2.35582 l 50.208972,21.28719 -0.0477,0.0398 30.371306,12.88946 c 1.00749,0.53956 2.09234,0.80785 3.14284,0.81619 1.05053,0.008 2.06743,-0.24374 2.94148,-0.74995 l 82.09341,-34.86563 c 0.88409,-1.08727 0.5453,-1.7618 -0.24114,-2.35581 l -50.20898,-21.28722 0.0477,-0.0398 -30.3713,-12.88946 c -1.00751,-0.53957 -2.09236,-0.80784 -3.14287,-0.81618 z"
         fill="#f35b23"
         style="fill:#000000" />
      <path
         id="path2087"
         d="m 216.64226,157.03246 -81.55017,34.63509 c -0.87403,0.50621 -1.89093,0.75835 -2.94145,0.74994 -1.05051,-0.008 -2.13536,-0.27661 -3.14287,-0.81619 l -30.371286,-12.88945 0.0477,-0.0398 -49.906878,-21.16 -0.543244,0.23054 c -0.884093,1.08729 -0.545295,1.76182 0.241149,2.35583 l 50.208973,21.2872 -0.0477,0.0398 30.371286,12.88945 c 1.0075,0.53958 2.09235,0.80785 3.14286,0.8162 1.05052,0.008 2.06742,-0.24374 2.94146,-0.74995 l 82.09342,-34.86565 c 0.88409,-1.08727 0.5453,-1.76179 -0.24114,-2.35581 z"
         fill="#ffffff"
         opacity="0.2"
         style="fill:#000000" />
      <path
         id="path2089"
         d="m 78.554427,146.36757 2.905566,1.23339 -0.07109,0.0593 45.307287,19.22823 c 1.50298,0.80493 3.12132,1.20514 4.68846,1.21757 1.56714,0.0122 3.08415,-0.36358 4.38802,-1.11875 l 50.11042,-21.27991 -2.90559,-1.23339 0.0712,-0.0593 -45.30729,-19.22823 c -1.50299,-0.80493 -3.12132,-1.20514 -4.68846,-1.21757 -1.56714,-0.0122 -3.08415,0.36358 -4.38802,1.11874 z"
         fill="#c84414"
         opacity="0.6"
         style="fill:#000000" />
      <path
         id="path2091"
         d="m 133.26892,80.067419 c -1.05052,-0.0082 -2.06743,0.243734 -2.94145,0.749949 L 48.234063,115.68301 c -0.884092,1.08728 -0.545295,1.76181 0.241149,2.35582 l 50.208972,21.2872 -0.0477,0.0398 30.371306,12.88945 c 1.00749,0.53957 2.09234,0.80786 3.14284,0.8162 1.05053,0.008 2.06743,-0.24374 2.94148,-0.74995 l 82.09341,-34.86565 c 0.88409,-1.08728 0.5453,-1.76179 -0.24114,-2.35581 l -50.20898,-21.287219 0.0477,-0.03978 -30.3713,-12.889445 c -1.00751,-0.539565 -2.09236,-0.807842 -3.14287,-0.816187 z"
         fill="#87c02b"
         opacity="0.9"
         style="fill:#000000" />
      <path
         id="path2093"
         d="m 78.554427,102.95048 2.905566,1.23338 -0.07109,0.0593 45.307287,19.22823 c 1.50298,0.80493 3.12132,1.20513 4.68846,1.21758 1.56714,0.0122 3.08415,-0.36359 4.38802,-1.11875 l 50.11042,-21.27992 -2.90559,-1.2334 0.0712,-0.0593 -45.30729,-19.228228 c -1.50299,-0.804926 -3.12132,-1.205137 -4.68846,-1.217579 -1.56714,-0.01221 -3.08415,0.363592 -4.38802,1.118751 z"
         fill="#72a220"
         opacity="0.6"
         style="fill:#000000" />
      <path
         id="path2095"
         d="m 133.26892,36.650326 c -1.05052,-0.0083 -2.06743,0.243731 -2.94145,0.74994 L 48.234063,72.265911 c -0.884092,1.087286 -0.545295,1.76181 0.241149,2.355824 l 50.208972,21.287195 -0.0477,0.03978 30.371306,12.88945 c 1.00749,0.53958 2.09234,0.80786 3.14284,0.8162 1.05053,0.008 2.06743,-0.24373 2.94148,-0.74995 l 82.09341,-34.865649 c 0.88409,-1.087272 0.5453,-1.761797 -0.24114,-2.355811 l -50.20898,-21.287212 0.0477,-0.03976 -30.3713,-12.889452 c -1.00751,-0.53957 -2.09236,-0.807843 -3.14287,-0.816184 z"
         fill="#2590d7"
         fill-opacity="0.995"
         opacity="0.9"
         style="fill:#000000" />
      <path
         id="path2097"
         d="m 216.64226,70.198265 -81.55017,34.635085 c -0.87403,0.50623 -1.89093,0.75837 -2.94145,0.74995 -1.05051,-0.008 -2.13536,-0.27661 -3.14287,-0.81619 l -30.371286,-12.889457 0.0477,-0.03975 -49.906878,-21.160002 -0.543244,0.230559 c -0.884093,1.087275 -0.545295,1.761799 0.241149,2.355813 l 50.208973,21.287203 -0.0477,0.03978 30.371286,12.889454 c 1.0075,0.53957 2.09235,0.80785 3.14286,0.81619 1.05052,0.008 2.06742,-0.24373 2.94146,-0.74995 l 82.09342,-34.865637 c 0.88409,-1.087286 0.5453,-1.761813 -0.24114,-2.355826 z"
         fill="#ffffff"
         opacity="0.2"
         style="fill:#000000" />
      <path
         id="path2099"
         d="m 216.64226,71.555729 -81.55017,34.635101 c -0.87403,0.50619 -1.89093,0.75835 -2.94145,0.74993 -1.05051,-0.008 -2.13536,-0.27661 -3.14287,-0.81619 l -30.371286,-12.889455 0.0477,-0.03978 -49.906878,-21.160003 -0.543244,0.230545 c -0.884093,1.087286 -0.545295,1.76181 0.241149,2.355824 l 50.208973,21.287195 -0.0477,0.03978 30.371286,12.889454 c 1.0075,0.53958 2.09235,0.80786 3.14286,0.8162 1.05052,0.008 2.06742,-0.24374 2.94146,-0.74995 l 82.09342,-34.865653 c 0.88409,-1.087272 0.5453,-1.761797 -0.24114,-2.355811 z"
         fill="#117ac4"
         style="fill:#000000" />
      <path
         id="path2101"
         d="m 216.64226,113.75105 -81.55017,34.63508 c -0.87403,0.50622 -1.89093,0.75836 -2.94145,0.74995 -1.05051,-0.008 -2.13536,-0.27662 -3.14287,-0.81619 l -30.371286,-12.88946 0.0477,-0.0398 -49.906878,-21.15999 -0.543244,0.23056 c -0.884093,1.08727 -0.545295,1.7618 0.241149,2.35581 l 50.208973,21.28721 -0.0477,0.0398 30.371286,12.88944 c 1.0075,0.53957 2.09235,0.80784 3.14286,0.8162 1.05052,0.008 2.06742,-0.24374 2.94146,-0.74995 l 82.09342,-34.86564 c 0.88409,-1.08729 0.5453,-1.76182 -0.24114,-2.35583 z"
         fill="#ffffff"
         opacity="0.2"
         style="fill:#000000" />
      <path
         id="path2103"
         d="m 216.64226,114.97282 -81.55017,34.6351 c -0.87403,0.50621 -1.89093,0.75835 -2.94145,0.74994 -1.05051,-0.008 -2.13536,-0.27661 -3.14287,-0.81619 l -30.371286,-12.88945 0.0477,-0.0398 -49.906878,-21.16 -0.543244,0.23054 c -0.884093,1.08729 -0.545295,1.76181 0.241149,2.35583 l 50.208973,21.28719 -0.0477,0.0398 30.371286,12.88946 c 1.0075,0.53957 2.09235,0.80785 3.14286,0.81619 1.05052,0.008 2.06742,-0.24373 2.94146,-0.74995 l 82.09342,-34.86565 c 0.88409,-1.08727 0.5453,-1.76179 -0.24114,-2.3558 z"
         fill="#73a51d"
         style="fill:#000000" />
      <path
         id="path2105"
         d="M 216.64226,158.38992 135.09209,193.025 c -0.87403,0.50621 -1.89093,0.75835 -2.94145,0.74994 -1.05051,-0.008 -2.13536,-0.27661 -3.14287,-0.81619 l -30.371286,-12.88945 0.0477,-0.0398 -49.906878,-21.15999 -0.543244,0.23055 c -0.884093,1.08728 -0.545295,1.76181 0.241149,2.35582 l 50.208973,21.28719 -0.0477,0.0398 30.371286,12.88945 c 1.0075,0.53957 2.09235,0.80785 3.14286,0.8162 1.05052,0.008 2.06742,-0.24374 2.94146,-0.74995 l 82.09342,-34.86563 c 0.88409,-1.08728 0.5453,-1.7618 -0.24114,-2.35582 z"
         fill="#cd4a1b"
         style="fill:#000000" />
    </g>
    <g
       id="g1401"
       transform="matrix(1.3356577,0,0,1.3356577,-304.62647,-33.205295)"
       style="opacity:0.5;fill:#000000;fill-opacity:1;filter:url(#filter2081)">
      <g
         id="g206"
         transform="translate(174.80419,27.872184)"
         style="fill:#000000;fill-opacity:1">
        <path
           id="path184"
           d="m 133.26892,123.48452 c -1.05052,-0.008 -2.06743,0.24374 -2.94145,0.74995 L 48.234063,159.1001 c -0.884092,1.08728 -0.545295,1.76181 0.241149,2.35582 l 50.208972,21.28719 -0.0477,0.0398 30.371306,12.88946 c 1.00749,0.53956 2.09234,0.80785 3.14284,0.81619 1.05053,0.008 2.06743,-0.24374 2.94148,-0.74995 l 82.09341,-34.86563 c 0.88409,-1.08727 0.5453,-1.7618 -0.24114,-2.35581 l -50.20898,-21.28722 0.0477,-0.0398 -30.3713,-12.88946 c -1.00751,-0.53957 -2.09236,-0.80784 -3.14287,-0.81618 z"
           fill="#f35b23"
           style="fill:#000000;fill-opacity:1" />
        <path
           id="path186"
           d="m 216.64226,157.03246 -81.55017,34.63509 c -0.87403,0.50621 -1.89093,0.75835 -2.94145,0.74994 -1.05051,-0.008 -2.13536,-0.27661 -3.14287,-0.81619 l -30.371286,-12.88945 0.0477,-0.0398 -49.906878,-21.16 -0.543244,0.23054 c -0.884093,1.08729 -0.545295,1.76182 0.241149,2.35583 l 50.208973,21.2872 -0.0477,0.0398 30.371286,12.88945 c 1.0075,0.53958 2.09235,0.80785 3.14286,0.8162 1.05052,0.008 2.06742,-0.24374 2.94146,-0.74995 l 82.09342,-34.86565 c 0.88409,-1.08727 0.5453,-1.76179 -0.24114,-2.35581 z"
           fill="#ffffff"
           opacity="0.2"
           style="fill:#000000;fill-opacity:1" />
        <path
           id="path188"
           d="m 78.554427,146.36757 2.905566,1.23339 -0.07109,0.0593 45.307287,19.22823 c 1.50298,0.80493 3.12132,1.20514 4.68846,1.21757 1.56714,0.0122 3.08415,-0.36358 4.38802,-1.11875 l 50.11042,-21.27991 -2.90559,-1.23339 0.0712,-0.0593 -45.30729,-19.22823 c -1.50299,-0.80493 -3.12132,-1.20514 -4.68846,-1.21757 -1.56714,-0.0122 -3.08415,0.36358 -4.38802,1.11874 z"
           fill="#c84414"
           opacity="0.6"
           style="fill:#000000;fill-opacity:1" />
        <path
           id="path190"
           d="m 133.26892,80.067419 c -1.05052,-0.0082 -2.06743,0.243734 -2.94145,0.749949 L 48.234063,115.68301 c -0.884092,1.08728 -0.545295,1.76181 0.241149,2.35582 l 50.208972,21.2872 -0.0477,0.0398 30.371306,12.88945 c 1.00749,0.53957 2.09234,0.80786 3.14284,0.8162 1.05053,0.008 2.06743,-0.24374 2.94148,-0.74995 l 82.09341,-34.86565 c 0.88409,-1.08728 0.5453,-1.76179 -0.24114,-2.35581 l -50.20898,-21.287219 0.0477,-0.03978 -30.3713,-12.889445 c -1.00751,-0.539565 -2.09236,-0.807842 -3.14287,-0.816187 z"
           fill="#87c02b"
           opacity="0.9"
           style="fill:#000000;fill-opacity:1" />
        <path
           id="path192"
           d="m 78.554427,102.95048 2.905566,1.23338 -0.07109,0.0593 45.307287,19.22823 c 1.50298,0.80493 3.12132,1.20513 4.68846,1.21758 1.56714,0.0122 3.08415,-0.36359 4.38802,-1.11875 l 50.11042,-21.27992 -2.90559,-1.2334 0.0712,-0.0593 -45.30729,-19.228228 c -1.50299,-0.804926 -3.12132,-1.205137 -4.68846,-1.217579 -1.56714,-0.01221 -3.08415,0.363592 -4.38802,1.118751 z"
           fill="#72a220"
           opacity="0.6"
           style="fill:#000000;fill-opacity:1" />
        <path
           id="path194"
           d="m 133.26892,36.650326 c -1.05052,-0.0083 -2.06743,0.243731 -2.94145,0.74994 L 48.234063,72.265911 c -0.884092,1.087286 -0.545295,1.76181 0.241149,2.355824 l 50.208972,21.287195 -0.0477,0.03978 30.371306,12.88945 c 1.00749,0.53958 2.09234,0.80786 3.14284,0.8162 1.05053,0.008 2.06743,-0.24373 2.94148,-0.74995 l 82.09341,-34.865649 c 0.88409,-1.087272 0.5453,-1.761797 -0.24114,-2.355811 l -50.20898,-21.287212 0.0477,-0.03976 -30.3713,-12.889452 c -1.00751,-0.53957 -2.09236,-0.807843 -3.14287,-0.816184 z"
           fill="#2590d7"
           fill-opacity="0.995"
           opacity="0.9"
           style="fill:#000000;fill-opacity:1" />
        <path
           id="path196"
           d="m 216.64226,70.198265 -81.55017,34.635085 c -0.87403,0.50623 -1.89093,0.75837 -2.94145,0.74995 -1.05051,-0.008 -2.13536,-0.27661 -3.14287,-0.81619 l -30.371286,-12.889457 0.0477,-0.03975 -49.906878,-21.160002 -0.543244,0.230559 c -0.884093,1.087275 -0.545295,1.761799 0.241149,2.355813 l 50.208973,21.287203 -0.0477,0.03978 30.371286,12.889454 c 1.0075,0.53957 2.09235,0.80785 3.14286,0.81619 1.05052,0.008 2.06742,-0.24373 2.94146,-0.74995 l 82.09342,-34.865637 c 0.88409,-1.087286 0.5453,-1.761813 -0.24114,-2.355826 z"
           fill="#ffffff"
           opacity="0.2"
           style="fill:#000000;fill-opacity:1" />
        <path
           id="path198"
           d="m 216.64226,71.555729 -81.55017,34.635101 c -0.87403,0.50619 -1.89093,0.75835 -2.94145,0.74993 -1.05051,-0.008 -2.13536,-0.27661 -3.14287,-0.81619 l -30.371286,-12.889455 0.0477,-0.03978 -49.906878,-21.160003 -0.543244,0.230545 c -0.884093,1.087286 -0.545295,1.76181 0.241149,2.355824 l 50.208973,21.287195 -0.0477,0.03978 30.371286,12.889454 c 1.0075,0.53958 2.09235,0.80786 3.14286,0.8162 1.05052,0.008 2.06742,-0.24374 2.94146,-0.74995 l 82.09342,-34.865653 c 0.88409,-1.087272 0.5453,-1.761797 -0.24114,-2.355811 z"
           fill="#117ac4"
           style="fill:#000000;fill-opacity:1" />
        <path
           id="path200"
           d="m 216.64226,113.75105 -81.55017,34.63508 c -0.87403,0.50622 -1.89093,0.75836 -2.94145,0.74995 -1.05051,-0.008 -2.13536,-0.27662 -3.14287,-0.81619 l -30.371286,-12.88946 0.0477,-0.0398 -49.906878,-21.15999 -0.543244,0.23056 c -0.884093,1.08727 -0.545295,1.7618 0.241149,2.35581 l 50.208973,21.28721 -0.0477,0.0398 30.371286,12.88944 c 1.0075,0.53957 2.09235,0.80784 3.14286,0.8162 1.05052,0.008 2.06742,-0.24374 2.94146,-0.74995 l 82.09342,-34.86564 c 0.88409,-1.08729 0.5453,-1.76182 -0.24114,-2.35583 z"
           fill="#ffffff"
           opacity="0.2"
           style="fill:#000000;fill-opacity:1" />
        <path
           id="path202"
           d="m 216.64226,114.97282 -81.55017,34.6351 c -0.87403,0.50621 -1.89093,0.75835 -2.94145,0.74994 -1.05051,-0.008 -2.13536,-0.27661 -3.14287,-0.81619 l -30.371286,-12.88945 0.0477,-0.0398 -49.906878,-21.16 -0.543244,0.23054 c -0.884093,1.08729 -0.545295,1.76181 0.241149,2.35583 l 50.208973,21.28719 -0.0477,0.0398 30.371286,12.88946 c 1.0075,0.53957 2.09235,0.80785 3.14286,0.81619 1.05052,0.008 2.06742,-0.24373 2.94146,-0.74995 l 82.09342,-34.86565 c 0.88409,-1.08727 0.5453,-1.76179 -0.24114,-2.3558 z"
           fill="#73a51d"
           style="fill:#000000;fill-opacity:1" />
        <path
           id="path204"
           d="M 216.64226,158.38992 135.09209,193.025 c -0.87403,0.50621 -1.89093,0.75835 -2.94145,0.74994 -1.05051,-0.008 -2.13536,-0.27661 -3.14287,-0.81619 l -30.371286,-12.88945 0.0477,-0.0398 -49.906878,-21.15999 -0.543244,0.23055 c -0.884093,1.08728 -0.545295,1.76181 0.241149,2.35582 l 50.208973,21.28719 -0.0477,0.0398 30.371286,12.88945 c 1.0075,0.53957 2.09235,0.80785 3.14286,0.8162 1.05052,0.008 2.06742,-0.24374 2.94146,-0.74995 l 82.09342,-34.86563 c 0.88409,-1.08728 0.5453,-1.7618 -0.24114,-2.35582 z"
           fill="#cd4a1b"
           style="fill:#000000;fill-opacity:1" />
      </g>
    </g>
    <g
       id="g866"
       transform="matrix(1.4020391,0,0,1.4020391,-79.957371,-3.7156422)">
      <path
         id="path861"
         d="m 133.26892,123.48452 c -1.05052,-0.008 -2.06743,0.24374 -2.94145,0.74995 L 48.234063,159.1001 c -0.884092,1.08728 -0.545295,1.76181 0.241149,2.35582 l 50.208972,21.28719 -0.0477,0.0398 30.371306,12.88946 c 1.00749,0.53956 2.09234,0.80785 3.14284,0.81619 1.05053,0.008 2.06743,-0.24374 2.94148,-0.74995 l 82.09341,-34.86563 c 0.88409,-1.08727 0.5453,-1.7618 -0.24114,-2.35581 l -50.20898,-21.28722 0.0477,-0.0398 -30.3713,-12.88946 c -1.00751,-0.53957 -2.09236,-0.80784 -3.14287,-0.81618 z"
         fill="#f35b23" />
      <path
         id="path874"
         d="m 216.64226,157.03246 -81.55017,34.63509 c -0.87403,0.50621 -1.89093,0.75835 -2.94145,0.74994 -1.05051,-0.008 -2.13536,-0.27661 -3.14287,-0.81619 l -30.371286,-12.88945 0.0477,-0.0398 -49.906878,-21.16 -0.543244,0.23054 c -0.884093,1.08729 -0.545295,1.76182 0.241149,2.35583 l 50.208973,21.2872 -0.0477,0.0398 30.371286,12.88945 c 1.0075,0.53958 2.09235,0.80785 3.14286,0.8162 1.05052,0.008 2.06742,-0.24374 2.94146,-0.74995 l 82.09342,-34.86565 c 0.88409,-1.08727 0.5453,-1.76179 -0.24114,-2.35581 z"
         fill="#ffffff"
         opacity="0.2" />
      <path
         id="path902"
         d="m 78.554427,146.36757 2.905566,1.23339 -0.07109,0.0593 45.307287,19.22823 c 1.50298,0.80493 3.12132,1.20514 4.68846,1.21757 1.56714,0.0122 3.08415,-0.36358 4.38802,-1.11875 l 50.11042,-21.27991 -2.90559,-1.23339 0.0712,-0.0593 -45.30729,-19.22823 c -1.50299,-0.80493 -3.12132,-1.20514 -4.68846,-1.21757 -1.56714,-0.0122 -3.08415,0.36358 -4.38802,1.11874 z"
         fill="#c84414"
         opacity="0.6" />
      <path
         id="path857"
         d="m 133.26892,80.067419 c -1.05052,-0.0082 -2.06743,0.243734 -2.94145,0.749949 L 48.234063,115.68301 c -0.884092,1.08728 -0.545295,1.76181 0.241149,2.35582 l 50.208972,21.2872 -0.0477,0.0398 30.371306,12.88945 c 1.00749,0.53957 2.09234,0.80786 3.14284,0.8162 1.05053,0.008 2.06743,-0.24374 2.94148,-0.74995 l 82.09341,-34.86565 c 0.88409,-1.08728 0.5453,-1.76179 -0.24114,-2.35581 l -50.20898,-21.287219 0.0477,-0.03978 -30.3713,-12.889445 c -1.00751,-0.539565 -2.09236,-0.807842 -3.14287,-0.816187 z"
         fill="#87c02b"
         opacity="0.9" />
      <path
         id="path895"
         d="m 78.554427,102.95048 2.905566,1.23338 -0.07109,0.0593 45.307287,19.22823 c 1.50298,0.80493 3.12132,1.20513 4.68846,1.21758 1.56714,0.0122 3.08415,-0.36359 4.38802,-1.11875 l 50.11042,-21.27992 -2.90559,-1.2334 0.0712,-0.0593 -45.30729,-19.228228 c -1.50299,-0.804926 -3.12132,-1.205137 -4.68846,-1.217579 -1.56714,-0.01221 -3.08415,0.363592 -4.38802,1.118751 z"
         fill="#72a220"
         opacity="0.6" />
      <path
         id="path842"
         d="m 133.26892,36.650326 c -1.05052,-0.0083 -2.06743,0.243731 -2.94145,0.74994 L 48.234063,72.265911 c -0.884092,1.087286 -0.545295,1.76181 0.241149,2.355824 l 50.208972,21.287195 -0.0477,0.03978 30.371306,12.88945 c 1.00749,0.53958 2.09234,0.80786 3.14284,0.8162 1.05053,0.008 2.06743,-0.24373 2.94148,-0.74995 l 82.09341,-34.865649 c 0.88409,-1.087272 0.5453,-1.761797 -0.24114,-2.355811 l -50.20898,-21.287212 0.0477,-0.03976 -30.3713,-12.889452 c -1.00751,-0.53957 -2.09236,-0.807843 -3.14287,-0.816184 z"
         fill="#2590d7"
         fill-opacity="0.995"
         opacity="0.9" />
      <path
         id="path865"
         d="m 216.64226,70.198265 -81.55017,34.635085 c -0.87403,0.50623 -1.89093,0.75837 -2.94145,0.74995 -1.05051,-0.008 -2.13536,-0.27661 -3.14287,-0.81619 l -30.371286,-12.889457 0.0477,-0.03975 -49.906878,-21.160002 -0.543244,0.230559 c -0.884093,1.087275 -0.545295,1.761799 0.241149,2.355813 l 50.208973,21.287203 -0.0477,0.03978 30.371286,12.889454 c 1.0075,0.53957 2.09235,0.80785 3.14286,0.81619 1.05052,0.008 2.06742,-0.24373 2.94146,-0.74995 l 82.09342,-34.865637 c 0.88409,-1.087286 0.5453,-1.761813 -0.24114,-2.355826 z"
         fill="#ffffff"
         opacity="0.2" />
      <path
         id="path852"
         d="m 216.64226,71.555729 -81.55017,34.635101 c -0.87403,0.50619 -1.89093,0.75835 -2.94145,0.74993 -1.05051,-0.008 -2.13536,-0.27661 -3.14287,-0.81619 l -30.371286,-12.889455 0.0477,-0.03978 -49.906878,-21.160003 -0.543244,0.230545 c -0.884093,1.087286 -0.545295,1.76181 0.241149,2.355824 l 50.208973,21.287195 -0.0477,0.03978 30.371286,12.889454 c 1.0075,0.53958 2.09235,0.80786 3.14286,0.8162 1.05052,0.008 2.06742,-0.24374 2.94146,-0.74995 l 82.09342,-34.865653 c 0.88409,-1.087272 0.5453,-1.761797 -0.24114,-2.355811 z"
         fill="#117ac4" />
      <path
         id="path872"
         d="m 216.64226,113.75105 -81.55017,34.63508 c -0.87403,0.50622 -1.89093,0.75836 -2.94145,0.74995 -1.05051,-0.008 -2.13536,-0.27662 -3.14287,-0.81619 l -30.371286,-12.88946 0.0477,-0.0398 -49.906878,-21.15999 -0.543244,0.23056 c -0.884093,1.08727 -0.545295,1.7618 0.241149,2.35581 l 50.208973,21.28721 -0.0477,0.0398 30.371286,12.88944 c 1.0075,0.53957 2.09235,0.80784 3.14286,0.8162 1.05052,0.008 2.06742,-0.24374 2.94146,-0.74995 l 82.09342,-34.86564 c 0.88409,-1.08729 0.5453,-1.76182 -0.24114,-2.35583 z"
         fill="#ffffff"
         opacity="0.2" />
      <path
         id="path859"
         d="m 216.64226,114.97282 -81.55017,34.6351 c -0.87403,0.50621 -1.89093,0.75835 -2.94145,0.74994 -1.05051,-0.008 -2.13536,-0.27661 -3.14287,-0.81619 l -30.371286,-12.88945 0.0477,-0.0398 -49.906878,-21.16 -0.543244,0.23054 c -0.884093,1.08729 -0.545295,1.76181 0.241149,2.35583 l 50.208973,21.28719 -0.0477,0.0398 30.371286,12.88946 c 1.0075,0.53957 2.09235,0.80785 3.14286,0.81619 1.05052,0.008 2.06742,-0.24373 2.94146,-0.74995 l 82.09342,-34.86565 c 0.88409,-1.08727 0.5453,-1.76179 -0.24114,-2.3558 z"
         fill="#73a51d" />
      <path
         id="path863"
         d="M 216.64226,158.38992 135.09209,193.025 c -0.87403,0.50621 -1.89093,0.75835 -2.94145,0.74994 -1.05051,-0.008 -2.13536,-0.27661 -3.14287,-0.81619 l -30.371286,-12.88945 0.0477,-0.0398 -49.906878,-21.15999 -0.543244,0.23055 c -0.884093,1.08728 -0.545295,1.76181 0.241149,2.35582 l 50.208973,21.28719 -0.0477,0.0398 30.371286,12.88945 c 1.0075,0.53957 2.09235,0.80785 3.14286,0.8162 1.05052,0.008 2.06742,-0.24374 2.94146,-0.74995 l 82.09342,-34.86563 c 0.88409,-1.08728 0.5453,-1.7618 -0.24114,-2.35582 z"
         fill="#cd4a1b" />
    </g>
  </g>
</svg>
