<?xml version="1.0" encoding="UTF-8" standalone="no"?>
<svg
   enable-background="new"
   height="256"
   viewBox="0 0 256 256"
   width="256"
   version="1.1"
   id="svg565"
   sodipodi:docname="onlyoffice.svg"
   xml:space="preserve"
   inkscape:version="1.2 (dc2aedaf03, 2022-05-15)"
   xmlns:inkscape="http://www.inkscape.org/namespaces/inkscape"
   xmlns:sodipodi="http://sodipodi.sourceforge.net/DTD/sodipodi-0.dtd"
   xmlns:xlink="http://www.w3.org/1999/xlink"
   xmlns="http://www.w3.org/2000/svg"
   xmlns:svg="http://www.w3.org/2000/svg"><defs
     id="defs569"><linearGradient
       id="linearGradient19821"
       gradientTransform="matrix(0 1 -1 0 285.88052 -24.82284)"
       gradientUnits="userSpaceOnUse"
       x1="48.335777"
       x2="255.24564"
       y1="256.93839"
       y2="51.958134"><stop
         offset="0"
         stop-color="#5884f4"
         id="stop19817"
         style="stop-color:#f35b21;stop-opacity:1" /><stop
         offset="1"
         stop-color="#80a3fa"
         id="stop19819"
         style="stop-color:#f7764a;stop-opacity:1;" /></linearGradient><linearGradient
       id="linearGradient9319"
       gradientTransform="matrix(0 1 -1 0 285.88052 -24.82284)"
       gradientUnits="userSpaceOnUse"
       x1="48.335777"
       x2="255.24564"
       y1="256.93839"
       y2="51.958134"><stop
         offset="0"
         stop-color="#5884f4"
         id="stop9315"
         style="stop-color:#a6d74f;stop-opacity:1" /><stop
         offset="1"
         stop-color="#80a3fa"
         id="stop9317"
         style="stop-color:#bde57b;stop-opacity:1;" /></linearGradient><linearGradient
       id="linearGradient5673"
       gradientTransform="matrix(0 1 -1 0 285.88052 -24.82284)"
       gradientUnits="userSpaceOnUse"
       x1="48.335777"
       x2="255.24564"
       y1="256.93839"
       y2="51.958134"><stop
         offset="0"
         stop-color="#5884f4"
         id="stop5669"
         style="stop-color:#b9e076;stop-opacity:1;" /><stop
         offset="1"
         stop-color="#80a3fa"
         id="stop5671"
         style="stop-color:#a6db4b;stop-opacity:1;" /></linearGradient><filter
       id="f-2"
       color-interpolation-filters="sRGB"
       height="1.0227146"
       width="1.0289086"
       x="-0.014454287"
       y="-0.011357288"><feGaussianBlur
         stdDeviation="2.120027"
         id="feGaussianBlur4554" /></filter><linearGradient
       id="a-3"
       gradientTransform="rotate(-90,287.9946,298)"
       gradientUnits="userSpaceOnUse"
       x1="88"
       x2="488"
       y1="88"
       y2="488"><stop
         offset="0"
         stop-opacity=".588235"
         id="stop4533" /><stop
         offset=".88"
         stop-opacity="0"
         id="stop4535" /><stop
         offset="1"
         id="stop4537" /></linearGradient><filter
       id="e-7"
       color-interpolation-filters="sRGB"
       height="1.0908583"
       width="1.1156343"
       x="-0.057817147"
       y="-0.045429151"><feGaussianBlur
         stdDeviation="8.4801079"
         id="feGaussianBlur4551" /></filter><linearGradient
       id="d-5"
       gradientTransform="rotate(-90,201.4809,625.20604)"
       gradientUnits="userSpaceOnUse"
       x1="24.987097"
       x2="292.57532"
       y1="298.46219"
       y2="-5.1179538"><stop
         offset="0"
         stop-color="#f37e40"
         id="stop4546" /><stop
         offset="1"
         stop-color="#f34f17"
         id="stop4548" /></linearGradient><filter
       id="c-9"
       color-interpolation-filters="sRGB"
       height="1.0260355"
       width="1.0258203"
       x="-0.012910164"
       y="-0.013017733"><feGaussianBlur
         stdDeviation=".67258301"
         id="feGaussianBlur4543" /></filter><filter
       id="b-2"
       color-interpolation-filters="sRGB"
       height="1.08"
       width="1.0141176"
       x="-0.0070588236"
       y="-0.040000001"><feGaussianBlur
         stdDeviation=".4"
         id="feGaussianBlur4540" /></filter><filter
       id="f-9"
       color-interpolation-filters="sRGB"
       height="1.0227143"
       width="1.0227022"
       x="-0.011351119"
       y="-0.011357142"><feGaussianBlur
         stdDeviation="2.12"
         id="feGaussianBlur540-1" /></filter><linearGradient
       inkscape:collect="always"
       xlink:href="#d"
       id="linearGradient9106"
       gradientUnits="userSpaceOnUse"
       x1="88"
       y1="88"
       x2="488"
       y2="488" /><linearGradient
       id="linearGradient858"
       gradientUnits="userSpaceOnUse"
       x1="88"
       x2="488"
       y1="88"
       y2="488"><stop
         offset="0"
         stop-opacity=".588235"
         id="stop532-2" /><stop
         offset="1"
         stop-opacity=".205556"
         id="stop534-7" /></linearGradient><filter
       id="e-0"
       color-interpolation-filters="sRGB"
       height="1.0908571"
       width="1.090809"
       x="-0.045404476"
       y="-0.045428569"><feGaussianBlur
         stdDeviation="8.48"
         id="feGaussianBlur537-9" /></filter><linearGradient
       inkscape:collect="always"
       xlink:href="#linearGradient19821-3"
       id="linearGradient9104"
       gradientUnits="userSpaceOnUse"
       gradientTransform="matrix(-0.47192931,0.19211047,-0.47192931,-0.19211047,572.63544,22.448552)"
       x1="48.335777"
       y1="256.93839"
       x2="255.24564"
       y2="51.958134" /><linearGradient
       id="linearGradient19821-3"
       gradientTransform="rotate(90,155.35168,130.52884)"
       gradientUnits="userSpaceOnUse"
       x1="48.335777"
       x2="255.24564"
       y1="256.93839"
       y2="51.958134"><stop
         offset="0"
         stop-color="#5884f4"
         id="stop19817-6"
         style="stop-color:#f35b21;stop-opacity:1" /><stop
         offset="1"
         stop-color="#80a3fa"
         id="stop19819-0"
         style="stop-color:#f7764a;stop-opacity:1;" /></linearGradient><filter
       id="filter615"
       color-interpolation-filters="sRGB"
       height="1.0227143"
       width="1.0227022"
       x="-0.011351119"
       y="-0.011357142"><feGaussianBlur
         stdDeviation="2.12"
         id="feGaussianBlur613" /></filter><filter
       id="filter626"
       color-interpolation-filters="sRGB"
       height="1.0908571"
       width="1.090809"
       x="-0.045404475"
       y="-0.04542857"><feGaussianBlur
         stdDeviation="8.48"
         id="feGaussianBlur624" /></filter><linearGradient
       inkscape:collect="always"
       xlink:href="#linearGradient9319-6"
       id="linearGradient9088"
       gradientUnits="userSpaceOnUse"
       gradientTransform="matrix(-0.47192932,0.19211045,-0.47192932,-0.19211045,209.93001,246.74042)"
       x1="48.335777"
       y1="256.93839"
       x2="255.24564"
       y2="51.958134" /><linearGradient
       id="linearGradient9319-6"
       gradientTransform="rotate(90,155.35168,130.52884)"
       gradientUnits="userSpaceOnUse"
       x1="48.335777"
       x2="255.24564"
       y1="256.93839"
       y2="51.958134"><stop
         offset="0"
         stop-color="#5884f4"
         id="stop9315-2"
         style="stop-color:#a6d74f;stop-opacity:1" /><stop
         offset="1"
         stop-color="#80a3fa"
         id="stop9317-6"
         style="stop-color:#bde57b;stop-opacity:1;" /></linearGradient><filter
       id="filter634"
       color-interpolation-filters="sRGB"
       height="1.0227143"
       width="1.0227022"
       x="-0.011351119"
       y="-0.011357142"><feGaussianBlur
         stdDeviation="2.12"
         id="feGaussianBlur632" /></filter><filter
       id="filter645"
       color-interpolation-filters="sRGB"
       height="1.0908571"
       width="1.090809"
       x="-0.045404475"
       y="-0.04542857"><feGaussianBlur
         stdDeviation="8.48"
         id="feGaussianBlur643" /></filter><linearGradient
       id="c-1"
       gradientTransform="matrix(-0.47192932,0.19211045,-0.47192932,-0.19211045,210.89779,6.9612943)"
       gradientUnits="userSpaceOnUse"
       x1="48.335777"
       x2="255.24564"
       y1="256.93839"
       y2="51.958134"><stop
         offset="0"
         stop-color="#5884f4"
         id="stop527-8" /><stop
         offset="1"
         stop-color="#80a3fa"
         id="stop529-7" /></linearGradient><linearGradient
       inkscape:collect="always"
       xlink:href="#d"
       id="linearGradient903"
       gradientUnits="userSpaceOnUse"
       x1="88"
       y1="88"
       x2="488"
       y2="488" /><linearGradient
       inkscape:collect="always"
       xlink:href="#d"
       id="linearGradient905"
       gradientUnits="userSpaceOnUse"
       x1="88"
       y1="88"
       x2="488"
       y2="488" /></defs><sodipodi:namedview
     id="namedview567"
     pagecolor="#ffffff"
     bordercolor="#000000"
     borderopacity="0.25"
     inkscape:showpageshadow="2"
     inkscape:pageopacity="0.0"
     inkscape:pagecheckerboard="0"
     inkscape:deskcolor="#d1d1d1"
     showgrid="false"
     inkscape:zoom="0.92382815"
     inkscape:cx="-58.45243"
     inkscape:cy="124.48203"
     inkscape:window-width="1366"
     inkscape:window-height="704"
     inkscape:window-x="0"
     inkscape:window-y="0"
     inkscape:window-maximized="1"
     inkscape:current-layer="svg565" /><filter
     id="a"
     color-interpolation-filters="sRGB"
     height="1.13"
     width="1.1114267"
     x="-0.055713347"
     y="-0.064999996"><feGaussianBlur
       stdDeviation="2.6"
       id="feGaussianBlur521" /></filter><filter
     id="b"
     color-interpolation-filters="sRGB"
     height="1.052"
     width="1.0445707"
     x="-0.02228534"
     y="-0.026000002"><feGaussianBlur
       stdDeviation="1.04"
       id="feGaussianBlur524" /></filter><linearGradient
     id="c"
     gradientTransform="matrix(-0.47192932,0.19211045,-0.47192932,-0.19211045,210.89779,6.9612943)"
     gradientUnits="userSpaceOnUse"
     x1="48.335777"
     x2="255.24564"
     y1="256.93839"
     y2="51.958134"><stop
       offset="0"
       stop-color="#5884f4"
       id="stop527" /><stop
       offset="1"
       stop-color="#80a3fa"
       id="stop529" /></linearGradient><linearGradient
     id="d"
     gradientUnits="userSpaceOnUse"
     x1="88"
     x2="488"
     y1="88"
     y2="488"><stop
       offset="0"
       stop-opacity=".588235"
       id="stop532" /><stop
       offset="1"
       stop-opacity=".205556"
       id="stop534" /></linearGradient><filter
     id="e"
     color-interpolation-filters="sRGB"
     height="1.0908571"
     width="1.090809"
     x="-0.045404476"
     y="-0.045428569"><feGaussianBlur
       stdDeviation="8.48"
       id="feGaussianBlur537" /></filter><filter
     id="f"
     color-interpolation-filters="sRGB"
     height="1.0227143"
     width="1.0227022"
     x="-0.011351119"
     y="-0.011357142"><feGaussianBlur
       stdDeviation="2.12"
       id="feGaussianBlur540" /></filter><g
     id="g949"
     transform="matrix(1.1556798,0,0,1.1556798,254.3869,-9.2084987)"><g
       id="g22509"
       transform="matrix(0.9916139,0,0,1.1375417,-532.61934,137.33338)"><path
         d="M 141.84323,74 C 71.24979,74 63.65402,81.250835 64,151.98706 V 298 444.01294 C 63.65402,514.74917 71.24979,522 141.84323,522 H 434.15677 C 504.75021,522 513.9371,514.72348 512,444.01294 V 298 151.98706 C 512,81.249993 504.75021,74 434.15677,74 Z"
         filter="url(#f)"
         opacity="0.1"
         transform="matrix(0.23596465,0.09605524,-0.23596465,0.09605524,429.1716,-34.416092)"
         id="path9092"
         style="filter:url(#f-9)" /><path
         d="M 141.84323,74 C 71.24979,74 63.65402,81.250835 64,151.98706 V 298 444.01294 C 63.65402,514.74917 71.24979,522 141.84323,522 H 434.15677 C 504.75021,522 513.9371,514.72348 512,444.01294 V 298 151.98706 C 512,81.249993 504.75021,74 434.15677,74 Z"
         fill="url(#d)"
         filter="url(#e)"
         opacity="0.3"
         transform="matrix(0.23596465,0.09605524,-0.23596465,0.09605524,429.17146,-34.416031)"
         id="path9094"
         style="fill:url(#linearGradient903);filter:url(#e-0)" /><path
         d="m 446.07215,-14.472789 c -17.03609,-6.934959 -20.61065,-6.97224 -37.51646,-0.02238 L 373.48656,-0.21939952 338.41741,14.056356 c -17.0728,6.881931 -16.98123,8.337044 0.0548,15.272003 l 70.02832,28.506757 c 17.03608,6.934959 20.99019,7.121891 37.51645,0.02228 L 481.08612,43.58164 516.15527,29.305874 c 16.9895,-6.91599 16.98123,-8.337034 -0.0548,-15.271993 z"
         opacity="0.1"
         id="path9096"
         style="stroke-width:0.425823" /><path
         d="m 514.62525,14.20188 c 16.65755,6.780874 16.73894,8.206958 -0.034,14.968309 L 480.1374,43.195505 445.6835,57.220811 c -16.60961,6.827815 -20.11288,6.794681 -36.77044,0.01376 L 339.93743,29.156383 c -16.65755,-6.780864 -16.6575,-8.173649 0.034,-14.968309 L 374.42528,0.16275777 408.87916,-13.862548 c 16.69145,-6.794671 20.11289,-6.794681 36.77044,-0.01386 z"
         fill="url(#c)"
         id="path9098"
         style="fill:url(#linearGradient9104);stroke-width:0.425823" /><path
         d="m 445.65226,-13.875277 c -16.65756,-6.780864 -20.16125,-6.813937 -36.77085,0.01386 l -0.94386,0.38422 c 16.60961,-6.827815 20.11329,-6.794752 36.77085,-0.01386 l 68.97541,28.078142 c 16.65756,6.780864 16.65734,8.173813 -0.0341,14.968484 l 0.94387,-0.384231 c 16.69144,-6.79466 16.69165,-8.18761 0.0341,-14.968474 z"
         fill="#ffffff"
         opacity="0.3"
         id="path9100"
         style="stroke-width:0.425823" /><path
         d="m 339.94264,29.158508 c -16.65755,-6.780864 -16.73878,-8.207133 0.0341,-14.968484 l 0.94386,-0.384221 c -16.77288,6.761351 -16.69166,8.18761 -0.0341,14.968484 l 68.97541,28.078142 c 16.65756,6.780874 20.07941,6.780782 36.77085,-0.01386 l -0.94386,0.38422 c -16.69145,6.79466 -20.11329,6.794753 -36.77085,0.01386 z"
         opacity="0.2"
         id="path9102"
         style="stroke-width:0.425823" /></g><g
       id="g22501"
       transform="matrix(0.99161391,0,0,1.1375418,-172.95561,-161.30854)"><path
         d="M 141.84323,74 C 71.24979,74 63.65402,81.250835 64,151.98706 V 298 444.01294 C 63.65402,514.74917 71.24979,522 141.84323,522 H 434.15677 C 504.75021,522 513.9371,514.72348 512,444.01294 V 298 151.98706 C 512,81.249993 504.75021,74 434.15677,74 Z"
         filter="url(#f)"
         opacity="0.1"
         transform="matrix(0.23596465,0.09605523,-0.23596465,0.09605523,66.466183,189.87579)"
         id="path9076"
         style="filter:url(#f-9)" /><path
         d="M 141.84323,74 C 71.24979,74 63.65402,81.250835 64,151.98706 V 298 444.01294 C 63.65402,514.74917 71.24979,522 141.84323,522 H 434.15677 C 504.75021,522 513.9371,514.72348 512,444.01294 V 298 151.98706 C 512,81.249993 504.75021,74 434.15677,74 Z"
         fill="url(#d)"
         filter="url(#e)"
         opacity="0.3"
         transform="matrix(0.23596465,0.09605523,-0.23596465,0.09605523,66.466045,189.87585)"
         id="path9078"
         style="fill:url(#linearGradient905);filter:url(#e-0)" /><path
         d="m 83.366725,209.81909 c -17.036086,-6.93496 -20.610641,-6.97224 -37.516451,-0.0224 l -35.069143,14.27577 -35.069142,14.27575 c -17.072803,6.88193 -16.98123,8.33704 0.05486,15.272 l 70.028318,28.5068 c 17.036092,6.93496 20.990197,7.12189 37.516456,0.0223 l 35.069147,-14.27575 35.06914,-14.27576 c 16.98951,-6.916 16.98123,-8.33704 -0.0548,-15.272 z"
         opacity="0.1"
         id="path9080"
         style="stroke-width:0.425823" /><path
         d="m 151.91982,238.49375 c 16.65757,6.78088 16.73896,8.20697 -0.0339,14.96832 l -34.45389,14.02531 -34.453896,14.0253 c -16.60961,6.82783 -20.112876,6.79469 -36.770442,0.0139 L -22.768005,253.4483 c -16.657552,-6.78087 -16.657506,-8.17365 0.03394,-14.96831 l 34.453898,-14.02532 34.453892,-14.0253 c 16.691444,-6.79466 20.112883,-6.79468 36.77043,-0.0139 z"
         fill="url(#c)"
         id="path9082"
         style="fill:url(#linearGradient9088);stroke-width:0.425823" /><path
         d="M 82.946846,210.4166 C 66.28928,203.63574 62.7856,203.60267 46.175989,210.43046 l -0.943856,0.38422 c 16.609607,-6.82782 20.113294,-6.79475 36.770847,-0.0139 l 68.97542,28.07814 c 16.65756,6.78086 16.65734,8.17381 -0.0341,14.96848 l 0.94386,-0.38422 c 16.69144,-6.79467 16.69166,-8.18762 0.0341,-14.96848 z"
         fill="#ffffff"
         opacity="0.3"
         id="path9084"
         style="stroke-width:0.425823" /><path
         d="m -22.762773,253.45038 c -16.657562,-6.78086 -16.738787,-8.20713 0.0341,-14.96848 l 0.943858,-0.38422 c -16.772887,6.76135 -16.691661,8.18761 -0.0341,14.96848 L 47.1565,281.14431 c 16.657553,6.78086 20.0794,6.78078 36.77085,-0.0139 l -0.94386,0.38422 c -16.691443,6.79467 -20.11329,6.79475 -36.770856,0.0139 z"
         opacity="0.2"
         id="path9086"
         style="stroke-width:0.425823" /></g><g
       id="g22493"
       transform="matrix(0.99161391,0,0,1.1375418,-173.91526,67.949723)"><path
         d="M 141.84323,74 C 71.24979,74 63.65402,81.250835 64,151.98706 V 298 444.01294 C 63.65402,514.74917 71.24979,522 141.84323,522 H 434.15677 C 504.75021,522 513.9371,514.72348 512,444.01294 V 298 151.98706 C 512,81.249993 504.75021,74 434.15677,74 Z"
         filter="url(#f)"
         opacity="0.1"
         transform="matrix(0.23596465,0.09605523,-0.23596465,0.09605523,67.433959,-49.903343)"
         id="path543"
         style="filter:url(#f-9)" /><path
         d="M 141.84323,74 C 71.24979,74 63.65402,81.250835 64,151.98706 V 298 444.01294 C 63.65402,514.74917 71.24979,522 141.84323,522 H 434.15677 C 504.75021,522 513.9371,514.72348 512,444.01294 V 298 151.98706 C 512,81.249993 504.75021,74 434.15677,74 Z"
         fill="url(#d)"
         filter="url(#e)"
         opacity="0.3"
         transform="matrix(0.23596465,0.09605523,-0.23596465,0.09605523,67.433815,-49.903284)"
         id="path545"
         style="fill:url(#linearGradient9106);filter:url(#e-0)" /><path
         d="m 84.334502,-29.960048 c -17.036086,-6.934959 -20.610648,-6.972234 -37.516456,-0.02233 L 11.748902,-15.706619 -23.32024,-1.4308602 c -17.072803,6.8819286 -16.98123,8.3370393 0.05486,15.2719972 l 70.028324,28.506756 c 17.03608,6.934958 20.990185,7.121897 37.51645,0.02234 L 119.34854,28.094473 154.41768,13.81871 c 16.98951,-6.9159963 16.98123,-8.3370377 -0.0548,-15.2719956 z"
         opacity="0.1"
         id="path547"
         style="stroke-width:0.425823" /><path
         d="m 152.8876,-1.285379 c 16.65756,6.7808707 16.73895,8.2069654 -0.0339,14.968314 l -34.4539,14.025306 -34.453895,14.02531 c -16.609617,6.827818 -20.112889,6.794686 -36.770443,0.01383 L -21.800223,13.669125 C -38.457775,6.8882588 -38.457727,5.4954781 -21.766281,-1.2991877 L 12.687616,-15.324496 47.141507,-29.349802 c 16.69145,-6.794665 20.112888,-6.794684 36.770435,-0.01382 z"
         fill="url(#c)"
         id="path549"
         style="opacity:1;fill:url(#c-1);stroke-width:0.425823" /><path
         d="m 83.914616,-29.362531 c -16.657559,-6.78087 -20.161239,-6.813934 -36.77085,0.01388 l -0.943858,0.384221 c 16.609603,-6.827817 20.113295,-6.794753 36.770848,-0.01388 l 68.975414,28.07814155 c 16.65756,6.78087175 16.65734,8.17381815 -0.0341,14.96848345 l 0.94387,-0.384223 c 16.69143,-6.7946622 16.69165,-8.1876086 0.0341,-14.968481 z"
         fill="#ffffff"
         opacity="0.3"
         id="path561"
         style="stroke-width:0.425823" /><path
         d="m -21.795002,13.67125 c -16.657563,-6.7808721 -16.738787,-8.2071326 0.0341,-14.9684825 l 0.943859,-0.3842211 c -16.772887,6.7613511 -16.691662,8.1876116 -0.0341,14.9684826 l 68.975409,28.078143 c 16.657566,6.780869 20.079413,6.780782 36.770857,-0.01389 l -0.94386,0.38422 c -16.691444,6.794666 -20.113297,6.794755 -36.77085,0.01389 z"
         opacity="0.2"
         id="path563"
         style="stroke-width:0.425823" /></g></g></svg>
