<?xml version="1.0" encoding="UTF-8" standalone="no"?>
<svg
   height="256"
   width="256"
   version="1.1"
   id="svg470"
   sodipodi:docname="slack.svg"
   xml:space="preserve"
   inkscape:version="1.2 (dc2aedaf03, 2022-05-15)"
   xmlns:inkscape="http://www.inkscape.org/namespaces/inkscape"
   xmlns:sodipodi="http://sodipodi.sourceforge.net/DTD/sodipodi-0.dtd"
   xmlns:xlink="http://www.w3.org/1999/xlink"
   xmlns="http://www.w3.org/2000/svg"
   xmlns:svg="http://www.w3.org/2000/svg"><defs
     id="defs474"><filter
       id="e-3"
       color-interpolation-filters="sRGB"
       height="1.0227143"
       width="1.0227022"
       x="-0.011351119"
       y="-0.011357142"><feGaussianBlur
         stdDeviation="2.12"
         id="feGaussianBlur267" /></filter><linearGradient
       id="b-6"
       gradientTransform="rotate(-90,331.23771,196.35545)"
       gradientUnits="userSpaceOnUse"
       x1="39.997002"
       x2="263.99701"
       y1="156"
       y2="156"><stop
         offset="0"
         stop-color="#f7f7f7"
         id="stop254" /><stop
         offset="1"
         stop-color="#e6e6e6"
         id="stop256" /></linearGradient><filter
       id="a-7"
       color-interpolation-filters="sRGB"
       height="1.136"
       width="1.101997"
       x="-0.050998494"
       y="-0.068000013"><feGaussianBlur
         stdDeviation="1.36"
         id="feGaussianBlur251" /></filter></defs><sodipodi:namedview
     id="namedview472"
     pagecolor="#ffffff"
     bordercolor="#000000"
     borderopacity="0.25"
     inkscape:showpageshadow="2"
     inkscape:pageopacity="0.0"
     inkscape:pagecheckerboard="0"
     inkscape:deskcolor="#d1d1d1"
     showgrid="false"
     inkscape:zoom="0.92382813"
     inkscape:cx="163.45032"
     inkscape:cy="172.10994"
     inkscape:window-width="1366"
     inkscape:window-height="704"
     inkscape:window-x="0"
     inkscape:window-y="0"
     inkscape:window-maximized="1"
     inkscape:current-layer="svg470" /><filter
     id="a"
     color-interpolation-filters="sRGB"
     height="1.1423948"
     width="1.2947106"
     x="-0.1473553"
     y="-0.071197387"><feGaussianBlur
       stdDeviation="4.264"
       id="feGaussianBlur431" /></filter><filter
     id="b"
     color-interpolation-filters="sRGB"
     height="1.0177993"
     width="1.0368388"
     x="-0.018419412"
     y="-0.0088996728"><feGaussianBlur
       stdDeviation=".533"
       id="feGaussianBlur434" /></filter><linearGradient
     id="c"
     gradientUnits="userSpaceOnUse"
     x1="80.751999"
     x2="176.752"
     y1="11.248008"
     y2="235.248"
     xlink:href="#b-6"><stop
       offset="0"
       stop-color="#1a7fd4"
       id="stop437"
       style="stop-color:#e6e6e6;stop-opacity:1;" /><stop
       offset="1"
       stop-color="#37a6e6"
       id="stop439"
       style="stop-color:#f7f7f7;stop-opacity:1;" /></linearGradient><filter
     id="d"
     color-interpolation-filters="sRGB"
     height="1.024"
     width="1.024"
     x="-0.012"
     y="-0.012"><feGaussianBlur
       stdDeviation="1.12"
       id="feGaussianBlur442" /></filter><filter
     id="e"
     color-interpolation-filters="sRGB"
     height="1.096"
     width="1.096"
     x="-0.048"
     y="-0.048"><feGaussianBlur
       stdDeviation="4.48"
       id="feGaussianBlur445" /></filter><circle
     cx="128.752"
     cy="127.248"
     filter="url(#e)"
     opacity=".1"
     r="112"
     id="circle448" /><circle
     cx="128.752"
     cy="125.248"
     filter="url(#d)"
     opacity=".1"
     r="112"
     id="circle450" /><circle
     cx="128.752"
     cy="123.248"
     opacity=".1"
     r="114"
     id="circle452" /><circle
     cx="128.752"
     cy="123.248"
     fill="url(#c)"
     r="112"
     id="circle454"
     style="fill-opacity:1.0" /><path
     d="m16.751998 132.94391a112.5345 112.53445 0 0 0 111.977532 102.3041 112.5345 112.53445 0 0 0 112.02247-102.3041z"
     fill="#fff"
     opacity=".1"
     id="path456"
     style="fill:#ffffff;fill-opacity:0.9850989;opacity:0.29764942" /><g
     id="g6812"
     transform="translate(-0.7701961,-0.9634174)"><path
       style="fill:#3eb34f;fill-opacity:1;stroke-width:4.87807"
       d="m 149.03448,51.040337 a 14.634218,14.634218 0 0 0 -14.63421,14.634218 v 39.024565 a 14.634218,14.634218 0 0 0 14.63421,14.63421 14.634218,14.634218 0 0 0 14.63423,-14.63421 V 65.674555 A 14.634218,14.634218 0 0 0 149.03448,51.040337 Z m 39.02458,39.024562 a 14.634218,14.634218 0 0 1 14.63422,14.634221 14.634218,14.634218 0 0 1 -14.63422,14.63421 h -14.63421 v -14.63421 a 14.634218,14.634218 0 0 1 14.63421,-14.634221 z"
       id="path10-5" /><path
       style="fill:#f83a7e;fill-opacity:1;stroke-width:4.87807"
       d="M 110.00991,129.08949 A 14.634218,14.634218 0 0 0 95.37568,143.7237 v 39.02459 a 14.634218,14.634218 0 0 0 14.63423,14.63421 14.634218,14.634218 0 0 0 14.63421,-14.63421 V 143.7237 A 14.634218,14.634218 0 0 0 110.00991,129.08949 Z M 70.98532,158.35792 A 14.634218,14.634218 0 0 1 56.35111,143.7237 14.634218,14.634218 0 0 1 70.98532,129.08949 h 14.63422 v 14.63421 a 14.634218,14.634218 0 0 1 -14.63422,14.63422 z"
       id="path12-3" /><path
       style="fill:#fdc92b;fill-opacity:1;stroke-width:4.87807"
       d="m 202.69328,143.7237 a 14.634218,14.634218 0 0 0 -14.63422,-14.63421 h -39.02458 a 14.634218,14.634218 0 0 0 -14.63421,14.63421 14.634218,14.634218 0 0 0 14.63421,14.63422 h 39.02458 a 14.634218,14.634218 0 0 0 14.63422,-14.63422 z m -53.6588,53.6588 a 14.634218,14.634218 0 0 0 14.63423,-14.63421 14.634218,14.634218 0 0 0 -14.63423,-14.63423 h -14.63421 v 14.63423 a 14.634218,14.634218 0 0 0 14.63421,14.63421 z"
       id="path14-5" /><path
       style="fill:#41a0d7;fill-opacity:1;stroke-width:4.87807"
       d="M 124.64412,104.69912 A 14.634218,14.634218 0 0 0 110.00991,90.064899 H 70.98532 a 14.634218,14.634218 0 0 0 -14.63421,14.634221 14.634218,14.634218 0 0 0 14.63421,14.63421 h 39.02459 a 14.634218,14.634218 0 0 0 14.63421,-14.63421 z M 110.00991,51.040337 a 14.634218,14.634218 0 0 0 -14.63423,14.634218 14.634218,14.634218 0 0 0 14.63423,14.634198 h 14.63421 V 65.674555 A 14.634218,14.634218 0 0 0 110.00991,51.040337 Z"
       id="path16-6" /></g><path
     d="m128.752 11.248008a112 112 0 0 0 -112.000002 111.999992 112 112 0 0 0 .04102 1.16992 112 112 0 0 1 111.958982-111.169912 112 112 0 0 1 111.95898 110.830072 112 112 0 0 0 .041-.83008 112 112 0 0 0 -112-111.999992z"
     fill="#fff"
     opacity=".3"
     id="path466" /><path
     d="m128.752 235.24801a112 112 0 0 1 -112.000002-112.00001 112 112 0 0 1 .04102-1.16992 112 112 0 0 0 111.958982 111.16993 112 112 0 0 0 111.95898-110.83009 112 112 0 0 1 .041.83008 112 112 0 0 1 -112 112.00001z"
     opacity=".2"
     id="path468" /></svg>
