<?xml version="1.0" encoding="UTF-8" standalone="no"?>
<svg
   height="256"
   width="256"
   version="1.1"
   id="svg27"
   sodipodi:docname="todoist.svg"
   inkscape:version="1.2 (dc2aedaf03, 2022-05-15)"
   xmlns:inkscape="http://www.inkscape.org/namespaces/inkscape"
   xmlns:sodipodi="http://sodipodi.sourceforge.net/DTD/sodipodi-0.dtd"
   xmlns:xlink="http://www.w3.org/1999/xlink"
   xmlns="http://www.w3.org/2000/svg"
   xmlns:svg="http://www.w3.org/2000/svg">
  <defs
     id="defs31">
    <linearGradient
       inkscape:collect="always"
       id="linearGradient637">
      <stop
         style="stop-color:#f22c42;stop-opacity:1"
         offset="0"
         id="stop633" />
      <stop
         style="stop-color:#da1636;stop-opacity:1"
         offset="1"
         id="stop635" />
    </linearGradient>
    <clipPath
       clipPathUnits="userSpaceOnUse"
       id="clipPath1069">
      <rect
         style="opacity:1;fill:#76c22b;fill-opacity:0.297112;stroke:none;stroke-width:18.6888"
         id="rect1071"
         width="183.07477"
         height="224"
         x="56.80854"
         y="15.174467" />
    </clipPath>
    <linearGradient
       inkscape:collect="always"
       xlink:href="#linearGradient637"
       id="linearGradient639"
       x1="15.356023"
       y1="84.105347"
       x2="238.6463"
       y2="235.19002"
       gradientUnits="userSpaceOnUse" />
  </defs>
  <sodipodi:namedview
     id="namedview29"
     pagecolor="#ffffff"
     bordercolor="#000000"
     borderopacity="0.25"
     inkscape:showpageshadow="2"
     inkscape:pageopacity="0.0"
     inkscape:pagecheckerboard="0"
     inkscape:deskcolor="#d1d1d1"
     showgrid="false"
     inkscape:zoom="1.3064902"
     inkscape:cx="85.725863"
     inkscape:cy="160.73599"
     inkscape:window-width="1366"
     inkscape:window-height="704"
     inkscape:window-x="0"
     inkscape:window-y="0"
     inkscape:window-maximized="1"
     inkscape:current-layer="svg27" />
  <linearGradient
     id="a"
     gradientUnits="userSpaceOnUse"
     x1="88"
     x2="488"
     y1="88"
     y2="488">
    <stop
       offset="0"
       stop-opacity=".588235"
       id="stop2" />
    <stop
       offset="1"
       stop-opacity=".205556"
       id="stop4" />
  </linearGradient>
  <filter
     id="b"
     color-interpolation-filters="sRGB"
     height="1.0908571"
     width="1.090809"
     x="-0.045404476"
     y="-0.045428569">
    <feGaussianBlur
       stdDeviation="8.48"
       id="feGaussianBlur7" />
  </filter>
  <filter
     id="c"
     color-interpolation-filters="sRGB"
     height="1.0227143"
     width="1.0227022"
     x="-0.011351119"
     y="-0.011357142">
    <feGaussianBlur
       stdDeviation="2.12"
       id="feGaussianBlur10" />
  </filter>
  <path
     d="m141.84323 74c-70.59344 0-78.18921 7.250835-77.84323 77.98706v146.01294 146.01294c-.34598 70.73623 7.24979 77.98706 77.84323 77.98706h292.31354c70.59344 0 79.78033-7.27652 77.84323-77.98706v-146.01294-146.01294c0-70.737067-7.24979-77.98706-77.84323-77.98706z"
     filter="url(#c)"
     opacity=".1"
     transform="matrix(.5 0 0 .5 -16.116488 -20.825537)"
     id="path13" />
  <path
     d="m141.84323 74c-70.59344 0-78.18921 7.250835-77.84323 77.98706v146.01294 146.01294c-.34598 70.73623 7.24979 77.98706 77.84323 77.98706h292.31354c70.59344 0 79.78033-7.27652 77.84323-77.98706v-146.01294-146.01294c0-70.737067-7.24979-77.98706-77.84323-77.98706z"
     fill="url(#a)"
     filter="url(#b)"
     opacity=".3"
     transform="matrix(.5 0 0 .5 -16.116488 -20.825235)"
     id="path15" />
  <path
     d="m53.695112 13.174464c-36.098811 0-39.983002 3.690159-39.80608 39.689839v74.310167 74.31016c-.176922 35.99969 3.707269 39.68984 39.80608 39.68984h148.387318c36.09881 0 40.77464-3.70276 39.80608-39.68984v-74.31016-74.310167c0-36.00011-3.70727-39.689839-39.80608-39.689839z"
     opacity=".2"
     id="path17" />
  <path
     d="m200.95649 15.174464c35.29673 0 39.09461 3.625419 38.92162 38.993529v73.006477 73.00647c.17299 35.36812-3.62489 38.99353-38.92162 38.99353h-146.156758c-35.296716 0-38.921616-3.625-38.921616-38.99353v-73.00647-73.006477c0-35.36853 3.6249-38.993529 38.921616-38.993529z"
     fill="#c2352a"
     id="path19"
     style="fill:url(#linearGradient639);fill-opacity:1" />
  <path
     d="m54.805392 15.174464c-35.296728 0-39.09487 3.626029-38.92188 38.994139v2c-.17299-35.36811 3.625152-38.99414 38.92188-38.99414h146.156238c35.29673 0 38.92188 3.62561 38.92188 38.99414v-2c0-35.36853-3.62515-38.994139-38.92188-38.994139z"
     fill="#fff"
     opacity=".3"
     id="path21" />
  <path
     d="m54.810792 239.17447c-35.296731 0-39.094875-3.62603-38.921885-38.99414v-2c-.17299 35.36811 3.625154 38.99414 38.921885 38.99414h146.156238c35.29673 0 38.92188-3.62561 38.92188-38.99414v2c0 35.36853-3.62515 38.99414-38.92188 38.99414z"
     opacity=".2"
     id="path23" />
  <path
     d="m200.95649 15.174464c35.29673 0 39.09461 3.625419 38.92162 38.993529v73.006477 73.00647c.17299 35.36812-3.62489 38.99353-38.92162 38.99353h-146.156758c-35.296716 0-38.921616-3.625-38.921616-38.99353v-73.00647-73.006477c0-35.36853 3.6249-38.993529 38.921616-38.993529z"
     fill="#c2352a"
     id="path1067"
     style="fill:#111111;fill-opacity:0.05"
     clip-path="url(#clipPath1069)" />
  <path
     d="m213.0247 210.89264a5.2476791 5.2476791 0 0 0 -2.33666.70381l-41.37418 23.16576-19.02905-8.9552v11.59968l17.00476 7.99989a5.2476791 5.2476791 0 0 0 4.79609-.16791l43.72483-24.4873a5.2476791 5.2476791 0 0 0 -2.2597-9.85873 5.2476791 5.2476791 0 0 0 -.5247 0zm0 17.48994a5.2476791 5.2476791 0 0 0 -2.33666.70239l-41.37418 23.16718-19.02905-8.95485v11.59931l17.00476 7.99991a5.2476791 5.2476791 0 0 0 4.79609-.16791l43.72483-24.4859a5.2476791 5.2476791 0 0 0 -2.2597-9.86013 5.2476791 5.2476791 0 0 0 -.5247 0zm0 17.48924a5.2476791 5.2476791 0 0 0 -2.33666.70309l-41.37418 23.16716-19.02905-8.95483v11.59931l17.00476 7.9999a5.2476791 5.2476791 0 0 0 4.79609-.1679l43.72483-24.48591a5.2476791 5.2476791 0 0 0 -2.2597-9.86082 5.2476791 5.2476791 0 0 0 -.5247 0z"
     fill="#fff"
     fill-rule="evenodd"
     transform="matrix(2.1538462 0 0 2.1538462 -307.81225499616 -402.42633062149)"
     id="path25" />
</svg>
