<?xml version="1.0" encoding="UTF-8" standalone="no"?>
<svg
   height="256"
   width="256"
   version="1.1"
   id="svg41"
   sodipodi:docname="xbox-cloud-gaming.svg"
   xml:space="preserve"
   inkscape:version="1.2 (dc2aedaf03, 2022-05-15)"
   xmlns:inkscape="http://www.inkscape.org/namespaces/inkscape"
   xmlns:sodipodi="http://sodipodi.sourceforge.net/DTD/sodipodi-0.dtd"
   xmlns:xlink="http://www.w3.org/1999/xlink"
   xmlns="http://www.w3.org/2000/svg"
   xmlns:svg="http://www.w3.org/2000/svg"><defs
     id="defs45"><linearGradient
       id="linearGradient6430"><stop
         offset="0"
         style="stop-color:#18a003;stop-opacity:1"
         id="stop6426" /><stop
         offset="1"
         style="stop-color:#2e851b;stop-opacity:1"
         id="stop6428" /></linearGradient><linearGradient
       id="_Linear17"
       x1="0"
       y1="0"
       x2="1"
       y2="0"
       gradientUnits="userSpaceOnUse"
       gradientTransform="matrix(0,235,-235,0,106.005,28.0003)"><stop
         offset="0"
         style="stop-color:rgb(24,163,3);stop-opacity:1"
         id="stop427" /><stop
         offset="1"
         style="stop-color:rgb(16,104,2);stop-opacity:1"
         id="stop429" /></linearGradient></defs><sodipodi:namedview
     id="namedview43"
     pagecolor="#ffffff"
     bordercolor="#000000"
     borderopacity="0.25"
     inkscape:showpageshadow="2"
     inkscape:pageopacity="0.0"
     inkscape:pagecheckerboard="0"
     inkscape:deskcolor="#d1d1d1"
     showgrid="false"
     inkscape:zoom="0.65324516"
     inkscape:cx="-231.15365"
     inkscape:cy="-36.739652"
     inkscape:window-width="1366"
     inkscape:window-height="704"
     inkscape:window-x="0"
     inkscape:window-y="0"
     inkscape:window-maximized="1"
     inkscape:current-layer="svg41" /><filter
     id="a"
     color-interpolation-filters="sRGB"
     height="1.1423948"
     width="1.2947106"
     x="-0.1473553"
     y="-0.071197387"><feGaussianBlur
       stdDeviation="4.264"
       id="feGaussianBlur2" /></filter><filter
     id="b"
     color-interpolation-filters="sRGB"
     height="1.0177993"
     width="1.0368388"
     x="-0.018419412"
     y="-0.0088996728"><feGaussianBlur
       stdDeviation=".533"
       id="feGaussianBlur5" /></filter><linearGradient
     id="c"
     gradientUnits="userSpaceOnUse"
     x1="85.501472"
     x2="176.752"
     y1="22.537647"
     y2="235.248"
     xlink:href="#_Linear17"><stop
       offset="0"
       stop-color="#1a7fd4"
       id="stop8"
       style="stop-color:#28851e;stop-opacity:1" /><stop
       offset="1"
       stop-color="#37a6e6"
       id="stop10"
       style="stop-color:#18a003;stop-opacity:1;" /></linearGradient><filter
     id="d"
     color-interpolation-filters="sRGB"
     height="1.024"
     width="1.024"
     x="-0.012"
     y="-0.012"><feGaussianBlur
       stdDeviation="1.12"
       id="feGaussianBlur13" /></filter><filter
     id="e"
     color-interpolation-filters="sRGB"
     height="1.096"
     width="1.096"
     x="-0.048"
     y="-0.048"><feGaussianBlur
       stdDeviation="4.48"
       id="feGaussianBlur16" /></filter><circle
     cx="128.752"
     cy="127.248"
     filter="url(#e)"
     opacity=".1"
     r="112"
     id="circle19" /><circle
     cx="128.752"
     cy="125.248"
     filter="url(#d)"
     opacity=".1"
     r="112"
     id="circle21" /><circle
     cx="128.752"
     cy="123.248"
     opacity=".1"
     r="114"
     id="circle23" /><circle
     cx="128.752"
     cy="123.248"
     fill="url(#c)"
     r="112"
     id="circle25"
     style="fill-opacity:1.0;fill:url(#c)" /><path
     d="m16.751998 132.94391a112.5345 112.53445 0 0 0 111.977532 102.3041 112.5345 112.53445 0 0 0 112.02247-102.3041z"
     fill="#fff"
     opacity=".1"
     id="path27" /><path
     d="m128.752 11.248008a112 112 0 0 0 -112.000002 111.999992 112 112 0 0 0 .04102 1.16992 112 112 0 0 1 111.958982-111.169912 112 112 0 0 1 111.95898 110.830072 112 112 0 0 0 .041-.83008 112 112 0 0 0 -112-111.999992z"
     fill="#fff"
     opacity=".3"
     id="path37" /><path
     d="m128.752 235.24801a112 112 0 0 1 -112.000002-112.00001 112 112 0 0 1 .04102-1.16992 112 112 0 0 0 111.958982 111.16993 112 112 0 0 0 111.95898-110.83009 112 112 0 0 1 .041.83008 112 112 0 0 1 -112 112.00001z"
     opacity=".2"
     id="path39" /><g
     id="g43"
     enable-background="new"
     stroke="none"
     stroke-width="1.13335"
     transform="matrix(4.6119481,0,0,4.6117597,-1423.8653,-548.86421)"><path
       id="rect4158-8"
       d="m 250.28585,96.060369 c 0,35.296731 -3.62542,39.094611 -38.99353,38.921621 H 130.28585 49.279383 c -35.36812,0.17299 -38.99353,-3.62489 -38.99353,-38.921621 v -50.15676 c 0,-35.296716 3.625,-38.9216164 38.99353,-38.9216164 h 81.006467 81.00647 c 35.36853,0 38.99353,3.6249004 38.99353,38.9216164 z"
       filter="url(#filter53855)"
       opacity="0.1"
       transform="matrix(0.14165902,0,0,0.14166481,318.03167,136.19415)" /><path
       id="rect4158-9"
       d="m 250.28585,96.060369 c 0,35.296731 -3.62542,39.094611 -38.99353,38.921621 H 130.28585 49.279383 c -35.36812,0.17299 -38.99353,-3.62489 -38.99353,-38.921621 v -50.15676 c 0,-35.296716 3.625,-38.9216164 38.99353,-38.9216164 h 81.006467 81.00647 c 35.36853,0 38.99353,3.6249004 38.99353,38.9216164 z"
       filter="url(#filter53827)"
       opacity="0.2"
       transform="matrix(0.14165902,0,0,0.14166481,318.03167,136.19415)" /><path
       id="rect4158"
       d="m 353.4873,149.6606 c 0,5.00015 -0.51357,5.53816 -5.52379,5.51365 h -11.47529 -11.4753 c -5.01021,0.0245 -5.52379,-0.5135 -5.52379,-5.51365 v -7.10502 c 0,-5.00015 0.51352,-5.51366 5.52379,-5.51366 h 11.4753 11.47529 c 5.01028,0 5.52379,0.51351 5.52379,5.51366 z"
       fill="#e3dfd5" /><path
       id="path949-7"
       d="m 210.28856,59.984939 a 11.999998,11.999998 0 0 0 -12.00001,11.99999 11.999998,11.999998 0 0 0 12.00001,12.00001 11.999998,11.999998 0 0 0 11.99999,-12.00001 11.999998,11.999998 0 0 0 -11.99999,-11.99999 z m -48.00015,0 a 11.999998,11.999998 0 0 0 -12,11.99999 11.999998,11.999998 0 0 0 12,12.00001 11.999998,11.999998 0 0 0 12,-12.00001 11.999998,11.999998 0 0 0 -12,-11.99999 z m 24.00001,24 a 12.000004,12.000004 0 0 0 -12.00001,12 12.000004,12.000004 0 0 0 12.00001,12.000001 12.000004,12.000004 0 0 0 11.99999,-12.000001 12.000004,12.000004 0 0 0 -11.99999,-12 z m 0,-48 a 11.999998,11.999998 0 0 0 -12.00001,12 11.999998,11.999998 0 0 0 12.00001,12 11.999998,11.999998 0 0 0 11.99999,-12 11.999998,11.999998 0 0 0 -11.99999,-12 z"
       fill="#101010"
       filter="url(#filter953)"
       opacity="0.2"
       transform="matrix(0.14165902,0,0,0.14166481,318.03167,136.19415)" /><path
       id="path933"
       d="m 59.288553,44.984389 c 0,-3 2,-5 5,-5 h 12 c 3,0 5,2 5,5 v 16 h 16 c 2.999997,0 4.999997,2 4.999997,5 v 11 c 0,3 -2.999997,6 -5.999997,6 h -15 v 16 c 0,4.000001 -2,5.000001 -5,5.000001 h -12 c -3,0 -5,-1 -5,-5.000001 v -16 h -16 c -3,0 -5,-2 -5,-5 v -12 c 0,-3 2,-5 5,-5 h 16 z"
       filter="url(#filter939)"
       opacity="0.2"
       transform="matrix(0.14165902,0,0,0.14166481,318.03167,136.19415)" /><g
       id="g1094"
       enable-background="new"
       transform="matrix(0.14165902,0,0,0.14166481,314.38939,124.00876)"><path
         id="path919-7"
         d="m 236.00015,144.00055 a 11.999998,11.999998 0 0 0 -12.00001,11.99999 11.999998,11.999998 0 0 0 12.00001,12.00001 11.999998,11.999998 0 0 0 11.99999,-12.00001 11.999998,11.999998 0 0 0 -11.99999,-11.99999 z"
         fill="#0e8420" /><path
         id="path1432-7"
         d="m 188,144.00055 a 11.999998,11.999998 0 0 0 -12,11.99999 11.999998,11.999998 0 0 0 12,12.00001 11.999998,11.999998 0 0 0 12,-12.00001 11.999998,11.999998 0 0 0 -12,-11.99999 z"
         fill="#c7162b" /><path
         id="path956-6"
         d="m 212.00001,168.00055 a 12.000004,12.000004 0 0 0 -12.00001,12 12.000004,12.000004 0 0 0 12.00001,12 12.000004,12.000004 0 0 0 11.99999,-12 12.000004,12.000004 0 0 0 -11.99999,-12 z"
         fill="#335280" /><path
         id="path962-4"
         d="M 212.00001,120 A 11.999998,11.999998 0 0 0 200,132 11.999998,11.999998 0 0 0 212.00001,144 11.999998,11.999998 0 0 0 224,132 11.999998,11.999998 0 0 0 212.00001,120 Z"
         fill="#f99b11" /></g><g
       id="g961"
       enable-background="new"
       fill="#aea795"
       transform="matrix(0.14165902,0,0,0.14166481,314.95604,124.00876)"><circle
         id="path1032-1"
         cx="138.5"
         cy="200.5"
         opacity="0.5"
         r="4.5" /><circle
         id="circle1034-2"
         cx="165.5"
         cy="200.5"
         opacity="0.5"
         r="4.5" /></g><path
       id="path932"
       d="m 326.43043,142.28352 c 0,-0.42499 0.28331,-0.70832 0.70829,-0.70832 h 1.69991 c 0.42498,0 0.7083,0.28333 0.7083,0.70832 v 2.26664 h 2.26654 c 0.42498,0 0.70829,0.28333 0.70829,0.70832 v 1.55832 c 0,0.42499 -0.42497,0.84998 -0.84995,0.84998 h -2.12488 v 2.26664 c 0,0.56666 -0.28332,0.70833 -0.7083,0.70833 h -1.69991 c -0.42498,0 -0.70829,-0.14167 -0.70829,-0.70833 v -2.26664 h -2.26655 c -0.42497,0 -0.70829,-0.28332 -0.70829,-0.70832 v -1.69998 c 0,-0.42499 0.28332,-0.70832 0.70829,-0.70832 h 2.26655 z"
       fill="#5d5d5d" /><path
       id="rect4158-78"
       d="m 325.01245,137.04192 c -5.01027,0 -5.52359,0.51328 -5.52359,5.51359 v 13.90556 c 0,0.0125 2.7e-4,0.023 2.8e-4,0.0354 v -13.65793 c -1e-5,-5.0003 0.5136,-5.51386 5.52387,-5.51386 h 11.47521 11.47521 c 4.99775,0 5.52101,0.51297 5.52359,5.47844 v -0.24763 c 0,-5.00031 -0.5136,-5.51359 -5.52387,-5.51359 h -11.47521 z"
       fill="#ffffff"
       opacity="0.3" /><path
       id="rect4158-6"
       d="m 319.48886,149.37783 v 0.28333 c 0,5.0003 0.51338,5.53837 5.52359,5.51386 h 11.47549 11.47521 c 5.01021,0.0245 5.52387,-0.51356 5.52387,-5.51386 v -0.28333 c 0,5.0003 -0.51366,5.53837 -5.52387,5.51386 h -11.47521 -11.47549 c -5.01021,0.0245 -5.52359,-0.51356 -5.52359,-5.51386 z"
       opacity="0.2" /></g></svg>
